<svg width="280" height="181" fill="none" xmlns="http://www.w3.org/2000/svg"><g clip-path="url(#a)"><path d="M280 0H0v180.727h280V0z" fill="#F5F5F5"/><path d="M269.818 7.637H8.909V173.09h260.909V7.637z" fill="#FAFAFA" stroke="#777"/><path d="M110.495 70h-.943l-2.42-3.852v3.851h-.944V64.57h.944l2.427 3.866V64.57h.936V70zm3.701-1.265h-2.103l-.44 1.264h-.98l2.051-5.429h.846l2.055 5.43h-.985l-.444-1.265zm-1.838-.76h1.574l-.787-2.252-.787 2.251zm4.589-3.405 1.567 4.162 1.561-4.162h1.22V70h-.94v-1.79l.093-2.394-1.603 4.183h-.675l-1.6-4.18.093 2.39V70h-.939V64.57h1.223zm8.12 3.006h-2.23v1.67h2.607v.753h-3.55V64.57h3.524v.76h-2.581v1.5h2.23v.746zM110.495 95.453h-.943l-2.42-3.851v3.85h-.944v-5.429h.944l2.427 3.867v-3.867h.936v5.43zm3.701-1.264h-2.103l-.44 1.264h-.98l2.051-5.43h.846l2.055 5.43h-.985l-.444-1.264zm-1.838-.761h1.574l-.787-2.251-.787 2.251zm4.589-3.405 1.567 4.162 1.561-4.162h1.22v5.43h-.94v-1.79l.093-2.394-1.603 4.184h-.675l-1.6-4.18.093 2.39v1.79h-.939v-5.43h1.223zm8.12 3.007h-2.23v1.67h2.607v.753h-3.55v-5.43h3.524v.761h-2.581v1.5h2.23v.746zM106.188 120.91v-5.43h1.604c.479 0 .904.107 1.275.321.373.214.661.518.865.91.204.393.306.842.306 1.35v.273c0 .514-.104.966-.31 1.356a2.15 2.15 0 0 1-.876.903 2.625 2.625 0 0 1-1.301.317h-1.563zm.944-4.669v3.915h.615c.495 0 .874-.154 1.137-.462.266-.31.402-.756.407-1.335v-.302c0-.589-.129-1.039-.385-1.35-.256-.311-.627-.466-1.114-.466h-.66zm7.859 2.096c0 .531-.092.999-.276 1.402a2.092 2.092 0 0 1-.791.925c-.34.214-.733.321-1.178.321a2.19 2.19 0 0 1-1.178-.321 2.142 2.142 0 0 1-.798-.922c-.187-.397-.281-.856-.284-1.375v-.306c0-.529.094-.996.28-1.402.189-.405.454-.714.794-.928a2.158 2.158 0 0 1 1.179-.325c.442 0 .834.107 1.174.321.343.211.608.517.794.916.187.399.281.862.284 1.391v.303zm-.944-.283c0-.602-.114-1.063-.343-1.384-.226-.321-.548-.481-.965-.481-.408 0-.728.16-.959.481-.228.318-.345.769-.35 1.353v.314c0 .596.115 1.058.347 1.383.233.325.556.488.969.488.418 0 .738-.159.962-.477.226-.318.339-.783.339-1.394v-.283zm1.364 2.856v-5.43h1.861c.613 0 1.081.124 1.402.369.321.247.481.614.481 1.101 0 .248-.067.472-.202.671-.134.198-.33.352-.589.462.294.08.52.23.679.452.162.219.242.482.242.79 0 .509-.164.901-.492 1.175-.326.273-.793.41-1.402.41h-1.98zm.943-2.45v1.696h1.049c.295 0 .527-.072.692-.22.167-.146.251-.35.251-.611 0-.564-.289-.853-.866-.865h-1.126zm0-.694h.925c.293 0 .522-.065.686-.197.167-.134.25-.324.25-.567 0-.268-.077-.463-.231-.581-.152-.12-.389-.18-.712-.18h-.918v1.525zM252.062 68.727H131.028c-.668 0-1.21.285-1.21.636 0 .351.542.636 1.21.636h121.034c.668 0 1.211-.285 1.211-.636 0-.351-.543-.636-1.211-.636zM231.21 94.184h-99.693c-.938 0-1.699.285-1.699.636 0 .351.761.636 1.699.636h99.693c.938 0 1.699-.285 1.699-.636 0-.351-.761-.636-1.699-.636zM169.875 119.637h-39.386c-.371 0-.671.285-.671.636 0 .351.3.636.671.636h39.386c.37 0 .67-.285.67-.636 0-.351-.3-.636-.67-.636z" fill="#666"/><path d="M23.7 55.606a8.207 8.207 0 0 1 8.207-8.208h55.82a8.208 8.208 0 0 1 8.21 8.208v55.821a8.21 8.21 0 0 1-8.21 8.21h-55.82a8.209 8.209 0 0 1-8.207-8.21v-55.82z" fill="#EBEBEB"/><path fill-rule="evenodd" clip-rule="evenodd" d="M44.559 72.828c0-8.607 6.866-15.582 15.336-15.582 8.471 0 15.337 6.976 15.337 15.581v7.92a15.63 15.63 0 0 1-6.947 13.045c.108 1.186.458 2.026.93 2.67 1.12 1.537 3.14 2.299 5.882 3.265l.117.039c2.281.803 4.975 1.75 7.06 3.669 2.213 2.037 3.613 5.024 3.613 9.608v6.59H33.904v-6.59c0-4.584 1.4-7.571 3.613-9.608 2.085-1.919 4.777-2.866 7.06-3.669l.117-.04c2.722-.958 4.731-1.716 5.858-3.23l.025-.034c.47-.644.821-1.484.927-2.67a15.63 15.63 0 0 1-6.945-13.044v-7.92zm-7.838 43.748H83.07v-3.533c0-3.919-1.16-6.084-2.687-7.489-1.62-1.49-3.793-2.274-6.207-3.124l-.208-.073c-2.457-.863-5.322-1.869-7.017-4.188-.98-1.343-1.515-3.028-1.516-5.155v-.826l.705-.413a12.75 12.75 0 0 0 6.274-11.027v-7.92c0-7.026-5.605-12.72-12.519-12.72s-12.52 5.694-12.52 12.72v7.92c0 4.711 2.523 8.826 6.276 11.027l.705.413-.001.826c0 1.516-.272 2.807-.783 3.909l.115.085-.847 1.16c-1.695 2.32-4.56 3.326-7.019 4.189l-.206.073c-2.415.85-4.587 1.634-6.207 3.124-1.528 1.405-2.687 3.57-2.687 7.489v3.533z" fill="#A1A1A1"/><path fill-rule="evenodd" clip-rule="evenodd" d="M47.754 75.898c0-7.153 5.479-12.949 12.237-12.949 6.759 0 12.237 5.798 12.237 12.95v6.582c0 4.537-2.207 8.53-5.542 10.84.085.986.365 1.683.74 2.22.895 1.276 2.506 1.908 4.695 2.711l.093.033c1.82.667 3.969 1.454 5.632 3.049 1.766 1.692 2.884 4.175 2.884 7.985v5.476H39.253v-5.476c0-3.81 1.117-6.293 2.883-7.985 1.664-1.595 3.812-2.382 5.633-3.049l.093-.033c2.172-.796 3.776-1.426 4.675-2.684l.02-.028c.374-.536.655-1.233.74-2.22-3.336-2.31-5.543-6.302-5.543-10.84v-6.582zm-6.253 36.356h36.98v-2.935c0-3.257-.925-5.056-2.143-6.224-1.293-1.238-3.026-1.89-4.953-2.596l-.165-.06c-1.96-.718-4.247-1.555-5.599-3.481-.782-1.116-1.209-2.516-1.21-4.284v-.687l.563-.343c2.994-1.827 5.006-5.249 5.006-9.163v-6.583c0-5.84-4.472-10.57-9.989-10.57s-9.989 4.73-9.989 10.57v6.583c0 3.915 2.012 7.334 5.007 9.163l.563.343-.001.687c-.001 1.26-.217 2.333-.625 3.248l.092.071-.676.965c-1.352 1.925-3.639 2.763-5.6 3.481l-.165.06c-1.927.706-3.66 1.358-4.952 2.596-1.219 1.168-2.144 2.967-2.144 6.224v2.935z" fill="#A1A1A1"/><path fill-rule="evenodd" clip-rule="evenodd" d="M46.597 71.871c0-5.722 8.323-14.105 13.391-14.105 5.07 0 13.391 8.384 13.391 14.105v12.805c0 3.631-5.869 5.907-8.37 7.756.064.788.274 1.346.556 1.775.67 1.021 1.88 1.528 3.52 2.17l.07.026c1.365.533 2.977 1.163 4.224 2.44 1.325 1.353 9.94 7.721 9.94 10.768v7.777H36.658v-7.777c0-3.047 8.615-9.415 9.939-10.768 1.248-1.277 2.859-1.907 4.225-2.44l.07-.027c1.628-.636 2.83-1.14 3.505-2.146l.015-.023c.281-.428.491-.987.555-1.775-2.501-1.85-8.37-6.964-8.37-10.594V71.87zm-.476 35.708h27.735v-2.349c0-2.605-.694-4.044-1.608-4.978-.97-.992-2.27-1.512-3.714-2.078l-.124-.048c-1.47-.574-3.185-1.243-4.2-2.785-.586-.893-.906-2.013-.907-3.427v-.549l.422-.274c2.246-1.463 3.755-4.2 3.755-7.331v-5.267c0-4.67-3.354-8.456-7.492-8.456s-7.492 3.786-7.492 8.456v5.267c0 3.132 1.51 5.868 3.756 7.33l.421.275v.549c0 1.008-.163 1.866-.469 2.599l.069.056-.507.772c-1.014 1.542-2.729 2.211-4.2 2.785l-.123.048c-1.446.566-2.745 1.086-3.715 2.078-.914.934-1.607 2.373-1.607 4.978v2.349z" fill="#A1A1A1"/><path fill-rule="evenodd" clip-rule="evenodd" d="M48.088 79.176c0-4.478 7.398-11.04 11.903-11.04 4.507 0 11.904 6.563 11.904 11.04v10.022c0 2.84-5.217 4.622-7.44 6.07.056.615 3.063 1.05 3.313 1.384.597.8-1.149 1.2.31 1.702l.061.021c1.214.418 2.647.91 3.756 1.908 1.177 1.06 8.835 6.043 8.835 8.428v6.086H39.253v-6.086c0-2.385 7.658-7.368 8.835-8.428 1.11-.998 2.541-1.49 3.755-1.908l.062-.021c1.448-.5 1.955-.67 2.555-1.457-.056.615.25-.337 0 0-2.223-1.448-6.372-7.08-6.372-9.921v-7.8zm22.801 22.211 1.43 5.733v-1.837c0-2.039-.618-3.166-1.43-3.896-.862-.775-2.017-1.184-3.302-1.626l-.11-.038c-1.307-.449-3.992.727-4.893-.478-.521-.699.354-3.276.354-4.384v-.428l.375-.216a6.608 6.608 0 0 0 3.337-5.737l-3.337 5.737c0-3.655.356 3.741-3.322 3.741-3.677 0-3.321-7.396-3.321-3.74l-3.338-5.738a6.61 6.61 0 0 0 3.338 5.737l.375.216v.428c-.001.79-.145 1.462-.417 2.035l.06.044 14.074 4.337c-.901 1.207-16.95-2.003-18.257-1.554l-.11.038c-1.285.442-2.44.851-3.301 1.626-.813.73-1.43 1.857-1.43 3.896l23.225-3.896z" fill="#A1A1A1"/><path d="M59.992 109.611c8.59 0 15.554-2.321 15.554-5.184s-6.964-5.185-15.554-5.185-15.553 2.322-15.553 5.185c0 2.863 6.963 5.184 15.553 5.184z" fill="#A1A1A1"/><path d="M54.806 94.06c0 8.591 2.32 15.555 5.184 15.555 2.864 0 5.185-6.964 5.185-15.554s-2.321-15.553-5.185-15.553c-2.863 0-5.184 6.963-5.184 15.553z" fill="#A1A1A1"/><path d="M42.415 127.288c-.537-.154-.928-.344-1.173-.566a1.095 1.095 0 0 1-.365-.834c0-.374.149-.683.446-.925.3-.246.689-.369 1.166-.369.326 0 .616.063.87.189.256.126.454.299.593.521.141.221.212.464.212.727h-.629c0-.287-.091-.512-.273-.675-.183-.164-.44-.247-.773-.247-.308 0-.549.069-.723.205a.676.676 0 0 0-.257.563c0 .194.081.359.244.493.165.132.444.254.838.364.395.111.703.233.925.368.223.133.388.289.495.466.108.178.162.387.162.629 0 .384-.15.693-.45.925-.299.229-.7.345-1.2.345-.327 0-.63-.062-.913-.186a1.55 1.55 0 0 1-.655-.514 1.258 1.258 0 0 1-.228-.739h.63c0 .286.104.512.315.68.213.166.496.247.85.247.33 0 .583-.067.759-.201a.658.658 0 0 0 .264-.551c0-.231-.081-.411-.245-.537-.162-.128-.458-.254-.885-.378zM45.54 129.402h-.603v-3.525h.603v3.525zm-.652-4.46c0-.098.03-.179.088-.246.061-.068.15-.102.267-.102.118 0 .207.034.267.102.061.067.092.148.092.246s-.031.18-.092.245c-.06.066-.15.098-.267.098-.117 0-.206-.032-.267-.098a.352.352 0 0 1-.088-.245zM46.36 127.611c0-.55.127-.985.381-1.31.255-.326.591-.489 1.01-.489.43 0 .766.153 1.007.456l.03-.391h.55v3.441c0 .455-.136.815-.408 1.078-.27.263-.632.394-1.088.394-.254 0-.502-.055-.746-.163a1.285 1.285 0 0 1-.557-.446l.313-.362c.259.319.574.479.948.479.293 0 .521-.082.684-.247.165-.166.248-.397.248-.698v-.303c-.242.278-.57.418-.987.418a1.21 1.21 0 0 1-1.004-.499c-.254-.332-.38-.785-.38-1.358zm.606.069c0 .397.082.71.245.938.162.225.39.338.684.338.38 0 .658-.173.837-.518v-1.61c-.185-.336-.462-.504-.831-.504a.802.802 0 0 0-.688.343c-.164.227-.247.565-.247 1.013zM50.823 125.877l.02.443c.269-.338.62-.508 1.055-.508.745 0 1.12.421 1.127 1.262v2.329h-.603v-2.333c-.002-.253-.06-.442-.176-.564-.113-.121-.29-.182-.53-.182a.865.865 0 0 0-.515.157c-.148.104-.263.24-.346.41v2.512h-.602v-3.526h.57zM56.109 129.403a1.278 1.278 0 0 1-.084-.372 1.35 1.35 0 0 1-1.004.437c-.347 0-.633-.098-.856-.294a.958.958 0 0 1-.333-.749c0-.367.14-.651.417-.854.28-.203.673-.305 1.18-.305h.586v-.277c0-.21-.063-.378-.19-.502-.125-.126-.311-.188-.556-.188a.881.881 0 0 0-.541.161c-.146.11-.218.241-.218.395h-.606a.83.83 0 0 1 .185-.508c.127-.165.296-.295.509-.391.215-.095.45-.144.706-.144.407 0 .725.104.955.307.23.201.35.481.358.838v1.621c0 .323.041.581.124.771v.054h-.632zm-1-.46c.189 0 .368-.049.538-.147a.878.878 0 0 0 .368-.381v-.723h-.473c-.738 0-1.107.217-1.107.648 0 .19.063.336.189.443.126.107.287.16.485.16zM58.377 125.023v.854h.658v.466h-.657v2.186c0 .141.029.248.088.319.058.07.158.104.3.104.069 0 .164-.012.286-.039v.489a1.763 1.763 0 0 1-.463.065c-.269 0-.472-.082-.609-.243-.137-.163-.205-.395-.205-.695v-2.186h-.642v-.466h.642v-.854h.602zM61.92 129.054c-.235.277-.578.414-1.032.414-.376 0-.663-.108-.86-.326-.196-.219-.295-.542-.297-.971v-2.292h.603v2.277c0 .534.217.8.651.8.46 0 .767-.17.919-.514v-2.563h.602v3.524h-.573l-.013-.349zM65.126 126.42a1.605 1.605 0 0 0-.296-.025c-.396 0-.664.17-.805.506v2.502h-.602v-3.526h.586l.01.408c.197-.315.477-.473.84-.473.117 0 .206.017.267.046v.562zM67.082 129.468c-.478 0-.867-.157-1.167-.47-.3-.314-.45-.734-.45-1.26v-.111c0-.35.067-.661.2-.935a1.58 1.58 0 0 1 .56-.645c.241-.156.501-.235.782-.235.458 0 .814.152 1.068.454.254.301.38.734.38 1.295v.252H66.07c.008.348.11.629.302.843a.96.96 0 0 0 .743.319c.213 0 .393-.043.54-.13.148-.086.278-.202.389-.346l.367.288c-.295.453-.738.681-1.328.681zm-.075-3.16a.803.803 0 0 0-.613.267c-.165.176-.267.424-.306.743h1.765v-.046c-.017-.306-.1-.543-.247-.71-.148-.17-.347-.254-.6-.254z" fill="#666"/><path fill-rule="evenodd" clip-rule="evenodd" d="M212.937 128.199c-.828-.916-1.755-.969-2.654-.969-.508 0-.95.125-1.31.451-.337.304-.538.73-.699 1.18l.537.201-.537-.201c-.439 1.228-.411 2.651-.243 3.836.259 1.812.883 3.367 1.72 4.898.403.74.837 1.456 1.29 2.155a3.907 3.907 0 0 1-.794.219c-.419.066-.743-.066-1.068-.349-.335-.292-.627-.707-.97-1.195l-.053-.075a13.62 13.62 0 0 1-.26-.38 20.676 20.676 0 0 0-.44-.637c-.256-.351-.56-.716-.932-1a.625.625 0 0 0-.655-.073.734.734 0 0 0-.312.298 1.708 1.708 0 0 0-.16.435c-.032.132-.055.265-.072.363-.007.051-.014.093-.017.124-.003.017-.004.026-.006.031-.04.185-.078.367-.115.546-.117.569-.228 1.104-.409 1.582l-.071-.071-.105-.104c-.245-.243-.557-.55-.87-.83-.304-.271-.647-.551-.947-.717-.139-.075-.347-.171-.575-.17a.733.733 0 0 0-.71.522 7.48 7.48 0 0 0-.124.45l-.033.135a3.904 3.904 0 0 1-.168.531.883.883 0 0 1-.075.146 20.35 20.35 0 0 1-.542-.257c-.428-.207-.896-.435-1.36-.593l-.05-.016c-.162-.056-.403-.14-.648-.186-.261-.05-.639-.08-.988.099-.216.112-.407.258-.554.37l-.01.008a2.857 2.857 0 0 1-.398.277c-.619.328-1.419.316-2.28.258-1.099-.076-2.178-.297-3.298-.527l-.787-.159a7.684 7.684 0 0 1-.417-.095c-.107-.026-.222-.054-.356-.084a4.3 4.3 0 0 0-.916-.118.579.579 0 0 0-.573.585c0 .324.256.586.573.586.2 0 .42.036.673.092.084.017.184.042.289.067.17.041.353.085.509.116.249.049.498.1.75.151 1.125.232 2.296.472 3.477.553.824.057 1.942.113 2.884-.387.21-.111.395-.254.54-.364l.018-.016c.161-.123.276-.208.392-.268.008-.005.078-.028.264.006.161.031.324.087.495.147l.049.015c.401.137.754.31 1.141.499.218.105.445.215.695.328.358.159.73.143 1.041-.076.265-.186.418-.47.512-.69.099-.234.171-.49.224-.7l.015-.06c.148.108.322.252.514.423.289.258.582.546.826.789l.101.099.219.218c.077.074.17.165.242.219.061.045.144.104.236.147a.745.745 0 0 0 .434.068.72.72 0 0 0 .42-.236 1.17 1.17 0 0 0 .176-.266c.363-.721.54-1.591.691-2.325l.078-.377c.047.059.093.121.139.184.142.194.259.369.381.552.094.141.193.286.306.447.025.035.049.072.076.108.317.453.687.98 1.134 1.369.511.446 1.158.745 1.984.614.377-.06.835-.185 1.278-.387.084.123.169.256.257.391.377.579.803 1.234 1.337 1.743.231.22.594.208.809-.028a.594.594 0 0 0-.028-.828c-.426-.406-.75-.901-1.112-1.456a38.153 38.153 0 0 0-.297-.452c.246-.229.46-.511.593-.849.715-1.814.881-3.575.881-5.479 0-.172.003-.351.004-.537.007-.716.015-1.516-.077-2.277-.118-.971-.406-1.969-1.129-2.767zm-.929 10.925a31.813 31.813 0 0 1-1.258-2.099c-.791-1.449-1.355-2.867-1.585-4.496-.156-1.104-.16-2.303.185-3.267.143-.404.266-.6.382-.705.092-.084.234-.157.551-.157.851 0 1.335.064 1.814.593.494.546.73 1.268.833 2.117.081.674.075 1.372.069 2.077-.003.197-.004.396-.004.593 0 1.834-.161 3.425-.798 5.041a1.047 1.047 0 0 1-.189.303z" fill="#A1A1A1"/><path d="M153.208 154.414c-.07.595-.289 1.054-.659 1.379-.368.32-.858.481-1.47.481-.663 0-1.196-.237-1.597-.713-.399-.476-.598-1.112-.598-1.91v-.54c0-.522.092-.981.278-1.377.187-.396.452-.699.794-.91a2.197 2.197 0 0 1 1.188-.321c.597 0 1.075.168 1.436.502.36.332.568.793.628 1.381h-.744c-.064-.447-.205-.772-.42-.971-.214-.202-.513-.302-.9-.302-.472 0-.844.175-1.114.525-.268.349-.402.847-.402 1.492v.545c0 .608.127 1.093.383 1.453.253.36.61.541 1.068.541.411 0 .727-.093.944-.279.222-.187.368-.512.441-.976h.744zm.714-.342c0-.409.079-.776.238-1.104.163-.327.387-.579.672-.756a1.85 1.85 0 0 1 .984-.266c.568 0 1.027.196 1.377.591.351.393.528.916.528 1.569v.051c0 .406-.079.771-.235 1.095a1.755 1.755 0 0 1-.667.752c-.289.181-.62.27-.995.27-.567 0-1.025-.196-1.377-.59-.35-.393-.525-.915-.525-1.562v-.05zm.717.085c0 .462.107.834.321 1.114.216.281.504.421.864.421.362 0 .65-.141.864-.425.212-.285.319-.683.319-1.195 0-.458-.109-.829-.327-1.111a1.03 1.03 0 0 0-.864-.428c-.352 0-.636.14-.853.42-.216.28-.324.681-.324 1.204zm4.648-2.134.019.463c.307-.36.719-.54 1.238-.54.584 0 .982.224 1.193.671.139-.2.318-.363.539-.486a1.62 1.62 0 0 1 .791-.185c.916 0 1.381.485 1.396 1.455v2.796h-.713v-2.754c0-.299-.068-.52-.205-.667-.136-.15-.365-.224-.686-.224a.934.934 0 0 0-.659.24.947.947 0 0 0-.305.636v2.769h-.718v-2.735c0-.607-.297-.91-.891-.91-.467 0-.788.199-.96.598v3.047h-.714v-4.174h.675zm6.929 0 .019.463c.305-.36.717-.54 1.237-.54.584 0 .981.224 1.192.671.139-.2.318-.363.54-.486.224-.123.487-.185.792-.185.915 0 1.38.485 1.396 1.455v2.796h-.714v-2.754c0-.299-.069-.52-.205-.667-.136-.15-.364-.224-.686-.224a.932.932 0 0 0-.659.24.948.948 0 0 0-.306.636v2.769h-.718v-2.735c0-.607-.296-.91-.889-.91-.469 0-.789.199-.961.598v3.047h-.714v-4.174h.676zm7.031 4.174h-.714v-4.174h.714v4.174zm-.772-5.28c0-.116.035-.214.104-.294.073-.079.177-.12.317-.12.139 0 .244.041.316.12.072.08.108.178.108.294a.408.408 0 0 1-.108.289c-.072.077-.177.116-.316.116-.14 0-.244-.039-.317-.116a.418.418 0 0 1-.104-.289zm4.347 4.173a.52.52 0 0 0-.22-.448c-.144-.107-.397-.2-.76-.277a3.632 3.632 0 0 1-.86-.278 1.262 1.262 0 0 1-.471-.385.944.944 0 0 1-.15-.532c0-.343.145-.632.433-.868.29-.237.66-.356 1.111-.356.472 0 .855.123 1.149.367.295.244.443.556.443.937h-.717a.648.648 0 0 0-.25-.506.93.93 0 0 0-.625-.211c-.26 0-.463.056-.61.169a.537.537 0 0 0-.22.443c0 .173.069.303.205.391.136.087.382.171.736.251.357.079.647.174.868.285.221.111.384.244.49.401a.962.962 0 0 1 .162.566c0 .373-.15.673-.448.9-.297.223-.684.335-1.16.335-.335 0-.63-.059-.887-.177a1.466 1.466 0 0 1-.606-.494 1.212 1.212 0 0 1-.217-.69h.714a.749.749 0 0 0 .286.57c.18.139.416.209.71.209.27 0 .486-.055.648-.163a.505.505 0 0 0 .246-.439zm4.073 0a.519.519 0 0 0-.219-.448c-.144-.107-.398-.2-.76-.277a3.616 3.616 0 0 1-.86-.278 1.254 1.254 0 0 1-.471-.385.936.936 0 0 1-.15-.532c0-.343.144-.632.431-.868.292-.237.661-.356 1.112-.356.473 0 .856.123 1.149.367.295.244.444.556.444.937h-.718a.646.646 0 0 0-.251-.506.923.923 0 0 0-.624-.211c-.26 0-.464.056-.61.169a.536.536 0 0 0-.219.443c0 .173.067.303.204.391.136.087.381.171.737.251.357.079.646.174.868.285.221.111.384.244.49.401a.961.961 0 0 1 .161.566c0 .373-.149.673-.448.9-.298.223-.685.335-1.161.335-.333 0-.63-.059-.887-.177a1.47 1.47 0 0 1-.605-.494 1.21 1.21 0 0 1-.216-.69h.713a.743.743 0 0 0 .287.57c.179.139.416.209.708.209.272 0 .487-.055.648-.163a.502.502 0 0 0 .247-.439zm2.42 1.107h-.714v-4.174h.714v4.174zm-.773-5.28a.44.44 0 0 1 .104-.294c.073-.079.179-.12.317-.12.139 0 .245.041.316.12.073.08.108.178.108.294a.404.404 0 0 1-.108.289c-.071.077-.177.116-.316.116-.138 0-.244-.039-.317-.116a.423.423 0 0 1-.104-.289zm1.728 3.155c0-.409.081-.776.24-1.104.161-.327.385-.579.672-.756a1.84 1.84 0 0 1 .982-.266c.569 0 1.029.196 1.377.591.353.393.53.916.53 1.569v.051c0 .406-.079.771-.236 1.095a1.75 1.75 0 0 1-.668.752c-.287.181-.62.27-.995.27-.565 0-1.025-.196-1.377-.59-.349-.393-.525-.915-.525-1.562v-.05zm.718.085c0 .462.107.834.32 1.114.216.281.504.421.864.421.363 0 .65-.141.864-.425.214-.285.321-.683.321-1.195 0-.458-.11-.829-.329-1.111a1.03 1.03 0 0 0-.864-.428c-.352 0-.636.14-.851.42-.217.28-.325.681-.325 1.204zm4.652-2.134.023.525a1.52 1.52 0 0 1 1.25-.602c.882 0 1.327.498 1.335 1.493v2.758h-.714v-2.761c-.003-.302-.071-.524-.209-.667-.133-.145-.342-.217-.629-.217a1.02 1.02 0 0 0-.608.185 1.247 1.247 0 0 0-.41.486v2.974h-.712v-4.174h.674zm5.416 4.251c-.566 0-1.026-.185-1.381-.555-.355-.373-.532-.871-.532-1.493v-.131c0-.414.077-.783.235-1.107.159-.326.381-.582.663-.764.285-.185.595-.278.925-.278.544 0 .965.179 1.267.536.3.358.45.87.45 1.535v.298h-2.828c.012.411.13.745.359.999.232.252.526.378.88.378.252 0 .466-.052.64-.155.176-.102.328-.238.459-.409l.437.34c-.35.537-.874.806-1.574.806zm-.09-3.741a.947.947 0 0 0-.724.316c-.196.209-.317.501-.362.879h2.089v-.053c-.02-.363-.118-.643-.292-.841-.175-.202-.411-.301-.711-.301zm4.564.131a2.134 2.134 0 0 0-.351-.028c-.468 0-.785.2-.953.598v2.963h-.713v-4.174h.694l.011.482c.234-.373.567-.559.996-.559a.73.73 0 0 1 .316.054v.664zm2.43 1.408c0-.409.08-.776.239-1.104.162-.327.386-.579.671-.756.289-.176.616-.266.984-.266.569 0 1.027.196 1.377.591.353.393.528.916.528 1.569v.051c0 .406-.077.771-.235 1.095a1.755 1.755 0 0 1-.667.752 1.83 1.83 0 0 1-.995.27c-.566 0-1.025-.196-1.378-.59-.348-.393-.524-.915-.524-1.562v-.05zm.718.085c0 .462.107.834.319 1.114.217.281.504.421.865.421.362 0 .65-.141.864-.425.214-.285.32-.683.32-1.195 0-.458-.109-.829-.328-1.111a1.03 1.03 0 0 0-.864-.428c-.353 0-.636.14-.853.42-.215.28-.323.681-.323 1.204zm4.327 2.04v-3.622h-.659v-.552h.659v-.428c0-.446.12-.793.359-1.037.239-.244.578-.367 1.014-.367.166 0 .329.022.49.065l-.038.579a2.146 2.146 0 0 0-.385-.034c-.232 0-.411.067-.536.204-.127.133-.19.327-.19.579v.439h.891v.552h-.891v3.622h-.714zm5.262 0h-.741v-5.616h.741v5.616zm1.92-4.174.024.525a1.519 1.519 0 0 1 1.25-.602c.882 0 1.326.498 1.334 1.493v2.758h-.713v-2.761c-.002-.302-.072-.524-.208-.667-.134-.145-.344-.217-.629-.217-.232 0-.435.061-.61.185-.174.123-.31.285-.408.486v2.974h-.714v-4.174h.674zm5.358 3.669c.255 0 .478-.078.667-.232a.81.81 0 0 0 .317-.579h.675c-.013.24-.096.467-.247.684a1.633 1.633 0 0 1-.609.517 1.75 1.75 0 0 1-.803.192c-.567 0-1.02-.189-1.358-.567-.333-.38-.501-.899-.501-1.557v-.12c0-.407.075-.769.224-1.084.149-.317.363-.563.64-.737.28-.175.611-.263.992-.263.468 0 .856.14 1.164.42.312.282.477.644.498 1.092h-.675a.967.967 0 0 0-.309-.663.941.941 0 0 0-.678-.262c-.363 0-.644.131-.846.393-.197.26-.296.637-.296 1.131v.135c0 .481.099.851.296 1.111.199.259.482.389.849.389zm2.272-1.62c0-.409.08-.776.239-1.104.162-.327.386-.579.671-.756.289-.176.616-.266.984-.266.569 0 1.028.196 1.377.591.353.393.53.916.53 1.569v.051c0 .406-.079.771-.236 1.095a1.764 1.764 0 0 1-.668.752 1.83 1.83 0 0 1-.995.27c-.565 0-1.025-.196-1.377-.59-.349-.393-.525-.915-.525-1.562v-.05zm.718.085c0 .462.107.834.319 1.114.217.281.504.421.865.421.362 0 .65-.141.864-.425.214-.285.321-.683.321-1.195 0-.458-.11-.829-.329-1.111a1.03 1.03 0 0 0-.864-.428c-.353 0-.636.14-.853.42-.215.28-.323.681-.323 1.204zm4.648-2.134.019.463c.306-.36.719-.54 1.238-.54.585 0 .982.224 1.192.671.14-.2.319-.363.541-.486a1.61 1.61 0 0 1 .79-.185c.915 0 1.381.485 1.396 1.455v2.796h-.714v-2.754c0-.299-.067-.52-.203-.667-.137-.15-.366-.224-.688-.224a.934.934 0 0 0-.659.24.955.955 0 0 0-.304.636v2.769h-.718v-2.735c0-.607-.297-.91-.891-.91-.468 0-.788.199-.961.598v3.047h-.714v-4.174h.676zm7.989 4.251c-.566 0-1.027-.185-1.381-.555-.355-.373-.533-.871-.533-1.493v-.131c0-.414.079-.783.235-1.107.159-.326.381-.582.663-.764.287-.185.595-.278.927-.278.542 0 .963.179 1.266.536.299.358.449.87.449 1.535v.298h-2.826c.01.411.13.745.359.999.231.252.524.378.879.378.251 0 .465-.052.642-.155.173-.102.325-.238.458-.409l.436.34c-.35.537-.877.806-1.574.806zm-.089-3.741a.95.95 0 0 0-.726.316c-.194.209-.315.501-.362.879h2.091v-.053c-.022-.363-.119-.643-.293-.841-.177-.202-.414-.301-.71-.301zm4.031 1.569h-1.883v-.582h1.883v.582zm4.69-2.912H242v5.007h-.738v-5.007h-1.801v-.609h4.343v.609zm2.859 5.007c-.042-.082-.076-.229-.1-.44a1.594 1.594 0 0 1-1.19.517c-.411 0-.749-.115-1.015-.346a1.152 1.152 0 0 1-.392-.889c0-.434.163-.771.493-1.009.332-.242.798-.363 1.396-.363h.695v-.328c0-.25-.074-.448-.224-.595-.148-.148-.369-.224-.658-.224-.256 0-.47.065-.64.194-.174.128-.261.284-.261.467h-.717c0-.209.074-.41.219-.602.151-.196.35-.35.604-.463.255-.114.534-.17.837-.17.479 0 .858.121 1.129.363.275.239.414.569.424.992v1.92c0 .383.051.687.147.914v.062h-.747zm-1.185-.543c.224 0 .434-.059.637-.174.201-.116.345-.266.435-.451v-.857h-.559c-.874 0-1.311.256-1.311.768 0 .223.074.398.224.524.148.126.34.19.574.19zm4.305-2.106.925-1.525h.835l-1.367 2.064 1.409 2.11h-.827l-.964-1.563-.964 1.563h-.829l1.409-2.11-1.367-2.064h.827l.913 1.525z" fill="#666"/><path fill-rule="evenodd" clip-rule="evenodd" d="M36.86 135.38c1.208-1.305 2.558-1.38 3.869-1.38.739 0 1.382.177 1.907.641.49.436.784 1.043 1.018 1.682l-.784.286.784-.286c.64 1.751.598 3.778.353 5.467-.375 2.584-1.286 4.8-2.503 6.981a47.768 47.768 0 0 1-1.88 3.071c.4.153.808.257 1.156.311.61.094 1.082-.093 1.555-.496.489-.417.915-1.01 1.414-1.703l.078-.107c.11-.153.24-.343.378-.544.207-.3.434-.628.64-.905.374-.501.816-1.02 1.357-1.425a.928.928 0 0 1 .956-.104c.261.122.398.33.453.423.124.208.194.459.234.621.047.188.08.377.104.517l.027.177.007.043c.059.265.114.525.168.779.172.811.333 1.573.595 2.254l.104-.1.153-.15c.358-.347.812-.783 1.269-1.182.442-.386.94-.786 1.377-1.02.202-.108.506-.246.84-.245.186 0 .415.045.627.194.216.15.34.356.406.55.062.185.124.425.18.642l.05.193c.076.29.152.548.243.756.043.1.081.166.109.208.248-.109.513-.235.79-.366.624-.296 1.306-.619 1.98-.844l.074-.026c.236-.078.587-.197.944-.263.38-.07.93-.115 1.44.141.314.159.592.368.805.528l.015.011c.237.179.406.304.58.394.9.469 2.068.451 3.32.367 1.602-.107 3.175-.422 4.806-.75.379-.076.76-.151 1.145-.226.214-.041.403-.087.61-.135.155-.037.321-.077.516-.119.405-.089.863-.17 1.335-.17a.834.834 0 0 1 0 1.668c-.292 0-.612.051-.981.131-.123.027-.268.06-.42.097-.248.057-.515.121-.743.164l-1.091.218c-1.638.328-3.344.671-5.066.786-1.2.081-2.827.161-4.2-.551-.306-.159-.576-.362-.786-.52l-.027-.021c-.235-.176-.402-.299-.57-.383-.013-.006-.115-.04-.386.009-.233.044-.47.124-.721.208l-.07.023c-.585.196-1.1.441-1.664.71-.316.15-.646.308-1.013.468-.52.227-1.061.203-1.516-.109-.385-.264-.608-.668-.745-.983a6.99 6.99 0 0 1-.349-1.082c-.214.153-.469.359-.747.602-.421.368-.848.779-1.204 1.124l-.146.143-.32.308a4.408 4.408 0 0 1-.352.313 2.069 2.069 0 0 1-.345.21 1.088 1.088 0 0 1-.631.097 1.062 1.062 0 0 1-.612-.335c-.117-.127-.199-.27-.256-.381-.528-1.028-.787-2.266-1.007-3.313l-.114-.537c-.067.084-.134.172-.201.262-.208.277-.379.526-.556.787-.138.201-.28.407-.445.638l-.11.154c-.463.644-1.003 1.396-1.653 1.949-.744.636-1.687 1.062-2.891.876a7.458 7.458 0 0 1-1.86-.552c-.123.177-.247.364-.376.557-.549.826-1.17 1.759-1.947 2.485a.834.834 0 0 1-1.138-1.22c.62-.579 1.092-1.286 1.62-2.077.139-.209.282-.424.433-.644a3.329 3.329 0 0 1-.865-1.209c-1.042-2.585-1.282-5.093-1.282-7.807 0-.245-.003-.501-.006-.766-.01-1.019-.022-2.161.112-3.244.171-1.384.592-2.807 1.644-3.944zm1.355 15.569a45.715 45.715 0 0 0 1.832-2.991c1.153-2.064 1.973-4.085 2.31-6.407.228-1.572.233-3.281-.27-4.656-.21-.575-.388-.855-.556-1.005-.135-.12-.34-.221-.802-.221-1.24 0-1.946.089-2.644.843-.719.778-1.063 1.806-1.213 3.017-.12.961-.11 1.953-.1 2.96.003.281.006.563.006.845 0 2.614.234 4.881 1.162 7.182.06.148.15.293.275.433z" fill="#A1A1A1"/><path d="M81.499 133.336H26.727v25.806H81.5v-25.806z" stroke="#666" stroke-width=".2"/><path d="M90.484 26.697v2.83h-.953v-7.23h2.666c.792 0 1.41.202 1.858.605.45.405.675.939.675 1.605 0 .701-.22 1.243-.66 1.623-.438.378-1.065.567-1.882.567h-1.704zm0-.78h1.713c.51 0 .901-.12 1.172-.358.272-.24.408-.59.408-1.042 0-.43-.136-.775-.408-1.033-.271-.258-.643-.393-1.117-.403h-1.767v2.836zM97.96 29.627c-.728 0-1.32-.24-1.777-.715-.457-.48-.686-1.12-.686-1.922v-.17c0-.532.101-1.007.303-1.424.205-.42.49-.749.854-.984a2.154 2.154 0 0 1 1.192-.357c.699 0 1.241.23 1.629.69.387.46.581 1.12.581 1.977v.382h-3.64c.013.53.167.959.462 1.287.298.324.675.486 1.132.486.324 0 .599-.066.824-.2a2.05 2.05 0 0 0 .59-.526l.562.438c-.45.692-1.125 1.038-2.026 1.038zm-.114-4.817c-.37 0-.682.135-.934.406-.251.27-.407.646-.466 1.133h2.691v-.069c-.026-.467-.152-.828-.377-1.083-.225-.258-.53-.387-.914-.387zM103.72 24.979a2.784 2.784 0 0 0-.453-.035c-.602 0-1.011.256-1.226.77v3.813h-.919v-5.372h.894l.015.62c.301-.48.728-.72 1.281-.72.179 0 .314.023.408.07v.854zM105.432 24.155l.024.596c.394-.464.926-.696 1.595-.696.751 0 1.263.288 1.534.864a2.04 2.04 0 0 1 .695-.625c.288-.159.627-.24 1.018-.24 1.179 0 1.778.625 1.797 1.873v3.6h-.918v-3.545c0-.384-.088-.67-.263-.86-.176-.192-.47-.287-.884-.287-.341 0-.624.103-.849.307-.225.203-.356.476-.392.82v3.565h-.924v-3.52c0-.782-.383-1.172-1.148-1.172-.602 0-1.014.256-1.236.77v3.922h-.919v-5.372h.87zM116.803 29.527c-.052-.105-.095-.295-.128-.565-.428.443-.937.665-1.53.665-.53 0-.965-.15-1.306-.448a1.463 1.463 0 0 1-.507-1.142c0-.559.212-.992.636-1.3.427-.312 1.027-.467 1.798-.467h.893v-.422c0-.321-.095-.576-.287-.765-.193-.192-.475-.288-.849-.288-.329 0-.604.083-.825.249-.222.165-.333.365-.333.6h-.923c0-.268.094-.526.283-.775.192-.251.45-.45.774-.595a2.62 2.62 0 0 1 1.077-.22c.62 0 1.105.157 1.456.468.351.308.533.733.546 1.276v2.473c0 .493.063.885.189 1.177v.079h-.964zm-1.523-.7c.287 0 .561-.074.818-.223.258-.15.445-.343.561-.581V26.92h-.72c-1.125 0-1.688.33-1.688.989 0 .287.096.513.288.674.192.163.439.244.741.244zM119.884 24.155l.03.675a1.96 1.96 0 0 1 1.608-.775c1.136 0 1.708.64 1.719 1.922v3.55h-.918v-3.555c-.004-.387-.093-.673-.269-.859-.173-.186-.441-.278-.809-.278-.298 0-.56.08-.785.238a1.61 1.61 0 0 0-.526.626v3.828h-.919v-5.372h.869zM126.86 29.627c-.729 0-1.321-.24-1.778-.715-.457-.48-.686-1.12-.686-1.922v-.17c0-.532.102-1.007.304-1.424.204-.42.489-.749.854-.984a2.154 2.154 0 0 1 1.192-.357c.697 0 1.241.23 1.628.69.388.46.581 1.12.581 1.977v.382h-3.64c.014.53.167.959.462 1.287.298.324.676.486 1.133.486.324 0 .598-.066.823-.2a2.05 2.05 0 0 0 .592-.526l.56.438c-.449.692-1.125 1.038-2.025 1.038zm-.114-4.817c-.372 0-.682.135-.933.406-.252.27-.409.646-.467 1.133h2.69v-.069c-.025-.467-.151-.828-.378-1.083-.224-.258-.529-.387-.912-.387zM130.896 24.155l.029.675a1.96 1.96 0 0 1 1.609-.775c1.137 0 1.708.64 1.718 1.922v3.55h-.919v-3.555c-.002-.387-.093-.673-.268-.859-.172-.186-.442-.278-.81-.278-.297 0-.558.08-.784.238a1.598 1.598 0 0 0-.525.626v3.828h-.919v-5.372h.869zM136.881 22.855v1.302h1.002v.71h-1.002v3.331c0 .216.045.377.134.486.089.107.241.16.457.16.105 0 .251-.02.437-.06v.744c-.242.067-.477.1-.705.1-.411 0-.721-.124-.929-.372-.209-.248-.312-.601-.312-1.058v-3.331h-.979v-.71h.979v-1.302h.918zM145.617 27.64h-3.03l-.679 1.886h-.983l2.76-7.23h.834l2.767 7.23h-.978l-.691-1.886zm-2.742-.784h2.459l-1.232-3.382-1.227 3.382zM150.271 28.877c.328 0 .613-.1.859-.298.244-.199.381-.448.407-.746h.87a1.674 1.674 0 0 1-.319.88c-.196.278-.457.5-.785.665a2.236 2.236 0 0 1-1.032.25c-.732 0-1.315-.245-1.748-.731-.431-.49-.646-1.16-.646-2.007v-.154c0-.522.097-.988.289-1.395.191-.407.467-.723.823-.949.362-.224.787-.337 1.277-.337.602 0 1.102.18 1.499.541.401.361.615.83.642 1.406h-.87a1.252 1.252 0 0 0-.397-.855 1.216 1.216 0 0 0-.874-.337c-.467 0-.829.169-1.087.506-.256.334-.383.82-.383 1.456v.173c0 .62.127 1.096.383 1.43.254.334.618.502 1.092.502zM155.597 28.877c.329 0 .615-.1.861-.298.244-.199.379-.448.406-.746h.869a1.664 1.664 0 0 1-.318.88c-.195.278-.457.5-.784.665-.325.166-.67.25-1.034.25-.732 0-1.313-.245-1.747-.731-.43-.49-.645-1.16-.645-2.007v-.154c0-.522.095-.988.287-1.395.192-.407.467-.723.825-.949.36-.224.786-.337 1.275-.337.603 0 1.102.18 1.501.541.401.361.613.83.64 1.406h-.869a1.256 1.256 0 0 0-.397-.855 1.217 1.217 0 0 0-.875-.337c-.466 0-.828.169-1.087.506-.254.334-.383.82-.383 1.456v.173c0 .62.129 1.096.383 1.43.256.334.62.502 1.092.502zM158.522 26.792c0-.527.102-1 .307-1.42.21-.421.497-.746.864-.974a2.37 2.37 0 0 1 1.266-.343c.732 0 1.324.254 1.773.76.455.507.68 1.18.68 2.021v.064c0 .523-.101.994-.302 1.41a2.262 2.262 0 0 1-.86.969 2.361 2.361 0 0 1-1.281.348c-.728 0-1.318-.253-1.771-.76-.452-.506-.676-1.177-.676-2.01v-.065zm.923.108c0 .597.137 1.075.412 1.436.279.36.649.541 1.112.541a1.32 1.32 0 0 0 1.113-.547c.275-.367.412-.88.412-1.538 0-.59-.141-1.067-.422-1.431a1.328 1.328 0 0 0-1.113-.551c-.453 0-.818.18-1.097.541-.277.361-.417.877-.417 1.55zM167.879 28.993c-.358.42-.882.631-1.573.631-.573 0-1.011-.165-1.312-.496-.298-.334-.448-.828-.452-1.48v-3.496h.919v3.47c0 .816.331 1.223.993 1.223.702 0 1.168-.262 1.401-.785v-3.908h.918v5.372h-.875l-.019-.531zM171.047 24.155l.029.675a1.96 1.96 0 0 1 1.609-.775c1.135 0 1.708.64 1.718 1.922v3.55h-.919v-3.555c-.002-.387-.092-.673-.268-.859-.171-.186-.442-.278-.809-.278-.298 0-.56.08-.784.238a1.614 1.614 0 0 0-.528.626v3.828h-.918v-5.372h.87zM177.03 22.855v1.302h1.003v.71h-1.003v3.331c0 .216.046.377.135.486.089.107.242.16.457.16.105 0 .25-.02.436-.06v.744c-.242.067-.477.1-.705.1-.41 0-.72-.124-.929-.372-.207-.248-.313-.601-.313-1.058v-3.331h-.977v-.71h.977v-1.302h.919zM187.338 29.526h-.958l-3.639-5.57v5.57h-.96v-7.23h.96l3.649 5.597v-5.596h.948v7.23zM192.206 28.993c-.359.42-.883.631-1.576.631-.572 0-1.009-.165-1.309-.496-.299-.334-.45-.828-.453-1.48v-3.496h.919v3.47c0 .816.332 1.223.994 1.223.701 0 1.168-.262 1.4-.785v-3.908h.917v5.372h-.873l-.019-.531zM195.362 24.155l.026.596c.393-.464.924-.696 1.593-.696.751 0 1.264.288 1.535.864.178-.258.41-.466.695-.625.288-.159.626-.24 1.017-.24 1.18 0 1.779.625 1.8 1.873v3.6h-.92v-3.545c0-.384-.087-.67-.264-.86-.176-.192-.468-.287-.883-.287-.341 0-.624.103-.849.307-.225.203-.355.476-.393.82v3.565h-.923v-3.52c0-.782-.383-1.172-1.147-1.172-.603 0-1.015.256-1.237.77v3.922h-.919v-5.372h.869zM207.966 26.899c0 .82-.189 1.48-.566 1.981-.377.497-.883.745-1.52.745-.678 0-1.203-.24-1.573-.72l-.044.62h-.846v-7.627h.919v2.845c.371-.46.884-.69 1.535-.69.652 0 1.164.247 1.535.74.373.494.56 1.17.56 2.026v.08zm-.919-.105c0-.625-.121-1.108-.362-1.45-.242-.34-.59-.51-1.043-.51-.606 0-1.041.281-1.306.843v2.324c.282.563.721.845 1.316.845.441 0 .783-.17 1.027-.512.246-.341.368-.854.368-1.54zM211.356 29.627c-.727 0-1.32-.24-1.777-.715-.457-.48-.685-1.12-.685-1.922v-.17c0-.532.099-1.007.302-1.424.206-.42.49-.749.855-.984a2.151 2.151 0 0 1 1.191-.357c.699 0 1.241.23 1.628.69.388.46.582 1.12.582 1.977v.382h-3.64c.014.53.166.959.462 1.287.298.324.676.486 1.132.486.325 0 .6-.066.824-.2.225-.132.422-.306.592-.526l.561.438c-.451.692-1.126 1.038-2.027 1.038zm-.114-4.817c-.37 0-.682.135-.933.406-.252.27-.407.646-.468 1.133h2.693v-.069c-.028-.467-.154-.828-.378-1.083-.225-.258-.529-.387-.914-.387zM217.113 24.979a2.75 2.75 0 0 0-.451-.035c-.602 0-1.011.256-1.227.77v3.813h-.918v-5.372h.894l.015.62c.3-.48.728-.72 1.28-.72.18 0 .316.023.407.07v.854z" fill="#333"/><path d="m106.6 38.858 1.695-3.116h2.141l-2.632 4.481 2.7 4.556h-2.166l-1.738-3.165-1.738 3.165h-2.166l2.7-4.556-2.632-4.48h2.142l1.694 3.115zM117.222 38.858l1.694-3.116h2.142l-2.632 4.481 2.699 4.556h-2.166l-1.737-3.165-1.737 3.165h-2.168l2.701-4.556-2.632-4.48h2.141l1.695 3.115zM127.845 38.858l1.696-3.116h2.142l-2.632 4.481 2.699 4.556h-2.166l-1.739-3.165-1.737 3.165h-2.166l2.701-4.556-2.633-4.48h2.142l1.693 3.115zM138.47 38.858l1.694-3.116h2.142l-2.632 4.481 2.701 4.556h-2.166l-1.739-3.165-1.738 3.165h-2.167l2.701-4.556-2.632-4.48h2.141l1.695 3.115zM149.095 38.858l1.694-3.116h2.142l-2.632 4.481 2.699 4.556h-2.166l-1.737-3.165-1.739 3.165h-2.166l2.7-4.556-2.631-4.48h2.141l1.695 3.115zM159.721 38.858l1.694-3.116h2.141l-2.631 4.481 2.699 4.556h-2.166l-1.737-3.165-1.739 3.165h-2.165l2.699-4.556-2.632-4.48h2.142l1.695 3.115zM170.344 38.858l1.694-3.116h2.142l-2.632 4.481 2.7 4.556h-2.166l-1.738-3.165-1.738 3.165h-2.168l2.701-4.556-2.631-4.48h2.142l1.694 3.115zM180.968 38.858l1.694-3.116h2.142l-2.632 4.481 2.701 4.556h-2.168l-1.737-3.165-1.739 3.165h-2.166l2.701-4.556-2.632-4.48h2.142l1.694 3.115zM191.595 38.858l1.694-3.116h2.142l-2.632 4.481 2.7 4.556h-2.167l-1.737-3.165-1.738 3.165h-2.167l2.701-4.556-2.633-4.48h2.142l1.695 3.115zM202.213 38.858l1.696-3.116h2.14l-2.632 4.481 2.701 4.556h-2.166l-1.739-3.165-1.737 3.165h-2.167l2.7-4.556-2.632-4.48h2.142l1.694 3.115z" fill="#040404"/><path fill-rule="evenodd" clip-rule="evenodd" d="M87.81 12.887c-.322.562-.56 1.42-.56 2.437v40.36c0 1.017.238 1.876.56 2.437.341.596.622.637.664.637h137.607c.042 0 .323-.04.664-.637.322-.561.56-1.42.56-2.437v-40.36c0-1.016-.238-1.875-.56-2.437-.341-.596-.622-.637-.664-.637H88.474c-.042 0-.323.04-.664.637zm-2.17-1.241c.554-.969 1.51-1.896 2.834-1.896h137.607c1.324 0 2.28.927 2.834 1.896.575 1.003.89 2.307.89 3.678v40.36c0 1.372-.315 2.675-.89 3.679-.554.968-1.51 1.895-2.834 1.895H88.474c-1.324 0-2.28-.927-2.834-1.895-.575-1.004-.89-2.307-.89-3.679v-40.36c0-1.371.316-2.675.89-3.678z" fill="#FFC266"/></g><defs><clipPath id="a"><path fill="#fff" d="M0 0h280v180.727H0z"/></clipPath></defs></svg>