<svg width="281" height="166" fill="none" xmlns="http://www.w3.org/2000/svg"><g clip-path="url(#a)"><path d="M.15 8.764A8.046 8.046 0 0 1 8.194.72h263.908a8.046 8.046 0 0 1 8.046 8.045V156.81a8.046 8.046 0 0 1-8.046 8.046H8.195A8.046 8.046 0 0 1 .15 156.81V8.764z" fill="url(#b)"/><path d="M98.52 105.883H26.28c-.398 0-.722.568-.722 1.27 0 .702.324 1.271.723 1.271H98.52c.399 0 .723-.569.723-1.271s-.324-1.27-.723-1.27zM95.53 118.582H26.73c-.648 0-1.172.569-1.172 1.27 0 .702.524 1.271 1.172 1.271H95.53c.648 0 1.173-.569 1.173-1.271 0-.701-.525-1.27-1.173-1.27zM53.047 131.289H26.02c-.254 0-.46.569-.46 1.271 0 .701.206 1.27.46 1.27h27.028c.254 0 .46-.569.46-1.27 0-.702-.206-1.271-.46-1.271z" fill="#fff"/><path d="M202.021 65.657a2.685 2.685 0 0 0-.436-.034c-.581 0-.976.248-1.184.744v3.678h-.885v-5.182h.862l.014.598c.29-.463.703-.695 1.236-.695.173 0 .304.022.393.067v.824z" fill="#2D6079"/><path d="M219.079 56.945c0-2.222 1.8-4.023 4.022-4.023h27.356a4.023 4.023 0 0 1 4.022 4.023v27.357a4.022 4.022 0 0 1-4.022 4.022h-27.356a4.021 4.021 0 0 1-4.022-4.022V56.945z" fill="url(#c)"/><path d="M219.081 107.633c0-2.222 1.8-4.024 4.022-4.024h27.356a4.023 4.023 0 0 1 4.022 4.024v27.356a4.022 4.022 0 0 1-4.022 4.023h-27.356a4.021 4.021 0 0 1-4.022-4.023v-27.356z" fill="#fff"/><path d="M237.569 109.422h-2.623l-2.623 1.124-1.498 2.248-.749 2.622v4.121l.374 2.997 1.498 2.249 1.5 1.123v1.499l-2.249 1.872-3.371 1.499-1.874 1.124-1.123 2.624v3.745h23.975l.377-1.873-.75-2.623-.749-1.873-2.248-1.499-3.372-1.498-1.498-1.124v-1.498l.749-1.124 1.498-2.623.751-2.622.374-3.747-1.874-4.496-2.247-1.873-2.248-.374z" fill="#A1A1A1"/><path fill-rule="evenodd" clip-rule="evenodd" d="M229.3 116.07c0-4.217 3.365-7.636 7.516-7.636s7.516 3.419 7.516 7.636v3.882a7.659 7.659 0 0 1-3.405 6.392c.053.582.225.994.456 1.309.549.753 1.539 1.126 2.884 1.599l.056.021c1.119.393 2.438.857 3.46 1.798 1.084.997 1.77 2.462 1.77 4.708v3.229h-25.475v-3.229c0-2.246.687-3.711 1.771-4.708 1.022-.941 2.341-1.405 3.46-1.798l.057-.021c1.334-.469 2.319-.84 2.872-1.582l.012-.017c.23-.315.402-.727.454-1.309a7.66 7.66 0 0 1-3.404-6.392v-3.882zm-3.841 21.44h22.714v-1.731c0-1.92-.569-2.981-1.315-3.669-.795-.731-1.859-1.115-3.043-1.533l-.102-.035c-1.204-.423-2.609-.917-3.439-2.053-.48-.658-.743-1.483-.743-2.526v-.405l.345-.203a6.247 6.247 0 0 0 3.075-5.403v-3.882c0-3.443-2.747-6.234-6.135-6.234s-6.136 2.791-6.136 6.234v3.882a6.249 6.249 0 0 0 3.076 5.403l.346.203-.001.405c0 .743-.133 1.376-.384 1.916l.057.042-.415.568c-.832 1.136-2.235 1.63-3.44 2.053l-.102.035c-1.184.418-2.247.802-3.042 1.533-.748.688-1.316 1.749-1.316 3.669v1.731z" fill="#A1A1A1"/><path d="M123.737 144.216c-.517-.149-.894-.331-1.131-.547a1.053 1.053 0 0 1-.352-.804c0-.361.143-.658.431-.893.288-.237.664-.355 1.125-.355.314 0 .594.06.84.182s.437.289.571.502c.136.215.205.448.205.701h-.607c0-.276-.088-.493-.264-.65-.177-.159-.425-.239-.745-.239-.298 0-.53.067-.698.198a.65.65 0 0 0-.248.544c0 .187.078.345.236.475.158.127.428.245.808.352.381.106.678.224.891.354.217.128.376.279.478.45.106.172.157.373.157.607 0 .371-.143.669-.433.892-.289.223-.676.333-1.159.333-.315 0-.608-.06-.881-.179a1.491 1.491 0 0 1-.631-.496 1.203 1.203 0 0 1-.22-.714h.607c0 .277.1.495.304.657.205.16.479.239.821.239.318 0 .562-.066.732-.194a.636.636 0 0 0 .254-.532c0-.225-.079-.397-.236-.518-.156-.125-.442-.246-.855-.365zM126.749 146.256h-.581v-3.401h.581v3.401zm-.629-4.304c0-.094.028-.173.085-.238.059-.065.145-.097.258-.097.113 0 .199.032.258.097a.349.349 0 0 1 .087.238c0 .095-.03.174-.087.236-.059.063-.145.095-.258.095-.113 0-.199-.032-.258-.095a.335.335 0 0 1-.085-.236zM127.545 144.524c0-.53.123-.951.369-1.263.245-.315.569-.472.973-.472.416 0 .74.146.972.44l.028-.377h.532v3.319c0 .44-.132.786-.393 1.04-.26.253-.61.381-1.05.381-.246 0-.485-.053-.72-.158a1.25 1.25 0 0 1-.538-.43l.302-.349c.25.308.554.462.915.462.283 0 .503-.08.66-.24.159-.158.239-.383.239-.671v-.293c-.233.268-.55.402-.953.402-.398 0-.721-.16-.967-.48-.246-.321-.369-.758-.369-1.311zm.586.067c0 .383.079.684.236.904a.764.764 0 0 0 .659.327c.366 0 .636-.167.808-.499v-1.554c-.178-.324-.446-.486-.802-.486a.774.774 0 0 0-.663.329c-.159.221-.238.546-.238.979zM131.849 142.852l.018.427c.26-.327.599-.49 1.018-.49.72 0 1.082.405 1.088 1.216v2.248h-.582v-2.251c-.001-.245-.058-.427-.17-.544-.109-.118-.278-.175-.512-.175a.835.835 0 0 0-.496.151 1.03 1.03 0 0 0-.334.395v2.424h-.581v-3.401h.551zM136.952 146.253a1.241 1.241 0 0 1-.081-.359c-.27.281-.593.421-.967.421-.336 0-.612-.093-.827-.283a.922.922 0 0 1-.322-.722c0-.355.135-.63.403-.824.27-.196.65-.294 1.139-.294h.564v-.268c0-.203-.06-.365-.181-.484-.122-.122-.301-.183-.538-.183a.854.854 0 0 0-.522.157c-.14.106-.21.232-.21.381h-.585a.79.79 0 0 1 .18-.49c.121-.16.285-.285.49-.378.207-.091.434-.138.681-.138.392 0 .699.098.921.296.223.194.338.463.347.807v1.566c0 .312.039.56.119.744v.051h-.611zm-.964-.444c.182 0 .355-.047.519-.141a.862.862 0 0 0 .354-.368v-.697h-.455c-.712 0-1.069.207-1.069.625 0 .182.062.324.182.427a.698.698 0 0 0 .469.154zM139.138 142.023v.824h.635v.45h-.635v2.109c0 .136.029.239.085.308.057.067.152.1.289.1.067 0 .159-.012.276-.038v.472a1.672 1.672 0 0 1-.446.063c-.26 0-.455-.079-.587-.236-.132-.156-.199-.381-.199-.669v-2.109h-.619v-.45h.619v-.824h.582zM142.557 145.923c-.226.267-.559.4-.996.4-.364 0-.64-.105-.831-.315-.189-.211-.283-.523-.286-.937v-2.212h.582v2.197c0 .516.209.773.628.773.445 0 .74-.165.887-.496v-2.474h.582v3.401h-.554l-.012-.337zM145.655 143.374a1.704 1.704 0 0 0-.286-.022c-.382 0-.64.163-.776.487v2.414h-.581v-3.401h.565l.01.393a.903.903 0 0 1 .81-.456c.113 0 .199.015.258.044v.541zM147.543 146.315c-.462 0-.837-.15-1.126-.452-.289-.305-.434-.709-.434-1.216v-.107c0-.337.064-.638.192-.902.13-.266.31-.473.54-.623.233-.15.484-.226.755-.226.442 0 .786.146 1.031.437.245.291.367.709.367 1.25v.244h-2.303c.008.335.106.605.293.813a.924.924 0 0 0 .716.308c.205 0 .379-.042.521-.125.143-.084.267-.196.375-.334l.355.277c-.285.437-.714.656-1.282.656zm-.073-3.048a.778.778 0 0 0-.592.258c-.158.169-.256.409-.294.717h1.703v-.044c-.017-.296-.096-.525-.238-.686-.143-.164-.335-.245-.579-.245z" fill="#2D6079"/><path d="M28.386 45.413h-1.345v-7.775h1.345v7.775zm7.009 0h-1.351l-3.466-5.516v5.516h-1.351v-7.775h1.351l3.476 5.538v-5.538h1.34v7.775zm6.709-2.531c-.079.83-.385 1.478-.919 1.944-.534.462-1.244.694-2.13.694-.62 0-1.166-.146-1.64-.438a2.92 2.92 0 0 1-1.09-1.255c-.256-.541-.389-1.17-.4-1.885v-.726c0-.734.13-1.38.39-1.939a2.94 2.94 0 0 1 1.116-1.292c.488-.302 1.05-.454 1.688-.454.858 0 1.548.233 2.072.7.523.466.827 1.125.913 1.976h-1.346c-.064-.56-.228-.961-.491-1.207-.26-.25-.643-.374-1.148-.374-.588 0-1.04.215-1.357.646-.313.427-.473 1.056-.48 1.885v.69c0 .84.15 1.48.448 1.921.303.442.744.662 1.325.662.53 0 .929-.119 1.196-.357.267-.239.436-.636.507-1.191h1.346zm6.597-1.153c0 .762-.132 1.43-.395 2.008-.264.573-.641 1.014-1.132 1.324-.488.306-1.05.459-1.688.459-.63 0-1.192-.153-1.687-.459-.492-.31-.872-.75-1.143-1.32-.267-.569-.402-1.225-.406-1.97v-.438c0-.758.134-1.427.4-2.008.271-.58.65-1.023 1.138-1.329.491-.31 1.054-.465 1.688-.465.633 0 1.194.153 1.682.46.491.302.87.74 1.137 1.313.267.57.402 1.234.406 1.992v.433zm-1.351-.406c0-.862-.164-1.523-.491-1.981-.324-.46-.785-.69-1.383-.69-.584 0-1.042.23-1.373.69-.327.455-.495 1.102-.502 1.938v.449c0 .854.166 1.514.497 1.98.334.467.797.7 1.388.7.598 0 1.058-.228 1.378-.683.324-.456.486-1.122.486-1.997v-.406zm3.628-3.685 2.242 5.96 2.238-5.96h1.746v7.775h-1.346V42.85l.134-3.428-2.296 5.991h-.966l-2.292-5.986.134 3.423v2.563h-1.346v-7.775h1.752zm11.553 4.304h-3.194v2.392h3.733v1.08h-5.084v-7.776h5.047v1.09h-3.696v2.146h3.194v1.068zm8.02-3.214h-2.425v6.685h-1.34v-6.685h-2.404v-1.09h6.169v1.09zm3.916 4.875h-3.012l-.63 1.81H69.42l2.937-7.775h1.213l2.942 7.775h-1.41l-.635-1.81zm-2.633-1.09h2.253l-1.126-3.225-1.127 3.225zm7.42-2.066 1.634-2.81h1.558l-2.348 3.856 2.402 3.92h-1.575l-1.671-2.852-1.678 2.852h-1.57l2.409-3.92-2.355-3.855h1.56l1.634 2.809zm5.328 4.966v-7.775h2.296c.687 0 1.296.153 1.826.46.534.305.948.74 1.239 1.302.292.563.438 1.207.438 1.933v.39c0 .737-.148 1.385-.443 1.944-.292.559-.71.99-1.255 1.292-.541.303-1.163.454-1.864.454h-2.237zm1.35-6.685v5.606h.882c.708 0 1.251-.22 1.629-.662.38-.444.575-1.082.582-1.912v-.432c0-.844-.184-1.488-.55-1.933-.367-.446-.9-.667-1.597-.667h-.945zm9.519 3.214h-3.193v2.392h3.732v1.08h-5.084v-7.776h5.047v1.09h-3.695v2.146h3.193v1.068zm2.17.582v2.89h-1.35v-7.776h2.974c.868 0 1.557.226 2.066.678.513.452.769 1.05.769 1.795 0 .761-.251 1.354-.753 1.778-.499.424-1.198.635-2.099.635h-1.607zm0-1.084h1.624c.48 0 .847-.112 1.1-.336.252-.228.379-.556.379-.983 0-.42-.128-.755-.385-1.004-.256-.253-.608-.382-1.057-.39h-1.661v2.713zm8.226 2.163h-3.012l-.63 1.81h-1.404l2.937-7.775h1.212l2.942 7.775h-1.41l-.635-1.81zm-2.633-1.09h2.254l-1.127-3.225-1.127 3.225zm7.601-.095h-1.506v2.995h-1.35v-7.775h2.734c.896 0 1.589.201 2.077.603.487.403.731.985.731 1.746 0 .52-.126.956-.379 1.309-.249.349-.598.617-1.046.806l1.745 3.242v.07h-1.446l-1.56-2.996zm-1.506-1.085h1.389c.456 0 .812-.113 1.068-.341.256-.232.384-.547.384-.945 0-.417-.119-.74-.358-.967-.234-.228-.587-.345-1.057-.352h-1.426v2.605zm10.004-2.605h-2.424v6.685h-1.34v-6.685h-2.403v-1.09h6.167v1.09zm1.957-1.09 2.243 5.96 2.238-5.96h1.745v7.775h-1.346V42.85l.134-3.428-2.295 5.991h-.967l-2.291-5.986.133 3.423v2.563h-1.346v-7.775h1.752zm11.552 4.304h-3.193v2.392h3.734v1.08h-5.085v-7.776h5.046v1.09h-3.695v2.146h3.193v1.068zm6.988 3.471h-1.351l-3.467-5.516v5.516h-1.351v-7.775h1.351l3.478 5.538v-5.538h1.34v7.775zm6.234-6.685h-2.425v6.685h-1.341v-6.685h-2.402v-1.09h6.168v1.09zM186.891 23.27h-1.798v7.086c-.35 0-.7-.06-1.05-.183-.35-.123-.524-.263-.524-.42v-2.244c-.893-.08-1.646-.105-2.258-.08a4.34 4.34 0 0 1-.21.946c-.096.297-.21.485-.342.564-.087.061-.222.1-.406.118-.183.009-.323-.008-.42-.052-.245-.096-.569-.368-.972-.814-.393-.455-.589-.87-.589-1.247 0-.21.096-.371.288-.485.193-.123.542-.197 1.05-.223v-2.218c-.008-.823-.249-1.234-.722-1.234-.394 0-.59.236-.59.709 0 .35.095.634.288.853.202.219.464.42.787.604-.078.315-.183.529-.314.643a3.838 3.838 0 0 1-1.576-.788c-.463-.385-.695-.844-.695-1.378 0-.542.197-.954.591-1.234.394-.28.871-.42 1.431-.42.471 0 .852.084 1.141.25.298.166.52.346.67.538.35.42.525 1.02.525 1.798v1.811c.375-.026 1.15-.004 2.323.066V23.27h-1.038c-.34-.42-.512-.88-.512-1.378h4.41c.342.42.512.879.512 1.378zm4.981 0h-1.797v7.086c-.35 0-.7-.06-1.05-.183-.35-.123-.525-.263-.525-.42V23.27h-1.286c-.341-.42-.512-.88-.512-1.378h4.66c.34.42.51.879.51 1.378zm5.7 0h-1.825c.114.56.171 1.19.171 1.89s-.153 1.224-.46 1.575c-.297.35-.708.524-1.233.524.149.254.376.534.683.84.315.307.547.53.695.67.49.463.849.791 1.076.984-.07.131-.205.275-.406.433-.202.157-.368.258-.499.302a15.533 15.533 0 0 1-1.181-1.076c-.42-.43-.836-.958-1.247-1.588-.403-.64-.604-1.19-.604-1.654 0-.612.377-.919 1.128-.919.237 0 .447.031.63.092.053-.078.079-.2.079-.367 0-.613-.118-1.181-.354-1.706h-2.033c-.342-.42-.512-.88-.512-1.378h5.38c.341.42.512.879.512 1.378zm8.491 0h-1.798v7.086c-.35 0-.7-.06-1.05-.183-.35-.123-.526-.263-.526-.42v-3.701h-.893c-.717 0-1.219.074-1.509.223-.279.149-.419.403-.419.761 0 .683.407 1.614 1.22 2.795a2.15 2.15 0 0 1-.407.355c-.183.14-.323.219-.42.236-1.268-1.627-1.902-2.953-1.902-3.976 0-.727.275-1.238.827-1.536.56-.297 1.439-.446 2.637-.446h.866V23.27h-4.816c-.342-.42-.512-.88-.512-1.378h8.19c.341.42.512.879.512 1.378zm18.997 0h-1.81v7.086c-.352 0-.7-.06-1.05-.183-.35-.123-.526-.263-.526-.42V26.97a4.039 4.039 0 0 1-.932.091c-.752 0-1.404-.126-1.955-.38-.263.201-.604.328-1.024.38.184.316.52.757 1.01 1.326.499.56.937 1.015 1.313 1.365-.07.131-.206.275-.406.433-.202.157-.369.258-.499.302a15.755 15.755 0 0 1-2.441-3.124c-.306-.55-.46-1.014-.46-1.39 0-.613.376-.92 1.129-.92.236 0 .446.031.63.093.053-.08.078-.202.078-.368 0-.446-.153-.95-.459-1.51h-2.061c-.341-.42-.51-.879-.51-1.377h9.461c.341.42.512.879.512 1.378zm-3.386 0h-2.493c.183.69.275 1.233.275 1.627 0 .385-.031.683-.092.893.201.035.433.052.696.052.595 0 1.133-.096 1.614-.289V23.27zm9.074 0h-1.823c.112.56.17 1.19.17 1.89s-.153 1.224-.459 1.575c-.297.35-.709.524-1.234.524.148.254.377.534.683.84.315.307.546.53.695.67.49.463.849.791 1.077.984-.07.131-.207.275-.408.433-.2.157-.367.258-.499.302a15.533 15.533 0 0 1-1.181-1.076c-.42-.43-.835-.958-1.247-1.588-.402-.64-.603-1.19-.603-1.654 0-.612.376-.919 1.129-.919.236 0 .446.031.63.092.052-.078.079-.2.079-.367 0-.613-.118-1.181-.355-1.706h-2.034c-.341-.42-.512-.88-.512-1.378h5.381c.34.42.511.879.511 1.378zm6.522 0v1.522c.42-.315.853-.472 1.3-.472.673 0 1.216.223 1.627.669.42.438.63 1.02.63 1.745 0 1.05-.508 1.864-1.523 2.441-.367-.218-.691-.595-.971-1.128a4.54 4.54 0 0 0 .971-.866c.289-.35.434-.665.434-.945 0-.517-.228-.774-.683-.774-.577 0-1.173.398-1.785 1.194v3.7c-.35 0-.7-.06-1.05-.183-.35-.123-.525-.263-.525-.42v-1.26c-.463.254-.984.38-1.561.38-.753 0-1.383-.253-1.89-.76-.499-.508-.748-1.103-.748-1.785 0-.683.236-1.221.709-1.615a2.59 2.59 0 0 1 1.692-.59c.647 0 1.246.144 1.798.433V23.27h-4.646c-.341-.42-.512-.88-.512-1.378h10.762c.341.42.512.879.512 1.378h-4.541zm-1.575 2.362a2.642 2.642 0 0 0-1.247-.289c-.463 0-.84.123-1.128.368-.28.236-.42.555-.42.958 0 .402.109.695.328.88.218.174.49.262.814.262.594 0 1.146-.245 1.653-.735v-1.444zm11.131-2.362h-1.799v7.086c-.35 0-.7-.06-1.05-.183-.35-.123-.526-.263-.526-.42V23.27h-1.285c-.342-.42-.513-.88-.513-1.378h4.66c.34.42.513.879.513 1.378zm5.696 0h-1.824c.114.56.172 1.19.172 1.89s-.155 1.224-.459 1.575c-.297.35-.709.524-1.236.524.151.254.377.534.684.84.316.307.547.53.697.67.487.463.848.791 1.074.984-.068.131-.205.275-.406.433-.2.157-.369.258-.498.302a15.345 15.345 0 0 1-1.182-1.076 10.477 10.477 0 0 1-1.247-1.588c-.401-.64-.603-1.19-.603-1.654 0-.612.376-.919 1.129-.919.236 0 .444.031.63.092.05-.078.079-.2.079-.367 0-.613-.12-1.181-.357-1.706h-2.032c-.343-.42-.513-.88-.513-1.378h5.381c.341.42.511.879.511 1.378zM42.259 23.274h-1.798v7.087c-.35 0-.7-.062-1.05-.184-.35-.123-.525-.263-.525-.42v-6.483H36.76v7.087c-.35 0-.7-.062-1.05-.184-.35-.123-.525-.263-.525-.42V27.17c-.28.07-.6.105-.958.105h-.223v.119c0 .577-.175 1.063-.525 1.456-.341.394-.849.59-1.522.59-.473 0-.932-.104-1.378-.314a4.094 4.094 0 0 1-1.168-.84 6.753 6.753 0 0 1-1.549-2.44c.193-.22.46-.369.8-.447.412.857.84 1.505 1.287 1.942.446.438.967.656 1.561.656.377 0 .657-.083.84-.25a.813.813 0 0 0 .276-.629.96.96 0 0 0-.223-.643c-.149-.184-.376-.276-.682-.276-.306 0-.574.057-.801.171-.14-.105-.293-.302-.46-.59-.166-.298-.266-.534-.301-.71.7-.166 1.216-.406 1.548-.721.342-.315.512-.608.512-.88 0-.253-.192-.38-.577-.38-.595 0-1.203.284-1.825.853-.148-.131-.31-.35-.485-.656-.175-.315-.28-.564-.315-.748.665-.516 1.339-.774 2.021-.774.683 0 1.238.179 1.667.538.428.35.643.857.643 1.522s-.297 1.181-.893 1.548c.508.167.897.43 1.168.788a5.443 5.443 0 0 0 1.562-.433v-2.454h-.932c-.34-.42-.511-.88-.511-1.378h8.005c.341.42.512.879.512 1.378zm9.175 0h-1.811v7.087c-.35 0-.7-.062-1.05-.184-.35-.123-.525-.263-.525-.42v-1.234a3.214 3.214 0 0 1-1.615.433c-.56 0-1.054-.1-1.483-.302a2.785 2.785 0 0 1-1.01-.787 4.18 4.18 0 0 1-.866-2.06c.63-.14 1.063-.324 1.299-.552.245-.227.367-.581.367-1.063 0-.306-.117-.612-.354-.918h-1.81c-.342-.42-.513-.88-.513-1.378h8.859c.341.42.512.879.512 1.378zm-3.386 0H45.79c.298.385.447.805.447 1.26 0 1.18-.604 1.924-1.812 2.23.394.517.99.775 1.785.775.805 0 1.418-.24 1.838-.722v-3.543zm9.915 0v1.522c.42-.315.853-.473 1.3-.473.673 0 1.216.224 1.627.67.42.437.63 1.02.63 1.745 0 1.05-.508 1.864-1.522 2.441-.368-.218-.692-.594-.972-1.128.36-.237.683-.525.972-.866.288-.35.433-.665.433-.945 0-.516-.228-.775-.683-.775-.577 0-1.172.398-1.785 1.195v3.7c-.35 0-.7-.06-1.05-.183-.35-.123-.524-.263-.524-.42v-1.26c-.464.254-.985.38-1.562.38-.753 0-1.383-.253-1.89-.76-.499-.508-.748-1.103-.748-1.786 0-.682.236-1.22.709-1.614a2.591 2.591 0 0 1 1.693-.59c.647 0 1.246.144 1.797.433v-1.286h-4.645c-.342-.42-.512-.88-.512-1.378h10.761c.342.42.512.879.512 1.378h-4.54zm-1.575 2.362a2.645 2.645 0 0 0-1.246-.289c-.464 0-.84.123-1.129.368-.28.236-.42.555-.42.958 0 .402.11.695.328.879.219.175.49.262.814.262.595 0 1.146-.244 1.654-.734v-1.444zm11.851-2.362h-1.824c.114.56.17 1.19.17 1.89s-.152 1.224-.459 1.574c-.297.35-.708.525-1.233.525.148.254.376.534.682.84.315.306.547.53.696.67.49.463.848.791 1.076.984-.07.131-.206.275-.407.433-.201.157-.367.258-.499.302a15.4 15.4 0 0 1-1.18-1.076c-.42-.429-.836-.958-1.248-1.588-.402-.64-.603-1.19-.603-1.654 0-.612.376-.919 1.128-.919.237 0 .446.031.63.092.053-.079.08-.2.08-.367 0-.613-.119-1.181-.355-1.706h-2.035c-.34-.42-.511-.88-.511-1.378h5.38c.342.42.512.879.512 1.378zm9-1.378h1.785c-.411-.43-.617-.906-.617-1.43 0-.718.285-1.291.853-1.72.57-.437 1.278-.656 2.126-.656.858 0 1.676.11 2.455.328.778.219 1.452.49 2.02.814 1.094.63 1.838 1.19 2.232 1.68-.096.174-.276.345-.538.511-.875-.647-1.759-1.124-2.651-1.43-.884-.306-1.903-.46-3.058-.46-1.347 0-2.021.416-2.021 1.247 0 .385.153.757.46 1.116h1.613c.342.42.512.879.512 1.378h-1.798v7.087c-.35 0-.7-.062-1.05-.184-.35-.123-.525-.263-.525-.42v-6.483h-1.286c-.341-.42-.512-.88-.512-1.378zm13.849 1.378H89.29v7.087c-.35 0-.7-.062-1.05-.184-.35-.123-.525-.263-.525-.42v-1.168a2.994 2.994 0 0 1-1.64.485c-.84 0-1.51-.271-2.009-.813-.498-.543-.748-1.195-.748-1.956 0-.76.267-1.352.801-1.771.542-.43 1.129-.643 1.758-.643.63 0 1.243.183 1.838.55v-1.167h-4.987c-.341-.42-.512-.88-.512-1.378h8.36c.34.42.512.879.512 1.378zm-3.373 2.204c-.385-.183-.831-.275-1.339-.275-.507 0-.919.131-1.233.393-.315.263-.473.613-.473 1.05 0 .438.105.757.315.959.219.192.481.288.788.288.306 0 .634-.087.984-.262a3.96 3.96 0 0 0 .958-.683v-1.47zm14.718-2.204h-1.798v7.087c-.35 0-.7-.062-1.05-.184-.35-.123-.525-.263-.525-.42v-2.244c-.893-.08-1.645-.105-2.257-.08a4.35 4.35 0 0 1-.21.946c-.097.297-.21.485-.342.564-.087.061-.223.1-.407.118-.183.01-.323-.008-.42-.052-.245-.096-.568-.368-.97-.814-.394-.455-.591-.87-.591-1.247 0-.21.096-.372.288-.485.193-.123.543-.197 1.05-.223v-2.218c-.008-.823-.249-1.234-.721-1.234-.394 0-.591.236-.591.709 0 .35.096.634.289.853.2.218.463.42.787.603-.078.316-.184.53-.315.643a3.824 3.824 0 0 1-1.575-.787c-.463-.385-.695-.844-.695-1.378 0-.542.197-.954.59-1.233.394-.28.871-.42 1.431-.42.472 0 .853.083 1.142.249.297.166.52.345.669.538.35.42.525 1.02.525 1.798v1.811c.376-.026 1.15-.004 2.323.066v-2.966h-1.037c-.341-.42-.512-.88-.512-1.378h4.41c.341.42.512.879.512 1.378zm4.981 0h-1.798v7.087c-.35 0-.7-.062-1.05-.184-.35-.123-.525-.263-.525-.42v-6.483h-1.286c-.341-.42-.512-.88-.512-1.378h4.659c.342.42.512.879.512 1.378zm9.138 0h-1.798v7.087c-.35 0-.7-.062-1.05-.184-.35-.123-.525-.263-.525-.42v-6.483h-2.139v3.097c0 .787-.154 1.303-.46 1.549a.904.904 0 0 1-.564.17c-.359 0-.761-.254-1.207-.761-.447-.508-.67-.928-.67-1.26 0-.228.035-.38.105-.46.193-.236.6-.354 1.221-.354v-1.981h-1.732c-.342-.42-.512-.88-.512-1.378h8.818c.342.42.513.879.513 1.378zM182.747 44.404c-.28.367-.671.644-1.169.833-.499.189-1.064.283-1.698.283-.652 0-1.229-.148-1.73-.443a2.972 2.972 0 0 1-1.164-1.266c-.271-.552-.411-1.194-.423-1.928v-.608c0-1.175.282-2.092.844-2.75.563-.662 1.349-.994 2.356-.994.864 0 1.552.214 2.062.641.508.427.814 1.043.917 1.848h-1.324c-.15-.936-.693-1.405-1.63-1.405-.604 0-1.066.22-1.381.657-.315.434-.477 1.074-.487 1.917v.598c0 .84.176 1.494.529 1.96.356.463.849.694 1.479.694.691 0 1.182-.156 1.474-.47V42.45h-1.603v-1.025h2.948v2.98zm7.69-2.675c0 .762-.131 1.43-.395 2.008-.263.573-.64 1.014-1.132 1.324-.488.306-1.051.459-1.687.459-.631 0-1.194-.153-1.688-.459-.492-.31-.872-.75-1.143-1.32-.266-.569-.402-1.225-.406-1.97v-.438c0-.758.134-1.427.4-2.008.272-.58.65-1.023 1.139-1.329.491-.31 1.053-.465 1.687-.465.634 0 1.194.153 1.681.46.493.302.871.74 1.137 1.313.268.57.403 1.234.407 1.992v.433zm-1.351-.406c0-.862-.164-1.523-.491-1.981-.324-.46-.785-.69-1.383-.69-.584 0-1.041.23-1.373.69-.328.455-.495 1.102-.502 1.938v.449c0 .854.166 1.514.497 1.98.334.467.797.7 1.389.7.597 0 1.056-.228 1.377-.683.324-.456.486-1.122.486-1.997v-.406zm5.319 2.397 1.976-6.082h1.485l-2.799 7.775h-1.308l-2.788-7.775h1.479l1.955 6.082zm9.958-4.992h-2.423v6.685h-1.341v-6.685h-2.403v-1.09h6.167v1.09zm.332 5.318c.242 0 .428.07.561.208a.704.704 0 0 1 .198.513.697.697 0 0 1-.198.507c-.133.132-.319.198-.561.198-.231 0-.415-.066-.55-.198a.678.678 0 0 1-.203-.507.7.7 0 0 1 .198-.513c.131-.138.317-.208.555-.208zm11.299-2.317c0 .762-.131 1.43-.395 2.008-.263.573-.641 1.014-1.131 1.324-.488.306-1.051.459-1.688.459-.63 0-1.193-.153-1.688-.459a3.08 3.08 0 0 1-1.142-1.32c-.268-.569-.402-1.225-.405-1.97v-.438c0-.758.132-1.427.399-2.008.271-.58.651-1.023 1.138-1.329.491-.31 1.054-.465 1.687-.465.634 0 1.194.153 1.683.46.491.302.869.74 1.137 1.313.267.57.402 1.234.405 1.992v.433zm-1.351-.406c0-.862-.163-1.523-.491-1.981-.324-.46-.785-.69-1.383-.69-.583 0-1.041.23-1.373.69-.326.455-.494 1.102-.501 1.938v.449c0 .854.165 1.514.497 1.98.335.467.797.7 1.388.7.599 0 1.058-.228 1.378-.683.323-.456.485-1.122.485-1.997v-.406zm7.177.796h-3.129v3.294h-1.351v-7.775h4.94v1.09h-3.589v2.312h3.129v1.079zm5.683 3.294h-1.346v-7.775h1.346v7.775zm7.827 0h-1.349l-3.466-5.516v5.516h-1.352v-7.775h1.352l3.475 5.538v-5.538h1.34v7.775zm1.598 0v-7.775h2.295c.688 0 1.296.153 1.826.46.536.305.949.74 1.241 1.302.291.563.437 1.207.437 1.933v.39c0 .737-.149 1.385-.443 1.944-.293.559-.71.99-1.255 1.292-.541.303-1.162.454-1.863.454h-2.238zm1.351-6.685v5.606h.88c.709 0 1.252-.22 1.63-.662.381-.444.575-1.082.581-1.912v-.432c0-.844-.183-1.488-.55-1.933-.366-.446-.899-.667-1.597-.667h-.944zm7.22 6.685h-1.346v-7.775h1.346v7.775zm6.109-1.81h-3.013l-.63 1.81h-1.404l2.936-7.775h1.212l2.945 7.775h-1.411l-.635-1.81zm-2.634-1.09h2.254l-1.126-3.225-1.128 3.225zM57.235 94.548V67.31h-7.424v2.682h4.743v3.64h-3.358v2.68h3.358v3.819h-7.67v-4.095h-2.681v4.095H38.724V69.178h3.142v-2.681h-3.142v-4.958H24.307v14.418h11.736v9.849h-4.306v6.06h-6.045v2.682h13.032v-2.682h-4.306v-3.38h4.306v-5.673h4.094v11.735h14.417zm-2.681-2.682h-9.055v-9.053h9.055v9.053zM26.989 64.221h9.054v9.053h-9.054v-9.053zM49.848 61.54h7.38v2.681h-7.38V61.54z" fill="#717171"/><path d="M30.126 67.188h2.77v2.682h-2.77v-2.683zM48.421 85.992h2.77v2.682h-2.77v-2.682zM43.64 61.54h2.77v2.681h-2.77V61.54zM44.159 70.688h2.77v2.682h-2.77v-2.683zM25.647 85.809h2.77v2.68h-2.77v-2.68zM25.068 80.129h7.786v2.682h-7.786v-2.682z" fill="#717171"/><path d="M79.832 67.312v2.73h-.92v-6.976h2.573c.764 0 1.361.196 1.792.585.435.39.652.905.652 1.547 0 .677-.212 1.2-.637 1.568-.422.363-1.027.546-1.816.546h-1.644zm0-.753h1.653c.492 0 .87-.115 1.131-.345.262-.232.393-.569.393-1.006 0-.415-.13-.748-.393-.997-.262-.25-.621-.378-1.078-.388h-1.706v2.736zM87.05 70.142c-.703 0-1.275-.23-1.716-.689-.44-.464-.661-1.082-.661-1.854v-.163c0-.515.097-.973.292-1.376.198-.405.473-.722.824-.95.355-.229.738-.344 1.15-.344.675 0 1.198.222 1.572.666.374.444.56 1.08.56 1.908v.368H85.56c.012.511.16.925.445 1.242.287.313.651.469 1.092.469.313 0 .578-.064.796-.193a1.95 1.95 0 0 0 .57-.507l.541.421c-.434.668-1.086 1.002-1.955 1.002zm-.11-4.648a1.18 1.18 0 0 0-.901.393c-.243.259-.394.623-.45 1.093h2.596v-.067c-.026-.45-.147-.799-.364-1.046-.217-.248-.511-.373-.881-.373zM92.607 65.658a2.556 2.556 0 0 0-.436-.034c-.582 0-.976.247-1.184.743v3.68h-.886v-5.184h.863l.014.598c.29-.463.702-.695 1.236-.695.172 0 .303.023.393.067v.825zM94.264 64.863l.024.574c.38-.447.893-.671 1.538-.671.725 0 1.219.278 1.48.835.173-.25.397-.451.671-.605.278-.153.606-.23.983-.23 1.137 0 1.715.603 1.734 1.806v3.474h-.886v-3.42c0-.372-.085-.647-.254-.83-.17-.186-.454-.278-.853-.278-.329 0-.602.1-.819.298-.218.194-.344.458-.379.79v3.44h-.891V66.65c0-.754-.369-1.13-1.107-1.13-.581 0-.979.247-1.193.742v3.785h-.886v-5.183h.838zM105.235 70.046c-.051-.102-.092-.285-.124-.545-.412.427-.904.641-1.476.641-.511 0-.931-.144-1.26-.43a1.413 1.413 0 0 1-.489-1.104c0-.539.204-.958.613-1.255.412-.3.99-.45 1.735-.45h.862v-.407c0-.31-.092-.555-.278-.738-.185-.185-.458-.278-.819-.278-.316 0-.581.08-.796.24-.214.16-.32.353-.32.58h-.892c0-.26.091-.508.273-.748.186-.242.435-.434.748-.575a2.54 2.54 0 0 1 1.04-.211c.597 0 1.065.15 1.404.45.339.297.514.709.527 1.232v2.386c0 .475.06.855.181 1.136v.076h-.929zm-1.47-.675c.277 0 .541-.071.79-.215a1.31 1.31 0 0 0 .541-.561V67.53h-.695c-1.086 0-1.628.317-1.628.953 0 .278.092.495.277.652.185.156.424.235.715.235zM108.21 64.863l.029.65a1.893 1.893 0 0 1 1.552-.747c1.095 0 1.648.619 1.658 1.854v3.426h-.886v-3.43c-.003-.374-.09-.65-.259-.829-.166-.179-.426-.269-.781-.269-.287 0-.54.077-.757.23a1.57 1.57 0 0 0-.508.604v3.694h-.887v-5.183h.839zM114.933 70.142c-.702 0-1.274-.23-1.715-.689-.44-.464-.661-1.082-.661-1.854v-.163c0-.515.097-.973.292-1.376.198-.405.473-.722.825-.95.354-.229.738-.344 1.149-.344.673 0 1.199.222 1.572.666.374.444.56 1.08.56 1.908v.368h-3.512c.013.511.162.925.446 1.242.287.313.652.469 1.093.469.313 0 .577-.064.794-.193.218-.126.408-.295.571-.507l.541.421c-.434.668-1.086 1.002-1.955 1.002zm-.11-4.648c-.358 0-.657.131-.9.393-.243.259-.393.623-.451 1.093h2.597v-.067c-.025-.45-.146-.799-.364-1.046-.217-.248-.511-.373-.882-.373zM118.831 64.863l.028.65a1.894 1.894 0 0 1 1.552-.747c1.097 0 1.649.619 1.658 1.854v3.426h-.886v-3.43c-.003-.374-.09-.65-.259-.829-.166-.179-.427-.269-.781-.269-.288 0-.54.077-.757.23a1.551 1.551 0 0 0-.507.604v3.694h-.887v-5.183h.839zM124.604 63.617v1.255h.968v.686h-.968v3.213c0 .21.044.365.13.47.086.103.232.154.441.154.101 0 .242-.02.421-.057v.718c-.233.064-.46.097-.68.097-.397 0-.695-.12-.896-.361-.202-.24-.301-.579-.301-1.02v-3.215h-.945v-.685h.945v-1.255h.885zM133.033 68.222h-2.923l-.656 1.82h-.948l2.662-6.976h.806l2.67 6.976h-.945l-.666-1.82zm-2.646-.757h2.373l-1.189-3.264-1.184 3.264zM137.523 69.419c.316 0 .592-.096.829-.288a1.02 1.02 0 0 0 .393-.72h.838c-.016.3-.119.582-.307.85a2.015 2.015 0 0 1-.757.642c-.314.16-.646.24-.996.24-.706 0-1.269-.235-1.686-.705-.417-.474-.624-1.118-.624-1.936v-.149c0-.505.093-.953.278-1.346.185-.393.451-.697.795-.915.349-.217.759-.326 1.232-.326.581 0 1.063.174 1.446.523.387.349.594.8.619 1.356h-.838a1.21 1.21 0 0 0-.384-.825 1.174 1.174 0 0 0-.843-.326c-.451 0-.8.164-1.049.489-.247.323-.37.79-.37 1.405v.167c0 .598.123 1.057.37 1.38.246.323.597.484 1.054.484zM142.66 69.419c.317 0 .593-.096.831-.288.235-.191.365-.432.392-.72h.838c-.016.3-.118.582-.306.85a2.023 2.023 0 0 1-.757.642 2.17 2.17 0 0 1-.998.24c-.706 0-1.267-.235-1.686-.705-.415-.474-.622-1.118-.622-1.936v-.149c0-.505.092-.953.277-1.346.186-.393.451-.697.796-.915.347-.217.759-.326 1.23-.326.583 0 1.065.174 1.448.523.387.349.592.8.618 1.356h-.838a1.21 1.21 0 0 0-.384-.825 1.171 1.171 0 0 0-.844-.326c-.449 0-.799.164-1.048.489-.246.323-.369.79-.369 1.405v.167c0 .598.123 1.057.369 1.38.246.323.598.484 1.053.484zM145.487 67.407c0-.508.098-.965.296-1.37.202-.407.48-.72.834-.94a2.278 2.278 0 0 1 1.222-.331c.706 0 1.276.245 1.71.733.437.49.656 1.14.656 1.951v.062c0 .504-.097.959-.291 1.36a2.19 2.19 0 0 1-.83.935 2.283 2.283 0 0 1-1.236.335c-.702 0-1.272-.243-1.71-.733-.435-.489-.651-1.135-.651-1.94v-.062zm.89.105c0 .574.133 1.037.398 1.385.269.347.626.522 1.073.522.451 0 .808-.176 1.074-.528.265-.354.398-.849.398-1.484 0-.57-.137-1.03-.408-1.38a1.28 1.28 0 0 0-1.073-.533c-.438 0-.79.174-1.059.523-.268.349-.403.846-.403 1.495zM154.517 69.537c-.345.407-.851.61-1.518.61-.552 0-.975-.16-1.266-.48-.287-.322-.432-.797-.436-1.427v-3.373h.887v3.348c0 .787.319 1.18.958 1.18.678 0 1.127-.253 1.352-.758v-3.77h.885v5.184h-.843l-.019-.514zM157.575 64.863l.028.65a1.894 1.894 0 0 1 1.552-.747c1.096 0 1.648.619 1.658 1.854v3.426h-.886v-3.43c-.003-.374-.089-.65-.259-.829-.165-.179-.427-.269-.78-.269-.288 0-.541.077-.757.23a1.556 1.556 0 0 0-.509.604v3.694h-.886v-5.183h.839zM163.348 63.617v1.255h.968v.686h-.968v3.213c0 .21.044.365.13.47.086.103.233.154.441.154.102 0 .242-.02.421-.057v.718c-.233.064-.46.097-.68.097-.396 0-.695-.12-.897-.361-.2-.24-.302-.579-.302-1.02v-3.215h-.943v-.685h.943v-1.255h.887zM173.29 70.042h-.924l-3.512-5.375v5.375h-.926v-6.976h.926l3.521 5.4v-5.4h.915v6.976zM177.992 69.537c-.346.407-.852.61-1.52.61-.553 0-.974-.16-1.265-.48-.288-.322-.433-.797-.436-1.427v-3.373h.886v3.348c0 .787.321 1.18.96 1.18.676 0 1.127-.253 1.35-.758v-3.77h.886v5.184h-.843l-.018-.514zM181.027 64.863l.025.574c.381-.447.891-.671 1.537-.671.725 0 1.22.278 1.481.835.172-.25.396-.451.671-.605.277-.153.604-.23.981-.23 1.139 0 1.717.603 1.737 1.806v3.474h-.888v-3.42c0-.372-.084-.647-.254-.83-.169-.186-.452-.278-.853-.278-.328 0-.601.1-.819.298-.217.194-.342.458-.378.79v3.44h-.892V66.65c0-.754-.369-1.13-1.106-1.13-.582 0-.979.247-1.194.742v3.785h-.887v-5.183h.839zM193.198 67.513c0 .792-.183 1.43-.546 1.912-.364.479-.852.718-1.466.718-.655 0-1.161-.23-1.518-.695l-.043.6h-.816v-7.36h.887v2.745c.357-.444.852-.666 1.481-.666.629 0 1.122.238 1.481.714.36.477.54 1.128.54 1.956v.076zm-.886-.101c0-.603-.117-1.07-.35-1.399-.234-.329-.569-.494-1.006-.494-.585 0-1.005.272-1.26.815v2.242c.271.543.695.816 1.27.816.425 0 .755-.165.991-.494.237-.33.355-.824.355-1.486zM196.466 70.142c-.701 0-1.273-.23-1.714-.689-.441-.464-.661-1.082-.661-1.854v-.163c0-.515.096-.973.291-1.376.199-.405.473-.722.825-.95.354-.229.737-.344 1.15-.344.674 0 1.197.222 1.571.666.374.444.561 1.08.561 1.908v.368h-3.512c.013.511.16.925.445 1.242.288.313.652.469 1.093.469.313 0 .579-.064.795-.193a1.96 1.96 0 0 0 .571-.507l.541.421c-.434.668-1.086 1.002-1.956 1.002zm-.109-4.648c-.358 0-.658.131-.9.393-.243.259-.393.623-.452 1.093h2.598v-.067c-.027-.45-.148-.799-.364-1.046-.218-.248-.511-.373-.882-.373z" fill="#2D6079"/><path d="m94.3 79.057 1.636-3.006h2.066l-2.54 4.324 2.606 4.395h-2.09L94.3 81.717l-1.677 3.053h-2.09l2.605-4.395-2.54-4.324h2.066l1.636 3.006zM104.55 79.057l1.635-3.006h2.066l-2.539 4.324 2.605 4.396h-2.09l-1.677-3.054-1.677 3.054h-2.091l2.606-4.396-2.539-4.324h2.065l1.636 3.006zM114.806 79.057l1.635-3.006h2.067l-2.539 4.324 2.604 4.396h-2.09l-1.677-3.054-1.677 3.054h-2.09l2.606-4.396-2.54-4.324h2.066l1.635 3.006zM125.055 79.057l1.634-3.006h2.067l-2.539 4.324 2.606 4.396h-2.091l-1.677-3.054-1.678 3.054h-2.089l2.605-4.396-2.54-4.324h2.066l1.636 3.006zM135.309 79.057l1.635-3.006h2.066l-2.539 4.324 2.604 4.396h-2.09l-1.676-3.054-1.678 3.054h-2.09l2.606-4.396-2.539-4.324h2.065l1.636 3.006zM145.557 79.057l1.636-3.006h2.065l-2.539 4.324 2.605 4.396h-2.089l-1.678-3.054-1.676 3.054h-2.09l2.603-4.396-2.538-4.324h2.066l1.635 3.006zM155.811 79.057l1.635-3.006h2.067l-2.54 4.324 2.606 4.396h-2.09l-1.678-3.054-1.677 3.054h-2.091l2.606-4.396-2.539-4.324h2.067l1.634 3.006zM166.062 79.057l1.634-3.006h2.066l-2.54 4.324 2.606 4.396h-2.09l-1.676-3.054-1.678 3.054h-2.091l2.606-4.396-2.538-4.324h2.065l1.636 3.006zM176.317 79.057l1.635-3.006h2.067l-2.541 4.324 2.607 4.396h-2.091l-1.677-3.054-1.677 3.054h-2.09l2.606-4.396-2.541-4.324h2.067l1.635 3.006zM186.558 79.057l1.636-3.006h2.066l-2.54 4.324 2.606 4.396h-2.09l-1.678-3.054-1.676 3.054h-2.09l2.606-4.396-2.541-4.324h2.067l1.634 3.006z" fill="#040404"/><path fill="#fff" d="M105.468 115.914h69.116v21.393h-69.116z"/><path fill-rule="evenodd" clip-rule="evenodd" d="M124.52 117.823c1.165-1.26 2.468-1.331 3.732-1.331.713 0 1.334.171 1.84.619.474.419.757 1.006.983 1.622l-.757.277.757-.277c.617 1.69.577 3.647.341 5.276-.362 2.492-1.242 4.632-2.416 6.735a46.783 46.783 0 0 1-1.813 2.964c.385.147.778.248 1.115.299.589.092 1.043-.089 1.5-.478.472-.402.883-.973 1.365-1.643l.075-.104c.105-.147.23-.329.364-.523.201-.291.419-.607.618-.875.361-.482.787-.985 1.309-1.375a.89.89 0 0 1 .922-.1c.252.118.385.32.438.409.119.199.188.441.226.6.045.179.077.363.099.498l.027.17.006.043c.058.254.111.504.164.751.164.781.32 1.517.573 2.174l.101-.097.147-.144c.345-.334.784-.755 1.225-1.141.427-.373.906-.757 1.328-.984.196-.104.489-.236.811-.236.179 0 .4.043.605.186.208.147.328.344.391.532.06.178.12.41.174.62l.048.185c.074.281.147.53.235.73.041.097.078.161.104.202.241-.106.496-.228.763-.354.603-.285 1.261-.598 1.911-.815l.071-.024c.228-.077.566-.191.911-.255.366-.068.898-.111 1.389.136.303.155.572.355.777.51l.014.011c.229.172.393.293.56.38.869.451 1.995.435 3.204.354 1.546-.103 3.064-.408 4.638-.723.365-.074.732-.148 1.104-.219.207-.04.388-.083.589-.131.149-.036.31-.074.498-.114a6.092 6.092 0 0 1 1.287-.164.805.805 0 0 1 0 1.609c-.281 0-.589.05-.945.127-.12.025-.26.058-.407.093-.238.056-.496.117-.716.16-.347.067-.699.137-1.054.208-1.579.318-3.226.649-4.886.759-1.158.079-2.729.156-4.054-.532-.295-.152-.555-.348-.758-.501l-.027-.02c-.226-.17-.386-.288-.55-.37-.011-.006-.11-.038-.371.01a4.96 4.96 0 0 0-.696.2l-.068.022c-.564.189-1.062.426-1.606.685-.304.145-.623.296-.976.451-.502.219-1.024.196-1.464-.104-.371-.255-.586-.645-.718-.948a6.864 6.864 0 0 1-.316-.963l-.021-.081a9.153 9.153 0 0 0-.721.581c-.406.354-.819.75-1.162 1.083-.049.046-.095.093-.141.137l-.308.299c-.108.103-.24.228-.34.301a1.946 1.946 0 0 1-.333.203 1.058 1.058 0 0 1-.609.094 1.024 1.024 0 0 1-.59-.324 1.666 1.666 0 0 1-.248-.366c-.508-.993-.759-2.188-.971-3.198-.038-.178-.074-.352-.111-.517-.064.081-.129.164-.194.251-.2.268-.364.509-.536.759-.133.194-.269.395-.429.616l-.107.148c-.446.623-.966 1.347-1.594 1.883-.717.611-1.628 1.024-2.79.844a7.15 7.15 0 0 1-1.795-.533c-.117.171-.239.352-.362.539-.53.795-1.129 1.697-1.878 2.396a.804.804 0 1 1-1.098-1.177c.598-.557 1.053-1.24 1.562-2.003.135-.202.272-.409.419-.621a3.198 3.198 0 0 1-.836-1.168c-1.004-2.493-1.237-4.914-1.237-7.532 0-.237-.003-.485-.005-.739-.01-.985-.022-2.086.108-3.132.166-1.335.571-2.707 1.586-3.805zm1.306 15.024a44.201 44.201 0 0 0 1.768-2.886c1.113-1.993 1.904-3.942 2.229-6.184.22-1.516.225-3.165-.26-4.491-.203-.555-.375-.825-.537-.97-.13-.116-.329-.215-.774-.215-1.196 0-1.877.086-2.551.815-.693.751-1.026 1.743-1.171 2.911-.114.927-.105 1.885-.096 2.857.003.27.007.542.007.815 0 2.521.224 4.709 1.12 6.93.057.143.146.283.265.418z" fill="#717171"/><path fill-rule="evenodd" clip-rule="evenodd" d="M71.682 53.516c-.321.562-.56 1.42-.56 2.437v40.36c0 1.017.239 1.876.56 2.437.341.596.623.637.665.637h137.606c.042 0 .324-.04.665-.637.321-.561.56-1.42.56-2.437v-40.36c0-1.016-.239-1.875-.56-2.437-.341-.596-.623-.637-.665-.637H72.347c-.042 0-.323.04-.665.637zm-2.17-1.241c.555-.969 1.51-1.896 2.835-1.896h137.606c1.325 0 2.281.927 2.835 1.896.574 1.003.89 2.307.89 3.678v40.36c0 1.372-.316 2.675-.89 3.679-.554.968-1.51 1.895-2.835 1.895H72.347c-1.325 0-2.28-.927-2.835-1.895-.574-1.004-.89-2.307-.89-3.679v-40.36c0-1.371.316-2.675.89-3.678z" fill="#FFC266"/></g><defs><linearGradient id="b" x1="280.149" y1="18.42" x2="2.161" y2="161.639" gradientUnits="userSpaceOnUse"><stop stop-color="#43ACDC"/><stop offset=".781" stop-color="#D8B6D7"/></linearGradient><linearGradient id="c" x1="258.375" y1="88.324" x2="229.698" y2="59.648" gradientUnits="userSpaceOnUse"><stop stop-color="#989898"/><stop offset="1" stop-color="#E6E6E6"/></linearGradient><clipPath id="a"><path fill="#fff" transform="translate(.15 .719)" d="M0 0h280v164.561H0z"/></clipPath></defs></svg>