<svg width="280" height="165" fill="none" xmlns="http://www.w3.org/2000/svg"><g clip-path="url(#a)"><path d="M0 8.046A8.046 8.046 0 0 1 8.046 0h263.909A8.046 8.046 0 0 1 280 8.046V156.09a8.046 8.046 0 0 1-8.045 8.047H8.046A8.046 8.046 0 0 1 0 156.091V8.046z" fill="url(#b)"/><path d="M147.687 61.055H26.997a1.207 1.207 0 0 0 0 2.413h120.69a1.207 1.207 0 0 0 0-2.413zM97.801 72.277H26.996a1.207 1.207 0 0 0 0 2.413h70.805a1.206 1.206 0 1 0 0-2.413z" fill="#fff"/><path d="M149.662 90.353a2.672 2.672 0 0 0-.435-.035c-.581 0-.977.248-1.184.744v3.678h-.886v-5.183h.861l.016.599c.29-.463.703-.695 1.236-.695.173 0 .303.022.392.067v.825z" fill="#2D6079"/><path d="M218.895 56.226c0-2.222 1.8-4.023 4.022-4.023h27.356a4.023 4.023 0 0 1 4.023 4.023v27.356a4.022 4.022 0 0 1-4.023 4.023h-27.356a4.022 4.022 0 0 1-4.022-4.023V56.226z" fill="url(#c)"/><path d="M218.895 113.057c0-2.221 1.8-4.022 4.022-4.022h27.356a4.023 4.023 0 0 1 4.023 4.022v27.357a4.022 4.022 0 0 1-4.023 4.023h-27.356a4.021 4.021 0 0 1-4.022-4.023v-27.357z" fill="#fff"/><path d="M237.381 114.84h-2.623l-2.623 1.124-1.498 2.248-.75 2.622v4.121l.375 2.997 1.498 2.247 1.5 1.125v1.498l-2.249 1.873-3.371 1.499-1.874 1.124-1.124 2.622v3.747h23.977l.375-1.874-.749-2.622-.749-1.873-2.248-1.499-3.372-1.498-1.498-1.124v-1.498l.749-1.124 1.498-2.623.75-2.622.375-3.747-1.874-4.496-2.248-1.873-2.247-.374z" fill="#A1A1A1"/><path fill-rule="evenodd" clip-rule="evenodd" d="M229.12 121.496c0-4.218 3.365-7.637 7.515-7.637 4.151 0 7.516 3.419 7.516 7.637v3.882a7.663 7.663 0 0 1-3.404 6.393c.053.581.225.992.456 1.308.549.753 1.538 1.127 2.883 1.6l.057.02c1.118.393 2.437.857 3.459 1.798 1.086.997 1.771 2.462 1.771 4.708v3.23h-25.475v-3.23c0-2.246.686-3.711 1.771-4.708 1.022-.941 2.341-1.405 3.459-1.798l.058-.02c1.334-.47 2.319-.841 2.871-1.583l.011-.017c.231-.316.403-.727.455-1.308a7.66 7.66 0 0 1-3.403-6.393v-3.882zm-3.842 21.441h22.715v-1.732c0-1.921-.569-2.982-1.317-3.669-.794-.731-1.859-1.115-3.042-1.532l-.102-.035c-1.203-.424-2.608-.918-3.438-2.054-.48-.658-.743-1.483-.743-2.526v-.405l.345-.202a6.252 6.252 0 0 0 3.075-5.404v-3.882c0-3.443-2.747-6.233-6.136-6.233-3.388 0-6.135 2.79-6.135 6.233v3.882a6.25 6.25 0 0 0 3.075 5.404l.346.202-.001.405c0 .743-.134 1.376-.383 1.916l.055.042-.415.568c-.83 1.136-2.234 1.63-3.438 2.054l-.102.035c-1.184.417-2.248.801-3.042 1.532-.748.687-1.317 1.748-1.317 3.669v1.732z" fill="#A1A1A1"/><path d="M27.668 145.95c-.517-.148-.895-.33-1.131-.546a1.058 1.058 0 0 1-.352-.805c0-.361.143-.658.43-.893.29-.237.664-.354 1.125-.354.315 0 .594.06.84.181.247.122.438.29.572.504.136.214.204.447.204.7h-.607c0-.276-.088-.494-.264-.65-.176-.159-.424-.239-.745-.239-.297 0-.53.066-.697.197a.655.655 0 0 0-.249.544c0 .187.079.346.236.476.16.127.429.244.808.351.381.107.679.226.892.356.216.127.376.278.478.45.105.17.157.373.157.605 0 .371-.144.669-.433.893-.29.222-.676.333-1.16.333-.314 0-.608-.059-.88-.178a1.513 1.513 0 0 1-.632-.498 1.212 1.212 0 0 1-.22-.713h.607c0 .276.101.496.305.657.205.159.478.239.82.239.318 0 .562-.065.732-.195a.634.634 0 0 0 .255-.532c0-.223-.079-.397-.236-.518-.157-.123-.442-.246-.855-.365zM30.684 147.99h-.581v-3.401h.58v3.401zm-.629-4.302c0-.095.028-.174.085-.239.059-.066.145-.097.258-.097.113 0 .199.031.258.097a.343.343 0 0 1 .088.239c0 .093-.03.172-.088.236-.059.062-.145.094-.258.094-.113 0-.2-.032-.258-.094a.343.343 0 0 1-.085-.236zM31.477 146.261c0-.529.122-.95.367-1.263.246-.313.57-.471.975-.471.415 0 .738.146.97.44l.03-.377h.53v3.319c0 .44-.13.786-.392 1.041-.26.253-.61.379-1.05.379a1.73 1.73 0 0 1-.72-.157 1.235 1.235 0 0 1-.538-.43l.302-.349c.25.309.554.462.915.462.282 0 .503-.08.66-.239.159-.159.239-.384.239-.672v-.294c-.233.269-.55.403-.952.403-.399 0-.721-.16-.969-.48-.245-.321-.367-.758-.367-1.312zm.584.067c0 .383.079.685.236.905a.768.768 0 0 0 .66.326c.367 0 .636-.165.808-.498v-1.554c-.178-.324-.446-.486-.802-.486a.771.771 0 0 0-.663.329c-.16.221-.239.547-.239.978zM35.78 144.59l.02.427c.259-.326.599-.49 1.017-.49.72 0 1.082.406 1.088 1.216v2.248h-.582v-2.25c-.002-.246-.058-.428-.17-.544-.108-.118-.279-.176-.512-.176a.837.837 0 0 0-.496.151c-.143.1-.254.232-.333.396v2.423h-.582v-3.401h.55zM40.881 147.991a1.222 1.222 0 0 1-.081-.359c-.27.281-.594.421-.969.421-.335 0-.61-.093-.826-.282a.926.926 0 0 1-.32-.724c0-.353.133-.628.401-.822.27-.198.65-.296 1.139-.296h.565v-.267a.65.65 0 0 0-.182-.485c-.122-.12-.301-.182-.538-.182a.853.853 0 0 0-.522.157c-.14.105-.21.233-.21.381h-.585a.8.8 0 0 1 .18-.491c.121-.159.285-.285.49-.377.207-.092.434-.138.682-.138.392 0 .699.099.92.295.223.195.338.464.346.808v1.566c0 .312.04.56.12.744v.051h-.61zm-.965-.444c.183 0 .355-.047.519-.141a.861.861 0 0 0 .355-.367v-.698h-.456c-.712 0-1.068.208-1.068.625 0 .182.06.325.182.428a.704.704 0 0 0 .468.153zM43.07 143.77v.824h.636v.449h-.635v2.109c0 .136.028.239.085.308.056.067.153.101.29.101.066 0 .158-.013.276-.038v.471a1.681 1.681 0 0 1-.447.063c-.26 0-.455-.079-.587-.236-.133-.156-.198-.38-.198-.669v-2.109h-.62v-.449h.62v-.824h.58zM46.488 147.654c-.226.266-.558.399-.996.399-.363 0-.64-.104-.83-.314-.189-.212-.284-.524-.286-.937v-2.212h.582v2.197c0 .516.21.774.628.774.444 0 .74-.166.886-.498v-2.473h.582v3.4H46.5l-.013-.336zM49.585 145.112a1.695 1.695 0 0 0-.286-.022c-.381 0-.64.162-.776.487v2.414h-.581v-3.401h.565l.01.393a.903.903 0 0 1 .81-.456c.113 0 .2.015.258.045v.54zM51.472 148.053c-.46 0-.836-.15-1.125-.452-.29-.304-.434-.71-.434-1.216v-.108c0-.336.064-.637.192-.901.13-.267.31-.473.54-.623a1.36 1.36 0 0 1 .755-.226c.442 0 .786.145 1.03.438.246.291.368.707.368 1.25v.242h-2.303c.008.335.105.606.292.814a.931.931 0 0 0 .716.308c.206 0 .38-.042.522-.125.143-.084.267-.195.375-.334l.355.276c-.285.439-.713.657-1.283.657zm-.072-3.048a.776.776 0 0 0-.591.257c-.16.17-.258.41-.295.717h1.703v-.043c-.017-.296-.096-.524-.239-.685-.142-.165-.335-.246-.578-.246z" fill="#2D6079"/><path fill-rule="evenodd" clip-rule="evenodd" d="M28.448 119.555c1.165-1.26 2.468-1.332 3.733-1.332.713 0 1.334.172 1.84.619.474.42.756 1.005.982 1.623l-.756.276.756-.276c.618 1.689.578 3.646.341 5.276-.362 2.492-1.241 4.631-2.415 6.735a45.637 45.637 0 0 1-1.814 2.963c.386.147.78.248 1.115.3.59.091 1.045-.09 1.5-.478.473-.403.884-.974 1.365-1.643l.075-.104a28.1 28.1 0 0 0 .365-.525c.2-.29.418-.607.618-.873.36-.483.787-.985 1.31-1.375a.908.908 0 0 1 .42-.176.878.878 0 0 1 .501.076c.252.117.384.319.438.409.12.199.186.441.226.599.044.18.077.363.099.498l.027.17.006.043c.057.255.11.505.163.751.165.782.32 1.518.574 2.175a46.822 46.822 0 0 0 .248-.241 32.11 32.11 0 0 1 1.224-1.141c.427-.373.907-.759 1.329-.985.195-.104.488-.237.81-.236.18 0 .4.043.606.187.207.145.328.344.39.532.061.178.12.409.174.62l.048.184c.074.281.148.531.235.731.042.096.079.161.105.2.24-.104.496-.226.763-.352.602-.287 1.26-.599 1.91-.816l.072-.023c.227-.078.566-.192.91-.256.367-.067.899-.11 1.39.137.303.153.571.355.777.509l.014.011c.23.172.392.293.56.381.869.451 1.995.435 3.204.354 1.545-.105 3.063-.408 4.637-.724.365-.073.733-.147 1.105-.219.206-.04.388-.083.588-.131.15-.035.31-.073.498-.114a6.03 6.03 0 0 1 1.288-.163.804.804 0 1 1 0 1.609c-.281 0-.59.049-.946.126-.119.026-.258.059-.406.093a18.43 18.43 0 0 1-.716.16 229.1 229.1 0 0 0-1.053.209c-1.58.318-3.227.648-4.888.759-1.158.077-2.729.156-4.053-.532a5.424 5.424 0 0 1-.758-.502c-.01-.006-.018-.014-.027-.02a3.768 3.768 0 0 0-.55-.369c-.012-.007-.11-.039-.372.009a5.295 5.295 0 0 0-.696.199c-.022.009-.044.015-.067.024-.564.188-1.062.426-1.606.685-.304.145-.623.296-.977.451-.502.218-1.024.196-1.463-.106-.371-.254-.586-.644-.718-.948a6.754 6.754 0 0 1-.337-1.044 9.866 9.866 0 0 0-.722.582c-.406.355-.818.75-1.161 1.083l-.141.138-.308.298c-.109.103-.24.227-.34.301a1.874 1.874 0 0 1-.333.204c-.133.061-.35.134-.61.092a1.018 1.018 0 0 1-.59-.323 1.631 1.631 0 0 1-.246-.367c-.51-.991-.76-2.186-.972-3.197l-.11-.517a9.85 9.85 0 0 0-.195.252c-.2.266-.365.508-.536.759-.133.194-.27.394-.43.615l-.106.149c-.446.621-.967 1.347-1.594 1.882-.718.612-1.628 1.023-2.79.844a7.153 7.153 0 0 1-1.795-.533c-.118.171-.238.353-.363.539-.53.796-1.129 1.697-1.878 2.396a.804.804 0 1 1-1.098-1.176c.599-.559 1.054-1.241 1.563-2.003.134-.203.272-.41.418-.622a3.203 3.203 0 0 1-.835-1.168c-1.005-2.493-1.238-4.914-1.238-7.533 0-.235-.002-.483-.005-.739-.01-.984-.021-2.084.108-3.13.166-1.335.571-2.708 1.586-3.805zm1.306 15.023a44.125 44.125 0 0 0 1.77-2.886c1.11-1.993 1.903-3.943 2.227-6.183.22-1.517.226-3.165-.26-4.491-.202-.555-.373-.827-.536-.97-.13-.116-.329-.215-.774-.215-1.197 0-1.877.086-2.551.815-.694.75-1.026 1.743-1.17 2.91-.116.928-.107 1.886-.097 2.857.003.27.006.542.006.814 0 2.523.225 4.71 1.12 6.932.058.142.146.282.265.417z" fill="#fff"/><path d="M28.203 44.69h-1.346v-7.775h1.346v7.776zm7.008 0H33.86l-3.466-5.516v5.517h-1.35v-7.776h1.35l3.477 5.538v-5.538h1.34v7.776zm6.71-2.53c-.08.829-.385 1.477-.92 1.943-.533.463-1.244.694-2.13.694-.62 0-1.166-.146-1.64-.437a2.92 2.92 0 0 1-1.089-1.255c-.256-.542-.39-1.17-.4-1.886v-.726c0-.733.13-1.379.39-1.938a2.94 2.94 0 0 1 1.116-1.292c.487-.303 1.05-.454 1.687-.454.858 0 1.549.233 2.072.699.523.466.828 1.125.913 1.976h-1.346c-.064-.56-.227-.961-.49-1.207-.26-.249-.643-.374-1.149-.374-.587 0-1.04.216-1.356.647-.314.427-.474 1.055-.48 1.885v.689c0 .84.149 1.48.448 1.922.302.442.744.662 1.324.662.53 0 .93-.12 1.196-.358.267-.238.436-.635.508-1.19h1.345zm6.596-1.154c0 .762-.131 1.431-.395 2.008-.263.573-.64 1.014-1.132 1.324-.488.306-1.05.46-1.688.46-.63 0-1.192-.154-1.687-.46-.491-.31-.872-.75-1.143-1.32-.267-.568-.402-1.225-.406-1.97v-.437c0-.759.134-1.428.401-2.008.27-.58.65-1.023 1.137-1.33.492-.31 1.054-.464 1.688-.464.633 0 1.194.153 1.682.459.491.302.87.74 1.137 1.313.268.57.403 1.234.407 1.992v.433zm-1.35-.406c0-.861-.165-1.522-.492-1.98-.324-.46-.785-.69-1.383-.69-.584 0-1.041.23-1.373.69-.327.455-.494 1.101-.502 1.938v.448c0 .854.166 1.515.497 1.981.335.467.798.7 1.389.7.598 0 1.057-.228 1.377-.684.324-.456.486-1.121.486-1.997V40.6zm3.627-3.685 2.243 5.96 2.238-5.96h1.746v7.776h-1.346v-2.563l.133-3.429-2.296 5.992h-.966l-2.291-5.986.133 3.423v2.563h-1.346v-7.776h1.752zm11.553 4.304h-3.193v2.393h3.732v1.079h-5.083v-7.776h5.046v1.09h-3.695v2.146h3.193v1.068zm8.02-3.214h-2.425v6.686h-1.34v-6.686h-2.403v-1.09h6.168v1.09zm3.916 4.875h-3.012l-.63 1.81h-1.404l2.937-7.775h1.212l2.942 7.776h-1.41l-.635-1.81zm-2.633-1.09h2.254l-1.127-3.224-1.127 3.225zm7.42-2.066 1.634-2.809h1.559l-2.35 3.856 2.404 3.92H80.74l-1.671-2.852-1.677 2.852h-1.57l2.408-3.92-2.354-3.856h1.559l1.634 2.81zm5.328 4.967v-7.776h2.296c.687 0 1.296.153 1.827.46.534.306.947.74 1.238 1.303.292.562.438 1.207.438 1.933V41c0 .737-.147 1.385-.443 1.944-.291.558-.71.99-1.255 1.292-.54.302-1.162.454-1.863.454h-2.238zm1.35-6.686v5.607h.882c.709 0 1.252-.22 1.629-.662.381-.445.575-1.083.582-1.912v-.433c0-.843-.183-1.488-.55-1.933-.367-.445-.899-.667-1.597-.667h-.945zm9.52 3.214h-3.194v2.393h3.733v1.079h-5.084v-7.776h5.046v1.09h-3.695v2.146h3.193v1.068zm2.17.583v2.889h-1.351v-7.776h2.974c.869 0 1.557.227 2.066.679.513.451.77 1.05.77 1.794 0 .762-.251 1.355-.753 1.778-.499.424-1.199.636-2.099.636h-1.608zm0-1.085h1.623c.48 0 .847-.112 1.1-.336.253-.227.379-.555.379-.983 0-.42-.128-.754-.384-1.004-.257-.252-.61-.382-1.058-.389h-1.66v2.712zm8.225 2.163h-3.011l-.631 1.81h-1.404l2.937-7.775h1.212l2.943 7.776h-1.411l-.635-1.81zm-2.632-1.09h2.253l-1.127-3.224-1.126 3.225zm7.601-.095h-1.506v2.996h-1.351v-7.776h2.734c.897 0 1.59.202 2.077.604.488.403.731.984.731 1.746 0 .52-.126.956-.378 1.309-.25.348-.599.617-1.047.806l1.746 3.241v.07h-1.447l-1.559-2.996zm-1.506-1.084h1.388c.456 0 .812-.114 1.068-.342.256-.231.385-.546.385-.945 0-.417-.119-.739-.358-.967-.235-.228-.588-.345-1.057-.352h-1.426v2.606zm10.004-2.606h-2.424v6.686h-1.34v-6.686h-2.404v-1.09h6.168v1.09zm1.956-1.09 2.244 5.96 2.238-5.96h1.745v7.776h-1.345v-2.563l.133-3.429-2.297 5.992h-.965l-2.292-5.986.134 3.423v2.563h-1.346v-7.776h1.751zm11.553 4.304h-3.193v2.393h3.733v1.079h-5.084v-7.776h5.046v1.09h-3.695v2.146h3.193v1.068zm6.988 3.472h-1.351l-3.466-5.517v5.517h-1.352v-7.776h1.352l3.477 5.538v-5.538h1.34v7.776zm6.233-6.686h-2.424v6.686h-1.341v-6.686h-2.402v-1.09h6.167v1.09zM186.707 22.555h-1.798v7.086c-.35 0-.7-.06-1.05-.183-.35-.123-.525-.263-.525-.42v-2.244c-.892-.079-1.645-.105-2.257-.079a4.343 4.343 0 0 1-.21.945c-.096.297-.21.485-.341.564-.088.061-.223.1-.407.118-.183.009-.323-.008-.42-.052-.245-.096-.569-.368-.97-.814-.395-.455-.591-.87-.591-1.247 0-.21.096-.371.288-.485.192-.123.542-.197 1.05-.223v-2.218c-.008-.823-.249-1.234-.722-1.234-.394 0-.59.236-.59.709 0 .35.095.634.288.853.202.218.464.42.787.604-.078.314-.183.529-.314.643a3.833 3.833 0 0 1-1.576-.788c-.463-.385-.695-.844-.695-1.378 0-.542.197-.953.591-1.233.394-.28.871-.42 1.431-.42.471 0 .852.083 1.141.249.298.166.52.346.67.538.349.42.524 1.02.524 1.798v1.811c.376-.026 1.151-.004 2.323.066v-2.966h-1.037c-.341-.42-.512-.88-.512-1.378h4.41c.342.42.512.879.512 1.378zm4.981 0h-1.798v7.086c-.35 0-.7-.06-1.05-.183-.35-.123-.524-.263-.524-.42v-6.483h-1.286c-.341-.42-.512-.88-.512-1.378h4.659c.341.42.511.879.511 1.378zm5.7 0h-1.825c.114.56.171 1.19.171 1.89s-.153 1.224-.46 1.574c-.297.35-.708.525-1.233.525.149.254.376.534.683.84.315.306.547.53.695.67.49.463.849.791 1.076.984-.07.131-.205.275-.406.433-.202.157-.368.258-.499.302a15.452 15.452 0 0 1-1.181-1.076c-.42-.43-.836-.958-1.247-1.588-.403-.639-.604-1.19-.604-1.654 0-.612.377-.919 1.128-.919.237 0 .447.03.63.092.053-.079.079-.2.079-.367 0-.613-.118-1.181-.354-1.706h-2.035c-.34-.42-.51-.88-.51-1.378h5.38c.341.42.512.879.512 1.378zm8.491 0h-1.798v7.086c-.35 0-.7-.06-1.05-.183-.35-.123-.526-.263-.526-.42v-3.701h-.891c-.719 0-1.221.074-1.51.223-.28.149-.42.402-.42.761 0 .683.407 1.614 1.22 2.796a2.183 2.183 0 0 1-.407.354c-.183.14-.323.219-.42.236-1.268-1.627-1.902-2.953-1.902-3.976 0-.727.275-1.238.826-1.536.56-.297 1.44-.446 2.638-.446h.866v-1.194h-4.816c-.342-.42-.512-.88-.512-1.378h8.19c.341.42.512.879.512 1.378zm18.997 0h-1.812v7.086c-.35 0-.7-.06-1.048-.183-.35-.123-.526-.263-.526-.42v-2.782a4.034 4.034 0 0 1-.932.091c-.752 0-1.404-.127-1.955-.38-.263.201-.604.328-1.024.38.184.315.52.757 1.01 1.326.499.56.937 1.015 1.313 1.365-.07.131-.205.275-.406.433-.202.157-.369.258-.499.302a15.752 15.752 0 0 1-2.441-3.124c-.306-.55-.46-1.015-.46-1.39 0-.613.376-.92 1.129-.92.236 0 .446.031.63.092.053-.078.078-.2.078-.367 0-.446-.153-.95-.459-1.51h-2.061c-.341-.42-.512-.878-.512-1.377h9.463c.341.42.512.879.512 1.378zm-3.386 0h-2.493c.183.69.275 1.233.275 1.627 0 .385-.031.683-.092.892.201.035.433.053.696.053a4.31 4.31 0 0 0 1.614-.289v-2.283zm9.074 0h-1.824c.113.56.171 1.19.171 1.89s-.153 1.224-.459 1.574c-.297.35-.709.525-1.234.525.148.254.377.534.682.84.315.306.547.53.696.67.49.463.848.791 1.077.984-.07.131-.207.275-.408.433-.202.157-.367.258-.499.302a15.452 15.452 0 0 1-1.181-1.076 10.461 10.461 0 0 1-1.247-1.588c-.401-.639-.603-1.19-.603-1.654 0-.612.376-.919 1.129-.919.236 0 .446.03.63.092.052-.079.079-.2.079-.367 0-.613-.118-1.181-.355-1.706h-2.034c-.341-.42-.512-.88-.512-1.378h5.381c.34.42.511.879.511 1.378zm6.522 0v1.522c.42-.315.853-.472 1.3-.472.673 0 1.215.223 1.627.669.42.437.63 1.02.63 1.745 0 1.05-.509 1.864-1.523 2.441-.367-.218-.691-.595-.971-1.128.358-.236.682-.525.971-.867.289-.35.434-.664.434-.944 0-.517-.229-.775-.683-.775-.577 0-1.173.398-1.785 1.195v3.7c-.35 0-.7-.06-1.05-.183-.35-.123-.525-.263-.525-.42v-1.26c-.463.254-.984.38-1.561.38-.753 0-1.383-.253-1.89-.76-.499-.508-.748-1.103-.748-1.785 0-.683.236-1.22.709-1.615a2.588 2.588 0 0 1 1.692-.59 3.82 3.82 0 0 1 1.798.433v-1.286h-4.646c-.341-.42-.512-.88-.512-1.378h10.761c.342.42.513.879.513 1.378h-4.541zm-1.575 2.362a2.646 2.646 0 0 0-1.247-.289c-.464 0-.84.123-1.128.368-.28.236-.42.555-.42.958 0 .402.109.695.328.879.218.175.49.263.814.263.594 0 1.146-.245 1.653-.736v-1.443zm11.13-2.362h-1.798v7.086c-.35 0-.7-.06-1.05-.183-.35-.123-.526-.263-.526-.42v-6.483h-1.286c-.341-.42-.512-.88-.512-1.378h4.66c.341.42.512.879.512 1.378zm5.698 0h-1.824c.113.56.17 1.19.17 1.89s-.152 1.224-.459 1.574c-.298.35-.709.525-1.233.525.148.254.375.534.682.84.315.306.547.53.695.67.49.463.849.791 1.076.984-.07.131-.205.275-.406.433-.202.157-.367.258-.499.302a15.452 15.452 0 0 1-1.181-1.076c-.42-.43-.835-.958-1.247-1.588-.403-.639-.604-1.19-.604-1.654 0-.612.377-.919 1.129-.919.237 0 .447.03.63.092.052-.079.078-.2.078-.367 0-.613-.118-1.181-.353-1.706h-2.035c-.341-.42-.511-.88-.511-1.378h5.38c.341.42.512.879.512 1.378zM42.078 22.555h-1.799v7.087c-.35 0-.7-.061-1.05-.184-.35-.122-.524-.262-.524-.42v-6.483h-2.127v7.087c-.35 0-.7-.061-1.05-.184-.35-.122-.524-.262-.524-.42v-2.585c-.28.07-.6.105-.958.105h-.223v.118c0 .577-.175 1.063-.525 1.457-.342.393-.849.59-1.523.59-.472 0-.931-.105-1.378-.315a4.092 4.092 0 0 1-1.168-.84 6.752 6.752 0 0 1-1.548-2.44c.192-.22.459-.368.8-.447.411.857.84 1.505 1.286 1.942.447.438.967.656 1.562.656.376 0 .656-.083.84-.249a.813.813 0 0 0 .276-.63.959.959 0 0 0-.224-.643c-.148-.184-.376-.276-.682-.276-.306 0-.573.057-.8.171-.14-.105-.294-.302-.46-.59-.166-.298-.267-.534-.302-.71.7-.165 1.216-.406 1.549-.72.341-.316.512-.609.512-.88 0-.254-.193-.38-.578-.38-.595 0-1.203.284-1.824.852-.149-.131-.31-.35-.485-.656-.175-.315-.28-.564-.316-.748.665-.516 1.34-.774 2.022-.774.682 0 1.238.18 1.666.538.429.35.643.857.643 1.522s-.297 1.181-.892 1.549c.508.166.897.428 1.168.787a5.44 5.44 0 0 0 1.562-.433v-2.454h-.932c-.341-.42-.512-.88-.512-1.378h8.006c.34.42.511.88.511 1.378zm9.174 0h-1.81v7.087c-.35 0-.7-.061-1.05-.184-.35-.122-.526-.262-.526-.42v-1.234a3.215 3.215 0 0 1-1.614.434c-.56 0-1.054-.101-1.483-.302a2.787 2.787 0 0 1-1.01-.788 4.182 4.182 0 0 1-.867-2.06c.63-.14 1.063-.324 1.3-.551.245-.228.367-.582.367-1.063 0-.306-.118-.613-.354-.919h-1.811c-.342-.42-.512-.88-.512-1.378h8.858c.342.42.512.88.512 1.378zm-3.386 0H45.61c.297.385.446.805.446 1.26 0 1.18-.603 1.925-1.811 2.23.394.517.989.775 1.785.775.805 0 1.417-.24 1.837-.722v-3.543zm9.916 0v1.522c.42-.315.853-.472 1.3-.472.673 0 1.215.223 1.627.67.42.437.63 1.019.63 1.745 0 1.05-.508 1.863-1.523 2.44-.367-.218-.691-.594-.971-1.128a4.54 4.54 0 0 0 .971-.866c.289-.35.433-.665.433-.945 0-.516-.227-.774-.682-.774-.578 0-1.173.398-1.785 1.194v3.7c-.35 0-.7-.06-1.05-.183-.35-.122-.525-.262-.525-.42v-1.26a3.2 3.2 0 0 1-1.562.38c-.752 0-1.382-.253-1.89-.76-.498-.508-.748-1.103-.748-1.785 0-.683.237-1.22.71-1.614a2.593 2.593 0 0 1 1.692-.591c.648 0 1.247.144 1.798.433v-1.286h-4.646c-.34-.42-.511-.88-.511-1.378h10.76c.342.42.513.88.513 1.378h-4.541zm-1.575 2.362a2.647 2.647 0 0 0-1.247-.289c-.463 0-.84.123-1.128.368-.28.236-.42.556-.42.958 0 .402.11.695.328.88.218.174.49.262.813.262.595 0 1.147-.245 1.654-.735v-1.444zm11.85-2.362h-1.823c.113.56.17 1.19.17 1.89s-.153 1.225-.46 1.575c-.297.35-.708.524-1.233.524.149.254.376.534.683.84.315.307.546.53.695.67.49.464.849.792 1.076.984-.07.131-.205.276-.407.433-.2.158-.367.258-.498.302a15.324 15.324 0 0 1-1.181-1.076c-.42-.429-.836-.958-1.247-1.588-.403-.639-.604-1.19-.604-1.654 0-.612.376-.918 1.129-.918.236 0 .446.03.63.091.052-.078.079-.2.079-.367a4.11 4.11 0 0 0-.355-1.706h-2.034c-.341-.42-.512-.88-.512-1.378h5.38c.342.42.513.88.513 1.378zm9-1.378h1.786c-.412-.429-.617-.906-.617-1.43 0-.718.284-1.291.853-1.72.569-.437 1.277-.656 2.126-.656.857 0 1.675.11 2.454.328.779.219 1.453.49 2.021.814 1.094.63 1.837 1.19 2.231 1.68-.096.175-.275.345-.538.512-.875-.648-1.758-1.125-2.65-1.431-.885-.306-1.904-.46-3.059-.46-1.347 0-2.02.416-2.02 1.247 0 .385.152.757.459 1.116h1.614c.341.42.512.88.512 1.378H80.43v7.087c-.35 0-.7-.061-1.05-.184-.35-.122-.525-.262-.525-.42v-6.483H77.57c-.341-.42-.512-.88-.512-1.378zm13.85 1.378h-1.799v7.087c-.35 0-.7-.061-1.05-.184-.35-.122-.525-.262-.525-.42V27.87a2.995 2.995 0 0 1-1.64.486c-.84 0-1.51-.272-2.008-.814-.499-.543-.748-1.194-.748-1.956 0-.76.267-1.351.8-1.771.543-.429 1.13-.643 1.759-.643.63 0 1.243.183 1.837.551v-1.168h-4.987c-.34-.42-.511-.88-.511-1.378h8.36c.34.42.511.88.511 1.378zm-3.374 2.205c-.385-.184-.83-.276-1.338-.276-.508 0-.919.131-1.234.394-.315.262-.472.612-.472 1.05 0 .437.105.756.315.958.218.192.48.288.787.288.306 0 .634-.087.984-.262.36-.184.678-.411.958-.682v-1.47zm14.718-2.205h-1.798v7.087c-.35 0-.7-.061-1.05-.184-.35-.122-.525-.262-.525-.42v-2.244c-.892-.079-1.645-.105-2.257-.079a4.35 4.35 0 0 1-.21.945c-.096.298-.21.486-.341.564-.088.062-.223.101-.407.119-.184.008-.324-.01-.42-.053-.245-.096-.569-.367-.971-.814-.394-.455-.59-.87-.59-1.246 0-.21.096-.372.288-.486.192-.122.543-.197 1.05-.223v-2.218c-.009-.822-.25-1.234-.722-1.234-.394 0-.59.237-.59.709 0 .35.096.634.288.853.202.219.464.42.788.604-.08.315-.184.53-.315.643a3.825 3.825 0 0 1-1.575-.788c-.464-.384-.696-.844-.696-1.378 0-.542.197-.953.59-1.233.395-.28.871-.42 1.431-.42.473 0 .853.083 1.142.25.298.165.52.345.67.537.35.42.524 1.02.524 1.798v1.811c.377-.026 1.151-.004 2.323.066v-2.966h-1.037c-.34-.42-.511-.88-.511-1.378h4.409c.341.42.512.88.512 1.378zm4.982 0h-1.798v7.087c-.35 0-.7-.061-1.05-.184-.35-.122-.525-.262-.525-.42v-6.483h-1.286c-.341-.42-.512-.88-.512-1.378h4.659c.341.42.512.88.512 1.378zm9.137 0h-1.798v7.087c-.35 0-.7-.061-1.05-.184-.35-.122-.525-.262-.525-.42v-6.483h-2.139v3.097c0 .788-.153 1.304-.459 1.549a.904.904 0 0 1-.565.17c-.358 0-.761-.253-1.207-.76-.446-.508-.669-.928-.669-1.26 0-.228.035-.381.105-.46.192-.236.599-.354 1.22-.354v-1.982h-1.732c-.341-.42-.512-.88-.512-1.378h8.819c.341.42.512.88.512 1.378zM182.569 43.681c-.28.367-.671.645-1.17.833-.498.189-1.064.283-1.698.283-.651 0-1.228-.147-1.729-.443a2.972 2.972 0 0 1-1.164-1.266c-.272-.551-.412-1.194-.423-1.927v-.609c0-1.175.281-2.091.844-2.75.562-.662 1.347-.993 2.355-.993.865 0 1.553.213 2.061.64.51.428.816 1.043.919 1.848h-1.324c-.15-.936-.693-1.405-1.629-1.405-.605 0-1.067.22-1.384.658-.313.434-.475 1.073-.485 1.916v.599c0 .84.176 1.493.528 1.96.356.462.85.694 1.48.694.69 0 1.182-.157 1.474-.47v-1.522h-1.603v-1.025h2.948v2.979zm7.69-2.675c0 .762-.132 1.431-.396 2.008a3 3 0 0 1-1.131 1.324c-.488.306-1.051.46-1.688.46-.63 0-1.193-.154-1.688-.46-.491-.31-.872-.75-1.142-1.32-.268-.568-.403-1.225-.406-1.97v-.437c0-.759.134-1.428.4-2.008.271-.58.65-1.023 1.137-1.33.493-.31 1.055-.464 1.689-.464.634 0 1.194.153 1.681.459.493.302.871.74 1.137 1.313.268.57.403 1.234.407 1.992v.433zm-1.351-.406c0-.862-.165-1.522-.491-1.98-.325-.46-.785-.69-1.383-.69-.585 0-1.042.23-1.373.69-.328.455-.495 1.101-.502 1.938v.448c0 .854.165 1.515.497 1.981.334.467.797.7 1.388.7.598 0 1.057-.228 1.378-.684.324-.456.486-1.121.486-1.997V40.6zm5.319 2.398 1.976-6.083h1.484l-2.798 7.776h-1.308l-2.788-7.776h1.479l1.955 6.083zm9.958-4.993h-2.424v6.685h-1.34v-6.685h-2.403v-1.09h6.167v1.09zm.332 5.318c.242 0 .428.07.561.209a.708.708 0 0 1 .198.512.7.7 0 0 1-.198.508c-.133.131-.319.197-.561.197-.231 0-.415-.066-.551-.197a.678.678 0 0 1-.202-.508.7.7 0 0 1 .198-.512c.131-.14.316-.209.555-.209zm11.299-2.317c0 .762-.131 1.431-.395 2.008-.263.573-.641 1.014-1.131 1.324-.489.306-1.052.46-1.689.46-.63 0-1.192-.154-1.687-.46-.492-.31-.872-.75-1.142-1.32-.268-.568-.403-1.225-.407-1.97v-.437c0-.759.134-1.428.4-2.008.272-.58.651-1.023 1.139-1.33.491-.31 1.054-.464 1.687-.464.634 0 1.194.153 1.683.459.49.302.869.74 1.137 1.313.266.57.401 1.234.405 1.992v.433zm-1.351-.406c0-.862-.163-1.522-.491-1.98-.324-.46-.785-.69-1.383-.69-.584 0-1.041.23-1.373.69-.326.455-.495 1.101-.501 1.938v.448c0 .854.165 1.515.496 1.981.334.467.797.7 1.388.7.599 0 1.059-.228 1.379-.684.323-.456.485-1.121.485-1.997V40.6zm7.177.796h-3.129v3.294h-1.351v-7.775h4.939v1.09h-3.588v2.312h3.129v1.079zm5.682 3.294h-1.346v-7.775h1.346v7.776zm7.828 0h-1.35l-3.466-5.516v5.517h-1.351v-7.776h1.351l3.476 5.538v-5.538h1.34v7.776zm1.598 0v-7.775h2.295c.688 0 1.296.153 1.826.46.534.306.948.74 1.239 1.303.293.562.439 1.206.439 1.933V41c0 .737-.149 1.385-.444 1.944-.292.558-.709.99-1.255 1.292-.54.302-1.161.453-1.863.453h-2.237zm1.351-6.685v5.607h.88c.709 0 1.252-.22 1.63-.662.379-.445.575-1.083.581-1.912v-.433c0-.844-.183-1.488-.55-1.933-.366-.445-.899-.667-1.597-.667h-.944zm7.22 6.685h-1.346v-7.775h1.346v7.776zm6.108-1.81h-3.011l-.63 1.81h-1.405l2.936-7.775h1.213l2.943 7.776h-1.41l-.636-1.81zm-2.633-1.09h2.255l-1.128-3.224-1.127 3.225z" fill="#333"/><path d="M27.477 92.007v2.73h-.92v-6.975h2.573c.763 0 1.36.195 1.792.584.434.39.651.905.651 1.548 0 .676-.212 1.2-.637 1.567-.421.363-1.027.546-1.816.546h-1.643zm0-.753h1.653c.492 0 .869-.115 1.13-.345.263-.233.393-.568.393-1.006 0-.416-.13-.747-.392-.997-.262-.249-.622-.378-1.078-.388h-1.706v2.736zM34.69 94.837c-.702 0-1.274-.23-1.715-.69-.44-.464-.662-1.082-.662-1.854v-.164c0-.514.098-.972.293-1.374.198-.406.473-.723.824-.949.355-.23.738-.345 1.15-.345.674 0 1.198.222 1.572.667.373.443.56 1.08.56 1.906v.37H33.2c.013.51.161.924.446 1.24.287.313.651.47 1.092.47.313 0 .578-.065.795-.193.218-.127.408-.296.57-.508l.542.422c-.434.668-1.086 1.002-1.955 1.002zm-.11-4.648c-.358 0-.658.13-.9.393-.243.26-.394.623-.451 1.092h2.597v-.066c-.026-.451-.147-.8-.364-1.046-.217-.248-.512-.373-.882-.373zM40.252 90.353a2.688 2.688 0 0 0-.436-.035c-.581 0-.976.248-1.183.744v3.678h-.887v-5.183h.863l.014.599c.291-.463.703-.695 1.236-.695.173 0 .304.022.393.067v.825zM41.904 89.557l.024.576c.38-.449.893-.672 1.538-.672.726 0 1.22.278 1.481.834.172-.25.396-.45.67-.603.279-.154.606-.231.983-.231 1.137 0 1.715.602 1.734 1.806v3.473h-.886v-3.42c0-.37-.085-.647-.254-.829-.17-.185-.454-.278-.853-.278-.328 0-.602.099-.819.297-.217.195-.344.459-.378.79v3.44h-.892v-3.395c0-.755-.369-1.132-1.107-1.132-.581 0-.979.248-1.193.743v3.784h-.886v-5.183h.838zM52.874 94.74c-.05-.102-.092-.283-.124-.545-.413.428-.904.642-1.476.642-.511 0-.932-.145-1.26-.432a1.41 1.41 0 0 1-.49-1.101c0-.54.205-.958.614-1.255.412-.301.99-.451 1.735-.451h.862v-.407c0-.31-.093-.556-.278-.739-.185-.184-.458-.278-.819-.278-.317 0-.582.08-.796.241-.214.159-.32.353-.32.58h-.892c0-.26.091-.509.273-.748.186-.243.435-.435.748-.575a2.52 2.52 0 0 1 1.04-.211c.597 0 1.065.15 1.404.45.338.297.514.708.526 1.231v2.386c0 .477.061.855.182 1.136v.076h-.93zm-1.47-.675c.277 0 .54-.071.79-.215a1.3 1.3 0 0 0 .541-.561v-1.064h-.695c-1.086 0-1.628.318-1.628.955 0 .277.092.494.277.65.185.158.423.235.715.235zM55.851 89.557l.029.65a1.892 1.892 0 0 1 1.552-.746c1.095 0 1.648.618 1.658 1.854v3.425h-.886v-3.43c-.003-.373-.09-.65-.26-.829-.165-.179-.425-.268-.78-.268-.288 0-.54.077-.757.23a1.564 1.564 0 0 0-.508.603v3.694h-.886v-5.183h.838zM62.576 94.837c-.703 0-1.275-.23-1.715-.69-.44-.464-.661-1.082-.661-1.854v-.164c0-.514.097-.972.292-1.374.198-.406.473-.723.825-.949.354-.23.737-.345 1.15-.345.673 0 1.197.222 1.57.667.375.443.561 1.08.561 1.906v.37h-3.512c.013.51.161.924.446 1.24.287.313.651.47 1.092.47.313 0 .578-.065.796-.193.216-.127.407-.296.57-.508l.541.422c-.434.668-1.086 1.002-1.955 1.002zm-.11-4.648c-.358 0-.658.13-.9.393-.244.26-.394.623-.451 1.092h2.596v-.066c-.025-.451-.146-.8-.364-1.046-.217-.248-.51-.373-.88-.373zM66.473 89.557l.028.65a1.891 1.891 0 0 1 1.553-.746c1.096 0 1.648.618 1.658 1.854v3.425h-.887v-3.43c-.003-.373-.09-.65-.259-.829-.166-.179-.427-.268-.78-.268-.288 0-.54.077-.758.23a1.552 1.552 0 0 0-.507.603v3.694h-.886v-5.183h.838zM72.248 88.297v1.256h.968v.686h-.968v3.213c0 .21.043.365.13.47.085.103.232.153.44.153.102 0 .243-.019.422-.056v.718c-.233.064-.46.096-.68.096-.397 0-.695-.12-.897-.36-.2-.24-.301-.58-.301-1.02v-3.215h-.944v-.685h.944v-1.256h.886zM80.676 92.917h-2.923l-.656 1.82h-.948l2.663-6.975h.805l2.67 6.975h-.945l-.666-1.82zm-2.645-.756h2.372l-1.188-3.264-1.184 3.264zM85.168 94.114c.316 0 .592-.096.83-.288.235-.192.366-.432.392-.719h.838a1.61 1.61 0 0 1-.306.849 2.01 2.01 0 0 1-.758.64c-.313.162-.645.241-.996.241-.706 0-1.268-.235-1.687-.705-.416-.472-.622-1.118-.622-1.936v-.147c0-.505.092-.955.277-1.348.185-.391.451-.697.796-.915.348-.217.758-.325 1.23-.325.582 0 1.064.173 1.448.522.387.349.593.8.618 1.357h-.838a1.211 1.211 0 0 0-.384-.825 1.172 1.172 0 0 0-.843-.326c-.45 0-.8.164-1.049.489-.247.322-.37.79-.37 1.404v.168c0 .598.123 1.057.37 1.379.246.323.597.485 1.054.485zM90.303 94.114c.317 0 .593-.096.83-.288.236-.192.367-.432.392-.719h.839a1.61 1.61 0 0 1-.307.849 2.009 2.009 0 0 1-.757.64c-.313.162-.646.241-.997.241-.706 0-1.268-.235-1.686-.705-.415-.472-.623-1.118-.623-1.936v-.147c0-.505.093-.955.278-1.348.186-.391.45-.697.795-.915.349-.217.76-.325 1.231-.325.582 0 1.064.173 1.448.522.386.349.592.8.618 1.357h-.839a1.21 1.21 0 0 0-.383-.825 1.172 1.172 0 0 0-.844-.326c-.45 0-.8.164-1.048.489-.246.322-.37.79-.37 1.404v.168c0 .598.124 1.057.37 1.379.246.323.597.485 1.053.485zM93.13 92.101c0-.508.099-.965.296-1.37.202-.407.48-.72.834-.94a2.29 2.29 0 0 1 1.222-.33c.706 0 1.276.244 1.71.733.438.489.657 1.138.657 1.95v.063c0 .503-.098.958-.292 1.36-.192.4-.469.71-.83.934-.357.225-.77.336-1.236.336-.703 0-1.272-.244-1.71-.733-.435-.489-.652-1.136-.652-1.94V92.1zm.89.106c0 .575.133 1.036.398 1.384.269.349.626.523 1.073.523.45 0 .808-.177 1.074-.528.265-.355.397-.85.397-1.485 0-.57-.136-1.029-.407-1.38a1.278 1.278 0 0 0-1.073-.532c-.438 0-.79.175-1.059.522-.268.349-.403.846-.403 1.496zM102.158 94.225c-.344.407-.85.61-1.518.61-.552 0-.974-.16-1.265-.48-.288-.322-.433-.798-.436-1.427v-3.373h.887v3.349c0 .786.318 1.179.958 1.179.678 0 1.127-.253 1.351-.758v-3.77h.886v5.183h-.843l-.02-.513zM105.215 89.557l.029.65a1.89 1.89 0 0 1 1.552-.746c1.096 0 1.648.618 1.658 1.854v3.425h-.887v-3.43c-.003-.373-.089-.65-.259-.829-.165-.179-.426-.268-.78-.268-.288 0-.54.077-.757.23a1.55 1.55 0 0 0-.508.603v3.694h-.887v-5.183h.839zM110.989 88.297v1.256h.968v.686h-.968v3.213c0 .21.043.365.129.47.087.103.234.153.441.153.103 0 .243-.019.422-.056v.718c-.233.064-.46.096-.68.096-.396 0-.696-.12-.896-.36-.201-.24-.303-.58-.303-1.02v-3.215h-.943v-.685h.943v-1.256h.887zM120.935 94.737h-.925l-3.512-5.375v5.375h-.925v-6.975h.925l3.521 5.4v-5.4h.916v6.975zM125.632 94.225c-.345.407-.851.61-1.519.61-.553 0-.974-.16-1.265-.48-.288-.322-.434-.798-.437-1.427v-3.373h.887v3.349c0 .786.32 1.179.958 1.179.677 0 1.129-.253 1.352-.758v-3.77h.886v5.183h-.843l-.019-.513zM128.673 89.557l.025.576c.38-.449.892-.672 1.538-.672.724 0 1.219.278 1.481.834.17-.25.395-.45.67-.603.278-.154.604-.231.981-.231 1.139 0 1.717.602 1.736 1.806v3.473h-.887v-3.42c0-.37-.084-.647-.254-.829-.17-.185-.453-.278-.852-.278-.33 0-.602.099-.821.297-.216.195-.342.459-.378.79v3.44h-.89v-3.395c0-.755-.37-1.132-1.107-1.132-.582 0-.98.248-1.194.743v3.784h-.886v-5.183h.838zM140.837 92.204c0 .792-.183 1.428-.546 1.91-.365.481-.852.72-1.466.72-.655 0-1.161-.23-1.52-.695l-.041.599h-.816v-7.36h.887v2.746c.357-.445.851-.666 1.481-.666.628 0 1.122.238 1.48.715.36.475.541 1.127.541 1.954v.077zm-.888-.1c0-.605-.115-1.07-.348-1.4-.234-.329-.569-.493-1.006-.493-.585 0-1.005.271-1.26.814v2.242c.271.543.694.815 1.27.815.425 0 .755-.164.991-.494.237-.33.353-.823.353-1.485zM144.11 94.837c-.701 0-1.273-.23-1.714-.69-.441-.464-.662-1.082-.662-1.854v-.164c0-.514.097-.972.292-1.374.199-.406.473-.723.824-.949a2.08 2.08 0 0 1 1.15-.345c.675 0 1.199.222 1.572.667.374.443.561 1.08.561 1.906v.37h-3.512c.012.51.161.924.446 1.24.287.313.65.47 1.091.47.315 0 .58-.065.796-.193a1.98 1.98 0 0 0 .57-.508l.543.422c-.436.668-1.087 1.002-1.957 1.002zM144 90.19c-.357 0-.657.13-.9.393-.242.26-.392.623-.451 1.092h2.597v-.066c-.025-.451-.147-.8-.363-1.046-.219-.248-.511-.373-.883-.373z" fill="#2D6079"/><path d="m29.643 103.745 1.635-3.007h2.066l-2.54 4.324 2.606 4.395h-2.09l-1.677-3.052-1.677 3.052h-2.09l2.605-4.395-2.54-4.324h2.067l1.635 3.007zM39.891 103.745l1.635-3.007h2.067l-2.54 4.324 2.605 4.395h-2.09l-1.677-3.052-1.677 3.052h-2.09l2.605-4.395-2.539-4.324h2.066l1.635 3.007zM50.146 103.745l1.635-3.007h2.067l-2.54 4.324 2.605 4.395h-2.09l-1.677-3.052-1.677 3.052h-2.09l2.605-4.395-2.54-4.324h2.067l1.635 3.007zM60.398 103.745l1.634-3.007H64.1l-2.54 4.324 2.606 4.395h-2.09l-1.678-3.052-1.677 3.052h-2.09l2.605-4.395-2.54-4.324h2.067l1.636 3.007zM70.648 103.745l1.635-3.007h2.066l-2.54 4.324 2.606 4.395h-2.09l-1.677-3.052-1.677 3.052h-2.09l2.605-4.395-2.54-4.324h2.066l1.636 3.007zM80.898 103.745l1.636-3.007H84.6l-2.54 4.324 2.605 4.395h-2.09l-1.677-3.052-1.676 3.052h-2.09l2.604-4.395-2.539-4.324h2.067l1.634 3.007zM91.15 103.745l1.634-3.007h2.067l-2.54 4.324 2.605 4.395h-2.09l-1.677-3.052-1.677 3.052h-2.09l2.605-4.395-2.539-4.324h2.067l1.634 3.007zM101.4 103.745l1.634-3.007h2.067l-2.54 4.324 2.606 4.395h-2.091l-1.676-3.052-1.678 3.052h-2.09l2.605-4.395-2.539-4.324h2.067l1.635 3.007zM111.657 103.745l1.635-3.007h2.066l-2.54 4.324 2.607 4.395h-2.091l-1.677-3.052-1.677 3.052h-2.091l2.606-4.395-2.54-4.324h2.067l1.635 3.007zM121.902 103.745l1.636-3.007h2.066l-2.54 4.324 2.606 4.395h-2.09l-1.678-3.052-1.677 3.052h-2.09l2.606-4.395-2.541-4.324h2.067l1.635 3.007z" fill="#040404"/><path fill-rule="evenodd" clip-rule="evenodd" d="M18.74 80.738c-.279.387-.49.986-.49 1.704v32.124c0 .719.211 1.317.49 1.705.28.389.556.487.734.487h137.607c.178 0 .454-.098.734-.487.279-.388.49-.986.49-1.705V82.442c0-.718-.211-1.317-.49-1.704-.28-.39-.556-.488-.734-.488H19.474c-.178 0-.454.098-.734.488zm-2.03-1.46c.615-.856 1.576-1.528 2.764-1.528h137.607c1.188 0 2.149.672 2.764 1.528.617.859.96 1.981.96 3.164v32.124c0 1.183-.343 2.306-.96 3.164-.615.856-1.576 1.528-2.764 1.528H19.474c-1.188 0-2.149-.672-2.764-1.528-.617-.858-.96-1.981-.96-3.164V82.442c0-1.183.343-2.305.96-3.163z" fill="#FFC266"/></g><defs><linearGradient id="b" x1="280" y1="17.701" x2="2.011" y2="160.92" gradientUnits="userSpaceOnUse"><stop stop-color="#43ACDC"/><stop offset=".781" stop-color="#D8B6D7"/></linearGradient><linearGradient id="c" x1="258.191" y1="87.605" x2="229.515" y2="58.93" gradientUnits="userSpaceOnUse"><stop stop-color="#989898"/><stop offset="1" stop-color="#E6E6E6"/></linearGradient><clipPath id="a"><path fill="#fff" d="M0 0h280v164.561H0z"/></clipPath></defs></svg>