<svg width="200" height="153" viewBox="0 0 200 153" fill="none" xmlns="http://www.w3.org/2000/svg">
<mask id="mask0_37994_5944" style="mask-type:alpha" maskUnits="userSpaceOnUse" x="-20" y="0" width="246" height="153">
<line y1="-0.141242" x2="152.825" y2="-0.141242" transform="matrix(-0.0036696 0.999993 -0.999998 -0.00222454 0.76123 0.00390625)" stroke="#BBCE50" stroke-width="0.282485"/>
<line y1="-0.141242" x2="152.825" y2="-0.141242" transform="matrix(-0.0036696 0.999993 -0.999998 -0.00222454 19.7344 0.00390625)" stroke="#BBCE50" stroke-width="0.282485"/>
<line y1="-0.141242" x2="152.825" y2="-0.141242" transform="matrix(-0.0036696 0.999993 -0.999998 -0.00222454 38.8208 0.00390625)" stroke="#BBCE50" stroke-width="0.282485"/>
<line y1="-0.141242" x2="152.825" y2="-0.141242" transform="matrix(-0.0036696 0.999993 -0.999998 -0.00222454 57.9038 0.00390625)" stroke="#BBCE50" stroke-width="0.282485"/>
<line y1="-0.141242" x2="152.825" y2="-0.141242" transform="matrix(-0.0036696 0.999993 -0.999998 -0.00222454 76.9873 0.00390625)" stroke="#BBCE50" stroke-width="0.282485"/>
<line y1="-0.141242" x2="152.825" y2="-0.141242" transform="matrix(-0.0036696 0.999993 -0.999998 -0.00222454 96.0674 0.00390625)" stroke="#BBCE50" stroke-width="0.282485"/>
<line y1="-0.141242" x2="152.825" y2="-0.141242" transform="matrix(-0.0036696 0.999993 -0.999998 -0.00222454 115.151 0.00390625)" stroke="#BBCE50" stroke-width="0.282485"/>
<line y1="-0.141242" x2="152.825" y2="-0.141242" transform="matrix(-0.0036696 0.999993 -0.999998 -0.00222454 134.235 0.00390625)" stroke="#BBCE50" stroke-width="0.282485"/>
<line y1="-0.141242" x2="152.825" y2="-0.141242" transform="matrix(-0.0036696 0.999993 -0.999998 -0.00222454 153.32 0.00390625)" stroke="#BBCE50" stroke-width="0.282485"/>
<line y1="-0.141242" x2="152.825" y2="-0.141242" transform="matrix(-0.0036696 0.999993 -0.999998 -0.00222454 172.403 0.00390625)" stroke="#BBCE50" stroke-width="0.282485"/>
<line y1="-0.141242" x2="152.825" y2="-0.141242" transform="matrix(-0.0036696 0.999993 -0.999998 -0.00222454 191.487 0.00390625)" stroke="#BBCE50" stroke-width="0.282485"/>
<line y1="-0.141242" x2="245.157" y2="-0.141242" transform="matrix(-0.999998 -0.00178111 0.00458334 -0.99999 225.821 7.43359)" stroke="#BBCE50" stroke-width="0.282485"/>
<line y1="-0.141242" x2="245.157" y2="-0.141242" transform="matrix(-0.999998 -0.00178111 0.00458334 -0.99999 225.821 22.293)" stroke="#BBCE50" stroke-width="0.282485"/>
<line y1="-0.141242" x2="245.157" y2="-0.141242" transform="matrix(-0.999998 -0.00178111 0.00458334 -0.99999 225.821 37.1484)" stroke="#BBCE50" stroke-width="0.282485"/>
<line y1="-0.141242" x2="245.157" y2="-0.141242" transform="matrix(-0.999998 -0.00178111 0.00458334 -0.99999 225.821 52.0078)" stroke="#BBCE50" stroke-width="0.282485"/>
<line y1="-0.141242" x2="245.157" y2="-0.141242" transform="matrix(-0.999998 -0.00178111 0.00458334 -0.99999 225.821 66.8594)" stroke="#BBCE50" stroke-width="0.282485"/>
<line y1="-0.141242" x2="245.157" y2="-0.141242" transform="matrix(-0.999998 -0.00178111 0.00458334 -0.99999 225.821 81.7188)" stroke="#BBCE50" stroke-width="0.282485"/>
<line y1="-0.141242" x2="245.157" y2="-0.141242" transform="matrix(-0.999998 -0.00178111 0.00458334 -0.99999 225.821 96.582)" stroke="#BBCE50" stroke-width="0.282485"/>
<line y1="-0.141242" x2="245.157" y2="-0.141242" transform="matrix(-0.999998 -0.00178111 0.00458334 -0.99999 225.821 111.441)" stroke="#BBCE50" stroke-width="0.282485"/>
<line y1="-0.141242" x2="245.157" y2="-0.141242" transform="matrix(-0.999998 -0.00178111 0.00458334 -0.99999 225.821 126.297)" stroke="#BBCE50" stroke-width="0.282485"/>
<line y1="-0.141242" x2="245.157" y2="-0.141242" transform="matrix(-0.999998 -0.00178111 0.00458334 -0.99999 225.821 141.152)" stroke="#BBCE50" stroke-width="0.282485"/>
</mask>
<g mask="url(#mask0_37994_5944)">
<ellipse cx="99.2308" cy="83.6417" rx="104.221" ry="76.3722" fill="#4B94DA" fill-opacity="0.1"/>
</g>
<path d="M170.911 80.287C160.938 76.4111 159.12 16.563 125.933 40.5417C116.788 47.1505 104.294 43.6824 90.9943 40.2146C79.3606 37.1818 67.1105 34.1483 55.9445 37.8591C33.9671 45.162 31.8485 69.2248 33.9749 77.066C38.2704 92.9042 24.9032 95.2614 12.5028 102.066C-6.94873 112.741 7.35468 150.255 25.7308 150.434C44.1067 150.613 155.431 150.076 155.431 150.076C155.431 150.076 182.126 150.152 193.227 133.743C205.173 116.085 197.703 90.6987 170.911 80.287Z" fill="#4B94DA" fill-opacity="0.1"/>
<path d="M143.427 135.73H58.0684V144.648H143.427V135.73Z" fill="#C9ECFF"/>
<path d="M76.0666 133.371H62.6973V135.721H76.0666V133.371Z" fill="#98D2F2"/>
<path fill-rule="evenodd" clip-rule="evenodd" d="M82.9716 91.3633H96.3409V93.7134H82.9716V91.3633ZM103.247 91.3633H116.616V93.7134H103.247V91.3633ZM123.521 91.3633H136.891V93.7134H123.521V91.3633ZM62.6973 91.3633H76.0666V93.7134H62.6973V91.3633Z" fill="#98D2F2"/>
<path d="M74.5957 93.7109H64.0181V133.379H74.5957V93.7109Z" fill="#C9ECFF"/>
<path d="M143.494 85.7812H56.2261V91.3636H143.494V85.7812Z" fill="#C9ECFF"/>
<path d="M141.585 84.0586H57.9897V85.7851H141.585V84.0586Z" fill="#98D2F2"/>
<path fill-rule="evenodd" clip-rule="evenodd" d="M56.0801 80.6542L100.017 55.9727L143.497 80.6542V84.0523H56.0801V80.6542Z" fill="#C9ECFF"/>
<path fill-rule="evenodd" clip-rule="evenodd" d="M58.2939 81.4439V82.2732H141.277V81.4396L100.007 58.0117L58.2939 81.4439Z" fill="#C9ECFF"/>
<path d="M96.342 133.371H82.9727V135.721H96.342V133.371Z" fill="#98D2F2"/>
<path d="M116.618 133.371H103.249V135.721H116.618V133.371Z" fill="#98D2F2"/>
<path d="M136.892 133.371H123.523V135.721H136.892V133.371Z" fill="#98D2F2"/>
<path d="M94.8683 93.7109H84.2896V133.379H94.8683V93.7109Z" fill="#C9ECFF"/>
<path d="M115.147 93.7109H104.568V133.379H115.147V93.7109Z" fill="#C9ECFF"/>
<path d="M135.42 93.7109H124.841V133.379H135.42V93.7109Z" fill="#C9ECFF"/>
<path fill-rule="evenodd" clip-rule="evenodd" d="M127.928 95.7109C128.142 95.7112 128.348 95.7964 128.499 95.9478C128.651 96.0992 128.737 96.3045 128.737 96.5187V130.438C128.726 130.645 128.637 130.84 128.486 130.983C128.336 131.126 128.137 131.205 127.929 131.205C127.722 131.205 127.523 131.126 127.372 130.983C127.222 130.84 127.132 130.645 127.122 130.438V96.5209C127.122 96.3068 127.207 96.1017 127.359 95.9503C127.51 95.7989 127.715 95.7137 127.929 95.7131M71.644 95.7109C71.8583 95.7112 72.0637 95.7964 72.2153 95.9478C72.3669 96.0992 72.4523 96.3045 72.4529 96.5187V130.438C72.4422 130.645 72.3524 130.84 72.2021 130.983C72.0518 131.126 71.8524 131.205 71.6451 131.205C71.4378 131.205 71.2384 131.126 71.0881 130.983C70.9378 130.84 70.848 130.645 70.8373 130.438V96.5209C70.8373 96.3066 70.9222 96.1011 71.0734 95.9493C71.2246 95.7975 71.4298 95.7118 71.644 95.7109ZM67.1086 95.7109C67.3226 95.7115 67.5278 95.7968 67.6791 95.9482C67.8305 96.0995 67.9158 96.3047 67.9163 96.5187V130.438C67.9057 130.645 67.8159 130.84 67.6656 130.983C67.5152 131.126 67.3159 131.205 67.1086 131.205C66.9013 131.205 66.7019 131.126 66.5516 130.983C66.4012 130.84 66.3115 130.645 66.3008 130.438V96.5209C66.3008 96.307 66.3854 96.1018 66.5361 95.9501C66.6868 95.7983 66.8915 95.7124 67.1053 95.7109H67.1086ZM132.468 95.7109C132.682 95.7112 132.888 95.7964 133.039 95.9478C133.191 96.0992 133.276 96.3045 133.277 96.5187V130.438C133.266 130.645 133.176 130.84 133.026 130.983C132.876 131.126 132.676 131.205 132.469 131.205C132.262 131.205 132.062 131.126 131.912 130.983C131.762 130.84 131.672 130.645 131.661 130.438V96.5209C131.661 96.3072 131.746 96.1021 131.896 95.9504C132.047 95.7987 132.251 95.7126 132.465 95.7109H132.468Z" fill="#98D2F2"/>
<path d="M92.8857 95.9478C92.7341 95.7964 92.5287 95.7112 92.3144 95.7109C92.1002 95.7118 91.895 95.7975 91.7438 95.9493C91.5926 96.1011 91.5077 96.3066 91.5077 96.5209V130.438C91.5184 130.645 91.6082 130.84 91.7585 130.983C91.9088 131.126 92.1082 131.205 92.3155 131.205C92.5228 131.205 92.7222 131.126 92.8725 130.983C93.0228 130.84 93.1126 130.645 93.1233 130.438V96.5187C93.1227 96.3045 93.0373 96.0992 92.8857 95.9478Z" fill="#98D2F2"/>
<path d="M88.3495 95.9482C88.1982 95.7968 87.993 95.7115 87.779 95.7109H87.7757C87.5619 95.7124 87.3572 95.7983 87.2065 95.9501C87.0558 96.1018 86.9712 96.307 86.9712 96.5209V130.438C86.9819 130.645 87.0716 130.84 87.222 130.983C87.3723 131.126 87.5717 131.205 87.779 131.205C87.9863 131.205 88.1856 131.126 88.336 130.983C88.4863 130.84 88.5761 130.645 88.5868 130.438V96.5187C88.5862 96.3047 88.5009 96.0995 88.3495 95.9482Z" fill="#98D2F2"/>
<path d="M112.523 95.9478C112.371 95.7964 112.166 95.7112 111.951 95.7109C111.737 95.7118 111.532 95.7975 111.381 95.9493C111.229 96.1011 111.145 96.3066 111.145 96.5209V130.438C111.155 130.645 111.245 130.84 111.395 130.983C111.546 131.126 111.745 131.205 111.952 131.205C112.16 131.205 112.359 131.126 112.509 130.983C112.66 130.84 112.749 130.645 112.76 130.438V96.5187C112.76 96.3045 112.674 96.0992 112.523 95.9478Z" fill="#98D2F2"/>
<path d="M107.986 95.9482C107.835 95.7968 107.63 95.7115 107.416 95.7109H107.413C107.199 95.7124 106.994 95.7983 106.843 95.9501C106.693 96.1018 106.608 96.307 106.608 96.5209V130.438C106.619 130.645 106.709 130.84 106.859 130.983C107.009 131.126 107.209 131.205 107.416 131.205C107.623 131.205 107.823 131.126 107.973 130.983C108.123 130.84 108.213 130.645 108.224 130.438V96.5187C108.223 96.3047 108.138 96.0995 107.986 95.9482Z" fill="#98D2F2"/>
<path d="M146.527 144.461H54.9624V147.434H146.527V144.461Z" fill="#98D2F2"/>
<path d="M149.316 147.254H52.6357V150.227H149.316V147.254Z" fill="#C9ECFF"/>
<path fill-rule="evenodd" clip-rule="evenodd" d="M91.1996 67.2461H108.003C109.752 67.252 111.428 67.8863 112.665 69.0105C113.901 70.1348 114.599 71.6579 114.606 73.2479V73.2479C114.6 74.8379 113.902 76.3613 112.665 77.4856C111.428 78.61 109.752 79.2441 108.003 79.2497H91.1996C89.4503 79.2441 87.7744 78.61 86.5374 77.4856C85.3005 76.3613 84.6028 74.8379 84.5967 73.2479V73.2479C84.6028 71.6578 85.3005 70.1345 86.5374 69.0102C87.7744 67.8858 89.4503 67.2517 91.1996 67.2461" fill="white"/>
<path fill-rule="evenodd" clip-rule="evenodd" d="M108.968 70.7215C109.08 70.5858 109.209 70.4653 109.352 70.363C109.463 70.288 109.597 70.255 109.73 70.2699C109.864 70.2849 109.987 70.3468 110.078 70.4445C110.135 70.4997 110.181 70.5658 110.211 70.6389C110.242 70.7119 110.258 70.7904 110.257 70.8696C110.255 70.98 110.227 71.0885 110.175 71.186C110.108 71.3107 110.022 71.4243 109.92 71.5228L108.482 73.0168L110.265 74.9318C110.364 75.0372 110.448 75.155 110.516 75.2822C110.569 75.376 110.598 75.4807 110.602 75.5878C110.602 75.668 110.586 75.7473 110.553 75.8207C110.521 75.8941 110.473 75.96 110.414 76.0142C110.359 76.0716 110.293 76.1173 110.22 76.1488C110.147 76.1803 110.068 76.1969 109.988 76.1976C109.882 76.1981 109.779 76.1699 109.688 76.1161C109.532 76.0078 109.392 75.8795 109.27 75.7345L107.274 73.5424V75.2591C107.293 75.5062 107.235 75.7529 107.109 75.9667C107.048 76.0391 106.971 76.0973 106.884 76.1372C106.798 76.177 106.704 76.1977 106.608 76.1977C106.513 76.1977 106.419 76.177 106.332 76.1372C106.246 76.0973 106.169 76.0391 106.107 75.9667C105.983 75.7525 105.926 75.506 105.943 75.2591V71.1847C105.926 70.9379 105.983 70.6915 106.107 70.4771C106.168 70.4041 106.245 70.3453 106.332 70.305C106.418 70.2647 106.513 70.2438 106.608 70.2438C106.704 70.2438 106.798 70.2647 106.885 70.305C106.971 70.3453 107.048 70.4041 107.109 70.4771C107.234 70.6911 107.292 70.9377 107.274 71.1847V72.6229L108.968 70.7215ZM101.127 75.2673C101.145 75.5141 101.088 75.7606 100.963 75.9749C100.902 76.0473 100.825 76.1055 100.738 76.1454C100.652 76.1852 100.557 76.2059 100.462 76.2059C100.366 76.2059 100.272 76.1852 100.185 76.1454C100.099 76.1055 100.022 76.0473 99.9601 75.9749C99.8356 75.7606 99.7785 75.5141 99.7963 75.2673V71.1371C99.7797 70.9053 99.8325 70.6738 99.9478 70.4716C100 70.3986 100.07 70.34 100.152 70.3015C100.233 70.263 100.323 70.2458 100.413 70.2516C100.542 70.2501 100.668 70.284 100.778 70.3494C100.91 70.4381 101.026 70.5494 101.119 70.6781L103.576 73.9078V71.1915C103.559 70.9446 103.616 70.6983 103.74 70.4839C103.801 70.4108 103.878 70.3521 103.965 70.3118C104.052 70.2714 104.146 70.2506 104.242 70.2506C104.337 70.2506 104.432 70.2714 104.519 70.3118C104.605 70.3521 104.682 70.4108 104.743 70.4839C104.867 70.6983 104.924 70.9446 104.907 71.1915V75.4207C104.923 75.6382 104.872 75.8553 104.76 76.0428C104.705 76.1109 104.634 76.1648 104.554 76.1996C104.474 76.2344 104.386 76.2491 104.298 76.2424C104.16 76.2429 104.025 76.2033 103.909 76.1283C103.765 76.0287 103.639 75.9051 103.537 75.763L101.127 72.5971V75.2673ZM95.9931 73.8195H97.3882L96.7152 71.6627L95.9931 73.8195ZM95.615 75.0418L95.4157 75.6285C95.3664 75.7952 95.2774 75.9476 95.1563 76.0727C95.0548 76.1714 94.9187 76.2269 94.7768 76.2275C94.6923 76.2301 94.6081 76.2154 94.5296 76.184C94.4512 76.1527 94.3801 76.1055 94.3208 76.0455C94.2619 75.9849 94.2159 75.9132 94.1854 75.8346C94.1549 75.7559 94.1406 75.672 94.1434 75.5878C94.1431 75.5182 94.1486 75.4487 94.1598 75.38C94.1692 75.32 94.1852 75.2613 94.2075 75.2048L95.7269 71.1005C95.8064 70.8525 95.9472 70.6283 96.1364 70.4485C96.3077 70.3162 96.5181 70.2437 96.735 70.2422C96.9519 70.2407 97.1632 70.3104 97.3364 70.4404C97.517 70.5907 97.651 70.789 97.7227 71.0122L99.2052 75.1844C99.2343 75.275 99.2562 75.3537 99.2707 75.4207C99.2845 75.4809 99.2918 75.5424 99.2926 75.6041C99.2956 75.6879 99.2806 75.7713 99.2486 75.8488C99.2166 75.9264 99.1683 75.9962 99.1069 76.0536C98.9788 76.1715 98.8089 76.234 98.6346 76.2275C98.4762 76.2314 98.3225 76.174 98.2059 76.0672C98.0741 75.9309 97.98 75.7629 97.9329 75.5796L97.7677 75.0364L95.615 75.0418ZM90.4999 76.1297C90.1545 76.1297 89.917 76.0713 89.79 75.9545C89.6631 75.8377 89.5962 75.6177 89.5962 75.2958V71.2485C89.5962 70.8954 89.6658 70.6509 89.801 70.5178C89.9361 70.3847 90.1764 70.3168 90.5149 70.3168H91.607C92.1872 70.3168 92.6349 70.4445 92.9544 70.6984C93.1954 70.9171 93.3559 71.2098 93.4103 71.5298C93.4648 71.8497 93.41 72.1786 93.2547 72.464C93.1229 72.6635 92.9321 72.8172 92.7086 72.9041C93.0521 72.9741 93.3616 73.158 93.5864 73.4256C93.7964 73.6975 93.9045 74.0337 93.8922 74.3763C93.8922 74.9196 93.7102 75.3478 93.3461 75.6611C92.9803 75.9708 92.4684 76.1243 91.8145 76.1243L90.4999 76.1297ZM90.9285 74.9929H91.592C91.8283 75.0086 92.0637 74.9502 92.265 74.8259C92.3415 74.77 92.4028 74.696 92.4433 74.6106C92.4838 74.5253 92.5023 74.4312 92.497 74.3369C92.5043 74.243 92.4878 74.1487 92.4489 74.0628C92.41 73.9769 92.3501 73.9021 92.2745 73.8453C92.0628 73.7226 91.8186 73.6667 91.5742 73.685H90.9326L90.9285 74.9929ZM90.9285 72.5822H91.4855C91.6587 72.5904 91.8288 72.5348 91.9633 72.426C92.0226 72.3762 92.0698 72.3137 92.1012 72.2431C92.1327 72.1725 92.1476 72.0957 92.1449 72.0186C92.1481 71.9396 92.1333 71.861 92.1017 71.7885C92.07 71.7161 92.0222 71.6517 91.9619 71.6003C91.8224 71.491 91.6478 71.436 91.4705 71.4454H90.9244L90.9285 72.5822Z" fill="#6FB0D3"/>
<path d="M143.494 88.5664H56.2261V91.357H143.494V88.5664Z" fill="#C9ECFF"/>
<g style="mix-blend-mode:soft-light" opacity="0.2">
<path d="M169.087 101.282C169.118 101.453 169.188 101.615 169.29 101.755C169.393 101.896 169.526 102.011 169.68 102.093C169.986 102.199 170.315 102.217 170.631 102.144C171.201 101.975 171.793 101.894 172.387 101.903C172.685 101.957 172.973 102.059 173.238 102.205C173.532 102.35 173.811 102.525 174.071 102.725C174.617 103.119 175.057 103.641 175.355 104.244C175.652 104.848 175.797 105.515 175.777 106.187C175.745 107.009 175.777 107.832 175.873 108.648C175.939 109.204 176.154 109.731 176.494 110.175C176.566 110.251 176.646 110.319 176.734 110.377C177.562 104.381 176.024 100.382 172.074 100.309C170.996 100.263 169.934 100.58 169.059 101.21C169.076 101.23 169.086 101.256 169.087 101.282V101.282Z" fill="#F2FAFF"/>
</g>
<path d="M171.006 139.508H171.515L171.437 149.184H171.006V139.508Z" fill="#5CA88D"/>
<path d="M175.815 137.731C176.011 137.563 181.276 132.764 180.655 126.752C180.034 120.739 175.01 119.246 176.436 112.238C177.863 105.23 176.436 100.392 172.095 100.325C167.754 100.257 162.308 109.574 163.919 117.08C165.531 124.586 162.081 122.428 162.417 127.926C162.803 134.286 167.815 144.677 175.815 137.731Z" fill="#7AC094"/>
<path d="M176.951 125.423C176.945 125.417 176.937 125.412 176.929 125.408C176.921 125.405 176.912 125.403 176.903 125.403C176.895 125.403 176.886 125.405 176.878 125.408C176.87 125.412 176.862 125.417 176.856 125.423L171.357 130.932V121.569L174.422 118.331C174.433 118.317 174.438 118.301 174.438 118.284C174.438 118.266 174.433 118.25 174.422 118.236C174.416 118.23 174.409 118.225 174.401 118.221C174.392 118.218 174.384 118.216 174.375 118.216C174.366 118.216 174.357 118.218 174.349 118.221C174.341 118.225 174.333 118.23 174.327 118.236L171.357 121.374V112.984L173.594 110.747C173.606 110.735 173.613 110.719 173.613 110.702C173.613 110.685 173.606 110.669 173.594 110.657C173.582 110.646 173.566 110.639 173.55 110.639C173.533 110.639 173.517 110.646 173.505 110.657L171.368 112.822V105.54C171.368 105.522 171.361 105.505 171.348 105.492C171.336 105.48 171.318 105.473 171.301 105.473C171.284 105.474 171.268 105.482 171.257 105.494C171.245 105.507 171.239 105.523 171.239 105.54V115.635L169.561 114.187C169.554 114.18 169.547 114.175 169.539 114.172C169.531 114.169 169.522 114.167 169.513 114.167C169.504 114.167 169.496 114.169 169.487 114.172C169.479 114.175 169.472 114.18 169.466 114.187C169.46 114.192 169.455 114.199 169.451 114.207C169.448 114.215 169.446 114.223 169.446 114.231C169.446 114.24 169.448 114.248 169.451 114.256C169.455 114.263 169.46 114.27 169.466 114.276L171.245 115.792V125.3L167.888 121.944C167.882 121.938 167.874 121.933 167.866 121.93C167.858 121.926 167.849 121.924 167.84 121.924C167.832 121.924 167.823 121.926 167.815 121.93C167.807 121.933 167.799 121.938 167.793 121.944C167.786 121.949 167.78 121.956 167.776 121.964C167.773 121.972 167.771 121.98 167.771 121.989C167.771 121.998 167.773 122.006 167.776 122.014C167.78 122.022 167.786 122.028 167.793 122.034L171.245 125.485V131.078V139.842C171.245 139.859 171.251 139.875 171.262 139.887C171.274 139.9 171.289 139.908 171.306 139.909C171.324 139.909 171.341 139.902 171.354 139.889C171.366 139.877 171.373 139.86 171.373 139.842V131.106L176.968 125.513C176.977 125.498 176.98 125.481 176.977 125.464C176.974 125.448 176.965 125.433 176.951 125.423V125.423Z" fill="#B8DEBF"/>
<g style="mix-blend-mode:soft-light" opacity="0.2">
<path d="M33.7239 117.704C33.7022 117.821 33.6543 117.932 33.5837 118.029C33.5131 118.125 33.4217 118.205 33.3162 118.261C33.1058 118.334 32.8791 118.346 32.6622 118.296C32.2702 118.18 31.8629 118.124 31.4542 118.13C31.2493 118.167 31.0517 118.237 30.8695 118.338C30.667 118.438 30.475 118.558 30.2963 118.696C29.9212 118.967 29.6182 119.325 29.4137 119.74C29.2092 120.155 29.1094 120.614 29.123 121.076C29.1454 121.641 29.1236 122.207 29.0575 122.769C29.0117 123.151 28.8643 123.513 28.6305 123.819C28.5809 123.871 28.5254 123.918 28.4651 123.957C27.8958 119.834 28.9537 117.084 31.6697 117.034C32.4107 117.002 33.141 117.221 33.7432 117.654C33.731 117.667 33.7241 117.685 33.7239 117.704V117.704Z" fill="#F2FAFF"/>
</g>
<path d="M32.3994 143.984H32.0493L32.1032 150.638H32.3994V143.984Z" fill="#5CA88D"/>
<path d="M29.0967 142.765C28.9621 142.65 25.3421 139.35 25.7691 135.216C26.1961 131.081 29.6507 130.054 28.6697 125.235C27.6887 120.416 28.6697 117.089 31.655 117.043C34.6402 116.997 38.3849 123.403 37.277 128.565C36.1691 133.726 38.5411 132.243 38.3102 136.023C38.0448 140.396 34.5979 147.542 29.0967 142.765Z" fill="#7AC094"/>
<path d="M28.3136 134.301C28.3178 134.296 28.3229 134.293 28.3286 134.291C28.3342 134.288 28.3402 134.287 28.3463 134.287C28.3523 134.287 28.3584 134.288 28.364 134.291C28.3696 134.293 28.3747 134.296 28.3789 134.301L32.1605 138.089V131.651L30.0524 129.424C30.0452 129.415 30.0413 129.403 30.0413 129.391C30.0413 129.38 30.0452 129.368 30.0524 129.359C30.0567 129.354 30.0618 129.351 30.0674 129.349C30.073 129.346 30.079 129.345 30.0851 129.345C30.0912 129.345 30.0972 129.346 30.1028 129.349C30.1084 129.351 30.1135 129.354 30.1178 129.359L32.1605 131.516V125.747L30.6217 124.209C30.6136 124.201 30.609 124.19 30.609 124.178C30.609 124.167 30.6136 124.155 30.6217 124.147C30.6299 124.139 30.641 124.135 30.6525 124.135C30.6641 124.135 30.6751 124.139 30.6833 124.147L32.1528 125.636V120.628C32.1528 120.616 32.1577 120.604 32.1664 120.596C32.175 120.587 32.1868 120.582 32.199 120.582C32.2106 120.583 32.2214 120.588 32.2292 120.597C32.237 120.605 32.2414 120.617 32.2413 120.628V127.57L33.3954 126.574C33.3997 126.57 33.4048 126.566 33.4104 126.564C33.416 126.562 33.422 126.561 33.4281 126.561C33.4342 126.561 33.4402 126.562 33.4458 126.564C33.4514 126.566 33.4565 126.57 33.4608 126.574C33.465 126.578 33.4684 126.583 33.4706 126.588C33.4729 126.593 33.4741 126.599 33.4741 126.605C33.4741 126.611 33.4729 126.616 33.4706 126.622C33.4684 126.627 33.465 126.632 33.4608 126.636L32.2375 127.678V134.216L34.5457 131.909C34.55 131.904 34.5551 131.901 34.5607 131.899C34.5663 131.896 34.5723 131.895 34.5784 131.895C34.5845 131.895 34.5905 131.896 34.5961 131.899C34.6017 131.901 34.6068 131.904 34.6111 131.909C34.6158 131.912 34.6197 131.917 34.6224 131.922C34.6251 131.927 34.6265 131.933 34.6265 131.939C34.6265 131.945 34.6251 131.951 34.6224 131.957C34.6197 131.962 34.6158 131.967 34.6111 131.97L32.2375 134.343V138.189V144.216C32.2375 144.227 32.2332 144.239 32.2253 144.247C32.2175 144.256 32.2067 144.261 32.1952 144.262C32.1829 144.262 32.1712 144.257 32.1625 144.248C32.1539 144.24 32.149 144.228 32.149 144.216V138.208L28.302 134.362C28.2959 134.352 28.2936 134.341 28.2958 134.329C28.2979 134.318 28.3042 134.308 28.3136 134.301V134.301Z" fill="#B8DEBF"/>
<path d="M46.9862 49.8828H43.9286C44.4037 50.6426 44.7134 51.5349 44.8529 52.5587H47.6854L46.9862 55.3254H44.8683C44.6605 56.9973 44.045 58.2799 43.0149 59.1712C41.9876 60.053 40.5334 60.5801 38.654 60.7523L45.1895 69.0376V69.2349H41.1643L34.0248 60.22L34.0094 57.8948H37.5585C38.6078 57.8948 39.435 57.661 40.0429 57.1956C40.6584 56.7186 41.0701 56.0956 41.2778 55.3254H33.7305L34.4432 52.5587H41.2211C40.7604 50.988 39.5216 50.2022 37.5018 50.2022H33.7305L34.4893 47.1016H47.6999L46.9862 49.8828Z" fill="#98B6DC"/>
<path d="M60.7582 44.4558H59.1698C59.4166 44.8855 59.5775 45.3902 59.65 45.9692H61.1214L60.7582 47.534H59.6579C59.55 48.4796 59.2302 49.205 58.6951 49.7091C58.1615 50.2078 57.4061 50.5059 56.4298 50.6033L59.8248 55.2893V55.4008H57.7338L54.025 50.3023L54.017 48.9872H55.8607C56.4058 48.9872 56.8355 48.855 57.1512 48.5917C57.471 48.322 57.6849 47.9696 57.7928 47.534H53.8721L54.2423 45.9692H57.7633C57.524 45.0809 56.8804 44.6364 55.8312 44.6364H53.8721L54.2663 42.8828H61.1289L60.7582 44.4558Z" fill="#9CB8DC" fill-opacity="0.6"/>
<path d="M170.022 90.3633H173.528C173.631 90.3336 173.723 90.271 173.788 90.1849C173.853 90.0987 173.888 89.9938 173.888 89.8858C173.888 89.7779 173.853 89.673 173.788 89.5868C173.723 89.5007 173.631 89.4381 173.528 89.4084H170.022C169.919 89.4381 169.827 89.5007 169.762 89.5868C169.697 89.673 169.662 89.7779 169.662 89.8858C169.662 89.9938 169.697 90.0987 169.762 90.1849C169.827 90.271 169.919 90.3336 170.022 90.3633V90.3633Z" fill="#BBC6DC"/>
<path d="M176.727 90.3633H189C189.104 90.3336 189.196 90.271 189.261 90.1849C189.326 90.0987 189.361 89.9938 189.361 89.8858C189.361 89.7779 189.326 89.673 189.261 89.5868C189.196 89.5007 189.104 89.4381 189 89.4084H176.727C176.624 89.4381 176.532 89.5007 176.467 89.5868C176.402 89.673 176.367 89.7779 176.367 89.8858C176.367 89.9938 176.402 90.0987 176.467 90.1849C176.532 90.271 176.624 90.3336 176.727 90.3633V90.3633Z" fill="#BBC6DC"/>
<path d="M116.602 36.0976C116.602 35.5707 116.758 35.0557 117.051 34.6176C117.344 34.1795 117.76 33.838 118.247 33.6364C118.734 33.4347 119.269 33.382 119.786 33.4848C120.303 33.5875 120.778 33.8413 121.151 34.2139C121.523 34.5864 121.777 35.0611 121.88 35.5779C121.983 36.0947 121.93 36.6303 121.728 37.1171C121.527 37.6039 121.185 38.02 120.747 38.3127C120.309 38.6055 119.793 38.7617 119.266 38.7617C118.56 38.7617 117.882 38.481 117.382 37.9814C116.882 37.4818 116.602 36.8042 116.602 36.0976V36.0976Z" fill="#BBC6DC"/>
<path d="M38.5318 96.9062H35.0266C34.9228 96.8766 34.8315 96.814 34.7665 96.7278C34.7015 96.6417 34.6664 96.5367 34.6664 96.4288C34.6664 96.3209 34.7015 96.2159 34.7665 96.1298C34.8315 96.0437 34.9228 95.981 35.0266 95.9514H38.5318C38.6356 95.981 38.7269 96.0437 38.7919 96.1298C38.8569 96.2159 38.8921 96.3209 38.8921 96.4288C38.8921 96.5367 38.8569 96.6417 38.7919 96.7278C38.7269 96.814 38.6356 96.8766 38.5318 96.9062V96.9062Z" fill="#BBC6DC"/>
<path d="M31.8248 96.9062H19.5518C19.448 96.8766 19.3567 96.814 19.2917 96.7278C19.2267 96.6417 19.1915 96.5367 19.1915 96.4288C19.1915 96.3209 19.2267 96.2159 19.2917 96.1298C19.3567 96.0437 19.448 95.981 19.5518 95.9514H31.8248C31.9286 95.981 32.0199 96.0437 32.0849 96.1298C32.1499 96.2159 32.1851 96.3209 32.1851 96.4288C32.1851 96.5367 32.1499 96.6417 32.0849 96.7278C32.0199 96.814 31.9286 96.8766 31.8248 96.9062V96.9062Z" fill="#BBC6DC"/>
<path d="M44.6344 102.973C44.6344 102.446 44.7907 101.931 45.0835 101.493C45.3763 101.054 45.7925 100.713 46.2794 100.511C46.7663 100.31 47.302 100.257 47.819 100.36C48.3359 100.463 48.8107 100.716 49.1833 101.089C49.556 101.461 49.8099 101.936 49.9127 102.453C50.0155 102.97 49.9627 103.505 49.761 103.992C49.5593 104.479 49.2178 104.895 48.7795 105.188C48.3413 105.48 47.8262 105.637 47.2991 105.637C46.5924 105.637 45.9146 105.356 45.4149 104.856C44.9151 104.357 44.6344 103.679 44.6344 102.973V102.973Z" fill="#BBC6DC"/>
<path opacity="0.25" d="M16.2917 75.8707C16.246 75.1452 16.4164 74.4226 16.7814 73.7939C17.1464 73.1653 17.6896 72.659 18.3424 72.3389C18.9951 72.0188 19.7282 71.8994 20.4488 71.9958C21.1694 72.0921 21.8453 72.3998 22.3911 72.88C22.9368 73.3603 23.3279 73.9915 23.5149 74.6939C23.7019 75.3963 23.6765 76.1384 23.4418 76.8263C23.2071 77.5143 22.7737 78.1172 22.1963 78.5589C21.6189 79.0007 20.9235 79.2614 20.198 79.3082C19.7154 79.3405 19.2312 79.2771 18.7732 79.1216C18.3152 78.9661 17.8925 78.7216 17.5294 78.4021C17.1663 78.0826 16.87 77.6944 16.6576 77.26C16.4452 76.8255 16.3208 76.3534 16.2917 75.8707V75.8707Z" fill="#BBC6DC"/>
<path d="M151.383 150.466H174.025L173.702 149.231L172.938 146.308C172.675 145.312 172.085 144.456 171.28 143.904C170.475 143.352 169.512 143.143 168.575 143.316L167.595 143.5C167.523 143.513 167.45 143.52 167.377 143.52C167.162 143.52 166.95 143.461 166.76 143.35C166.571 143.239 166.409 143.078 166.29 142.883C165.906 142.259 165.377 141.759 164.756 141.433C164.136 141.108 163.447 140.968 162.761 141.03C162.074 141.091 161.415 141.352 160.852 141.783C160.289 142.215 159.841 142.803 159.556 143.487L159.387 143.893C159.246 144.235 158.985 144.503 158.663 144.637C158.341 144.77 157.983 144.759 157.669 144.605L156.691 144.128C156.425 143.998 156.127 143.969 155.844 144.045C155.561 144.122 155.309 144.299 155.13 144.55C154.995 144.735 154.906 144.954 154.871 145.187L154.726 146.11C154.692 146.327 154.613 146.532 154.494 146.71L154.429 146.798C154.232 147.045 153.963 147.211 153.668 147.269C153.591 147.286 153.514 147.294 153.436 147.293C153.18 147.294 152.929 147.211 152.717 147.056C152.467 146.878 152.168 146.799 151.871 146.835C151.574 146.87 151.297 147.016 151.088 147.249L150.432 147.966C150.244 148.171 150.115 148.432 150.063 148.716C150.011 149 150.038 149.295 150.139 149.563C150.241 149.831 150.414 150.06 150.635 150.22C150.857 150.381 151.117 150.466 151.383 150.466Z" fill="#BBC6DC"/>
<path d="M48.0152 150.472H31.5481L31.7836 149.617L32.3389 147.594C32.5301 146.904 32.9594 146.311 33.5447 145.929C34.1301 145.547 34.8306 145.402 35.5124 145.522L36.2247 145.65C36.2771 145.659 36.33 145.663 36.3831 145.663C36.5398 145.663 36.6939 145.623 36.8318 145.546C36.9698 145.469 37.0873 145.358 37.1739 145.222C37.453 144.791 37.8381 144.444 38.2893 144.219C38.7405 143.993 39.2416 143.897 39.7407 143.94C40.2399 143.982 40.719 144.162 41.1287 144.461C41.5383 144.76 41.8637 145.167 42.0711 145.64L42.194 145.922C42.2969 146.159 42.4862 146.344 42.7206 146.437C42.9549 146.529 43.215 146.521 43.4438 146.415L44.1547 146.084C44.3482 145.994 44.5652 145.974 44.7711 146.027C44.9769 146.08 45.1598 146.203 45.2905 146.376C45.3882 146.504 45.453 146.656 45.4785 146.817L45.5837 147.457C45.6088 147.607 45.6665 147.749 45.7525 147.872L45.7999 147.933C45.9433 148.104 46.1387 148.219 46.3537 148.259C46.4093 148.271 46.4658 148.276 46.5225 148.276C46.7087 148.276 46.8907 148.219 47.0453 148.111C47.2271 147.988 47.4446 147.934 47.6607 147.958C47.8767 147.983 48.0779 148.084 48.23 148.245L48.7068 148.742C48.8439 148.883 48.9373 149.064 48.9752 149.261C49.0131 149.458 48.9938 149.662 48.9197 149.847C48.8456 150.033 48.72 150.191 48.559 150.302C48.398 150.413 48.2087 150.473 48.0152 150.472Z" fill="#BBC6DC"/>
<path opacity="0.25" d="M153.67 150.467H174.024L173.705 149.263C173.194 148.766 172.585 148.4 171.924 148.195C171.263 147.989 170.568 147.948 169.89 148.075L169.137 148.214L168.736 148.285C168.649 148.302 168.561 148.31 168.473 148.309C168.285 148.31 168.099 148.272 167.925 148.199C167.625 148.076 167.369 147.856 167.192 147.568C166.947 147.167 166.648 146.807 166.305 146.502C166.178 146.385 166.044 146.279 165.903 146.183C165.177 145.666 164.328 145.387 163.458 145.379C162.57 145.365 161.697 145.631 160.948 146.146C160.199 146.66 159.606 147.4 159.242 148.274L159.041 148.742C158.873 149.144 158.565 149.458 158.183 149.615C157.802 149.772 157.378 149.759 157.005 149.579L156.419 149.295L155.855 149.022C155.64 148.919 155.405 148.87 155.17 148.879C154.934 148.889 154.704 148.956 154.497 149.077C154.289 149.198 154.11 149.368 153.973 149.575C153.836 149.781 153.745 150.019 153.707 150.27L153.67 150.467Z" fill="#F2FAFF"/>
</svg>
