<svg width="30" height="30" viewBox="0 0 30 30" fill="none" xmlns="http://www.w3.org/2000/svg">
<g clip-path="url(#clip0_46875_13672)">
<path d="M17.4978 10.489V0H7.78641C7.29132 0.00147568 6.81693 0.198803 6.46685 0.548884C6.11677 0.898965 5.91944 1.37335 5.91797 1.86844V27.1316C5.91944 27.6266 6.11677 28.101 6.46685 28.4511C6.81693 28.8012 7.29132 28.9985 7.78641 29H28.6973C29.1924 28.9985 29.6668 28.8012 30.0168 28.4511C30.3669 28.101 30.5643 27.6266 30.5657 27.1316V10.489H17.4978Z" fill="#6334FA"/>
<path d="M20.4212 16.0665C20.2613 15.3955 19.9496 14.7701 19.5101 14.2385C19.0706 13.7069 18.5149 13.2832 17.886 13.0001C17.257 12.717 16.5715 12.5819 15.8821 12.6053C15.1927 12.6287 14.5179 12.81 13.9096 13.1351C13.3174 11.9502 12.3427 10.9998 11.1432 10.4376C9.9438 9.87536 8.58976 9.73425 7.30017 10.0371C6.01059 10.3399 4.86088 11.0689 4.03704 12.1063C3.21321 13.1436 2.76344 14.4285 2.7605 15.7532C2.7605 15.8483 2.7605 15.949 2.7605 16.0441C1.82074 16.4076 1.03769 17.0883 0.546903 17.9684C0.0561202 18.8484 -0.111494 19.8723 0.073078 20.8629C0.25765 21.8535 0.782789 22.7484 1.55758 23.3926C2.33237 24.0368 3.30804 24.3898 4.31567 24.3905H18.8269C19.8278 24.3858 20.796 24.0336 21.5659 23.394C22.3359 22.7545 22.8598 21.8673 23.048 20.8843C23.2363 19.9012 23.0773 18.8833 22.5982 18.0045C22.119 17.1258 21.3495 16.4407 20.4212 16.0665Z" fill="white"/>
<path fill-rule="evenodd" clip-rule="evenodd" d="M13.4942 14.4402L13.0553 13.5621C12.5592 12.5695 11.7427 11.7734 10.7379 11.3024C9.7331 10.8314 8.59881 10.7132 7.51851 10.9669C6.43821 11.2206 5.4751 11.8313 4.78496 12.7003C4.09504 13.569 3.71828 14.645 3.71559 15.7543V16.6987L3.1051 16.9348C2.37317 17.218 1.76329 17.7482 1.38105 18.4336C0.998807 19.119 0.868261 19.9165 1.01201 20.688C1.15577 21.4595 1.56477 22.1564 2.16821 22.6582C2.77165 23.1599 3.53155 23.4349 4.31633 23.4354H18.8245C19.6033 23.4313 20.3565 23.157 20.9556 22.6593C21.5553 22.1612 21.9634 21.4703 22.11 20.7046C22.2566 19.939 22.1328 19.1462 21.7596 18.4617C21.3864 17.7773 20.7871 17.2437 20.0641 16.9523L20.4212 16.0665C21.3495 16.4407 22.119 17.1258 22.5982 18.0045C23.0773 18.8833 23.2363 19.9012 23.048 20.8843C22.8598 21.8673 22.3359 22.7545 21.5659 23.394C20.796 24.0336 19.8278 24.3858 18.8269 24.3905H4.31567C3.30804 24.3898 2.33237 24.0368 1.55758 23.3926C0.782789 22.7484 0.25765 21.8535 0.073078 20.8629C-0.111494 19.8723 0.0561202 18.8484 0.546903 17.9684C1.03769 17.0883 1.82074 16.4076 2.7605 16.0441V15.7532C2.76344 14.4285 3.21321 13.1436 4.03704 12.1063C4.86088 11.0689 6.01059 10.3399 7.30017 10.0371C8.58976 9.73425 9.9438 9.87536 11.1432 10.4376C12.2452 10.9541 13.1574 11.7983 13.7577 12.8509C13.8108 12.944 13.8615 13.0388 13.9096 13.1351C13.9823 13.0963 14.0559 13.0595 14.1304 13.0248C14.6794 12.7689 15.2751 12.6259 15.8821 12.6053C16.5715 12.5819 17.257 12.717 17.886 13.0001C18.5149 13.2832 19.0706 13.7069 19.5101 14.2385C19.9496 14.7701 20.2613 15.3955 20.4212 16.0665L19.4921 16.2878C19.3661 15.759 19.1204 15.2661 18.774 14.8471C18.4276 14.4281 17.9897 14.0942 17.4939 13.871C16.9982 13.6479 16.4578 13.5414 15.9145 13.5598C15.3712 13.5783 14.8393 13.7212 14.3598 13.9774L13.4942 14.4402Z" fill="#6334FA"/>
<path d="M18.9375 9.28067H30.5621L18.9375 0V9.28067Z" fill="#6334FF"/>
<path d="M10.42 18.3543C11.0101 18.3543 11.4885 17.8759 11.4885 17.2858C11.4885 16.6957 11.0101 16.2173 10.42 16.2173C9.82994 16.2173 9.35156 16.6957 9.35156 17.2858C9.35156 17.8759 9.82994 18.3543 10.42 18.3543Z" fill="#6334FA"/>
<path d="M10.7254 17.6781H10.1045L9.38281 20.6598H11.4526L10.7254 17.6781Z" fill="#6334FA"/>
</g>
<defs>
<clipPath id="clip0_46875_13672">
<rect width="30" height="30" fill="white"/>
</clipPath>
</defs>
</svg>
