<svg width="457" height="54" fill="none" xmlns="http://www.w3.org/2000/svg"><path stroke="url(#a)" stroke-width="1.5" stroke-linecap="round" d="M101.75 8.25h137.5"/><path stroke="url(#b)" stroke-width="1.5" stroke-linecap="round" d="M.75 53.25h137.5"/><path stroke="url(#c)" stroke-width="1.5" stroke-linecap="round" d="M145.75 53.25h137.5"/><path stroke="url(#d)" stroke-width="1.5" stroke-linecap="round" d="M290.75 53.25h137.5"/><path stroke="url(#e)" stroke-width="1.5" stroke-linecap="round" d="M254.75 8.25h137.5"/><path stroke="url(#f)" stroke-width="1.5" stroke-linecap="round" d="M129.75 1.25h137.5"/><path stroke="url(#g)" stroke-width="1.5" stroke-linecap="round" d="M28.75 46.25h137.5"/><path stroke="url(#h)" stroke-width="1.5" stroke-linecap="round" d="M173.75 46.25h137.5"/><path stroke="url(#i)" stroke-width="1.5" stroke-linecap="round" d="M318.75 46.25h137.5"/><path stroke="url(#j)" stroke-width="1.5" stroke-linecap="round" d="M277.75 1.25h137.5"/><path d="M114.33 33v-9.926h6.034v1.274h-4.662v3.192h4.228v1.288h-4.228V33h-1.372zm6.537-1.806c0-.299.051-.565.154-.798.102-.243.242-.448.42-.616.186-.168.406-.303.658-.406a3.7 3.7 0 0 1 .812-.224l1.82-.266c.205-.028.34-.089.406-.182a.505.505 0 0 0 .112-.322c0-.327-.117-.607-.35-.84-.224-.243-.593-.364-1.106-.364-.467 0-.826.13-1.078.392a1.583 1.583 0 0 0-.448.966l-1.26-.294c.037-.317.13-.611.28-.882.158-.27.359-.5.602-.686a2.58 2.58 0 0 1 .84-.448 3.17 3.17 0 0 1 1.036-.168c.504 0 .933.07 1.288.21.354.13.644.308.868.532.224.224.387.485.49.784.102.299.154.611.154.938v3.374c0 .299.009.537.028.714.018.177.037.308.056.392h-1.288a3.74 3.74 0 0 1-.056-.336 8.636 8.636 0 0 1-.014-.574 2.501 2.501 0 0 1-.294.378c-.122.13-.271.252-.448.364-.178.112-.388.2-.63.266-.234.075-.5.112-.798.112-.346 0-.658-.056-.938-.168a2.396 2.396 0 0 1-.7-.434 2.094 2.094 0 0 1-.462-.644 1.95 1.95 0 0 1-.154-.77zm2.436.91c.27 0 .522-.033.756-.098.242-.075.448-.187.616-.336.177-.159.317-.364.42-.616.102-.261.154-.574.154-.938v-.308l-2.058.308a1.35 1.35 0 0 0-.7.322c-.187.159-.28.387-.28.686 0 .252.098.48.294.686.196.196.462.294.798.294zm5.688-1.274c.046.355.2.653.462.896.261.243.63.364 1.106.364.373 0 .658-.089.854-.266a.823.823 0 0 0 .294-.63.744.744 0 0 0-.224-.546c-.15-.15-.364-.257-.644-.322l-1.148-.252c-.532-.112-.948-.336-1.246-.672-.29-.336-.434-.742-.434-1.218 0-.29.06-.56.182-.812.13-.261.303-.49.518-.686.214-.196.466-.35.756-.462.298-.112.611-.168.938-.168.457 0 .84.065 1.148.196.317.13.574.294.77.49.196.187.34.383.434.588.102.205.172.383.21.532l-1.162.434a3.047 3.047 0 0 0-.098-.322 1.085 1.085 0 0 0-.224-.364 1.235 1.235 0 0 0-.42-.308 1.535 1.535 0 0 0-.658-.126c-.336 0-.607.093-.812.28-.206.177-.308.383-.308.616 0 .43.256.7.77.812l1.092.238c.616.13 1.078.373 1.386.728.317.345.476.77.476 1.274 0 .243-.052.485-.154.728a2.125 2.125 0 0 1-.462.672 2.08 2.08 0 0 1-.756.49c-.308.13-.672.196-1.092.196-.467 0-.868-.065-1.204-.196a2.843 2.843 0 0 1-.826-.49 2.401 2.401 0 0 1-.504-.63 2.242 2.242 0 0 1-.21-.644l1.19-.42zm7.237-4.564h1.456v1.19h-1.456v3.5c0 .308.07.541.21.7.14.15.382.224.728.224.084 0 .177-.005.28-.014.102-.01.182-.023.238-.042v1.12a2.726 2.726 0 0 1-.322.07c-.159.037-.35.056-.574.056-.579 0-1.036-.163-1.372-.49-.336-.336-.504-.812-.504-1.428v-3.696h-1.288v-1.19h.364c.364 0 .625-.098.784-.294.168-.196.252-.443.252-.742v-1.092h1.204v2.128zm11.219 5.418c-.411.457-.84.821-1.288 1.092a2.871 2.871 0 0 1-1.498.392c-.467 0-.882-.07-1.246-.21a2.887 2.887 0 0 1-.896-.574 2.433 2.433 0 0 1-.728-1.75 2.693 2.693 0 0 1 .476-1.568c.158-.224.345-.43.56-.616.214-.196.452-.392.714-.588l.14-.112-.182-.196a72.37 72.37 0 0 0-.378-.406 4.395 4.395 0 0 1-.392-.518 3.28 3.28 0 0 1-.308-.602 2.065 2.065 0 0 1-.112-.686c0-.401.074-.756.224-1.064.149-.308.345-.565.588-.77.252-.215.527-.373.826-.476.308-.112.616-.168.924-.168.373 0 .718.056 1.036.168.326.112.606.275.84.49.233.205.415.457.546.756.14.299.21.635.21 1.008 0 .243-.042.471-.126.686a2.571 2.571 0 0 1-.308.588c-.131.177-.28.345-.448.504-.168.15-.341.29-.518.42l-.504.378 1.848 1.918 2.212-2.464v1.806l-1.344 1.554L150.569 33h-1.862l-1.26-1.316zm-2.772.224c.382 0 .718-.107 1.008-.322.289-.215.569-.471.84-.77l.042-.056-2.016-2.114-.504.378a2.719 2.719 0 0 0-.602.63c-.159.233-.238.523-.238.868 0 .168.032.336.098.504.074.159.172.308.294.448.13.13.284.238.462.322.186.075.392.112.616.112zm-1.008-6.65c0 .14.023.275.07.406.046.13.107.257.182.378.074.112.154.22.238.322.093.103.182.196.266.28l.308.336.672-.504c.298-.215.494-.42.588-.616.102-.196.154-.401.154-.616 0-.327-.122-.607-.364-.84a1.19 1.19 0 0 0-.896-.364c-.14 0-.285.028-.434.084-.14.047-.271.126-.392.238a1.276 1.276 0 0 0-.28.378 1.14 1.14 0 0 0-.112.518zm11.705 5.572c.047.355.201.653.462.896.262.243.63.364 1.106.364.374 0 .658-.089.854-.266a.823.823 0 0 0 .294-.63.74.74 0 0 0-.224-.546c-.149-.15-.364-.257-.644-.322l-1.148-.252c-.532-.112-.947-.336-1.246-.672a1.805 1.805 0 0 1-.434-1.218c0-.29.061-.56.182-.812.131-.261.304-.49.518-.686.215-.196.467-.35.756-.462.299-.112.612-.168.938-.168.458 0 .84.065 1.148.196.318.13.574.294.77.49.196.187.341.383.434.588.103.205.173.383.21.532l-1.162.434a2.635 2.635 0 0 0-.098-.322 1.054 1.054 0 0 0-.224-.364 1.216 1.216 0 0 0-.42-.308 1.53 1.53 0 0 0-.658-.126c-.336 0-.606.093-.812.28-.205.177-.308.383-.308.616 0 .43.257.7.77.812l1.092.238c.616.13 1.078.373 1.386.728.318.345.476.77.476 1.274 0 .243-.051.485-.154.728a2.093 2.093 0 0 1-.462.672 2.08 2.08 0 0 1-.756.49c-.308.13-.672.196-1.092.196-.466 0-.868-.065-1.204-.196a2.857 2.857 0 0 1-.826-.49 2.443 2.443 0 0 1-.504-.63 2.242 2.242 0 0 1-.21-.644l1.19-.42zm10.037-1.89c-.018-.485-.182-.891-.49-1.218-.308-.336-.76-.504-1.358-.504a1.794 1.794 0 0 0-1.316.546c-.149.159-.27.34-.364.546a1.707 1.707 0 0 0-.154.63h3.682zm1.33 2.142a2.935 2.935 0 0 1-.42.84 2.97 2.97 0 0 1-.658.672 3.173 3.173 0 0 1-.868.448 3.303 3.303 0 0 1-1.078.168c-.448 0-.877-.08-1.288-.238a3.231 3.231 0 0 1-1.092-.7 3.472 3.472 0 0 1-.742-1.134 4.126 4.126 0 0 1-.266-1.526c0-.532.089-1.013.266-1.442.178-.439.411-.812.7-1.12.299-.317.644-.56 1.036-.728a2.925 2.925 0 0 1 1.218-.266c.514 0 .971.089 1.372.266.411.168.752.406 1.022.714.271.308.476.681.616 1.12.15.43.224.905.224 1.428a1.8 1.8 0 0 1-.014.238.907.907 0 0 1-.014.182h-5.068c.01.299.066.574.168.826a2.1 2.1 0 0 0 .42.658c.187.177.402.317.644.42.252.093.518.14.798.14.551 0 .971-.13 1.26-.392.29-.261.5-.583.63-.966l1.134.392zm4.323-3.808c-.271 0-.528.051-.77.154a1.876 1.876 0 0 0-.658.434 2.153 2.153 0 0 0-.448.742c-.112.29-.168.63-.168 1.022 0 .383.056.723.168 1.022.112.29.261.537.448.742.186.196.406.345.658.448.252.103.513.154.784.154.317 0 .583-.047.798-.14.224-.093.406-.21.546-.35.149-.14.266-.29.35-.448.084-.168.144-.317.182-.448l1.162.504c-.084.243-.206.49-.364.742a2.968 2.968 0 0 1-1.512 1.162c-.336.13-.724.196-1.162.196a3.49 3.49 0 0 1-1.372-.266 3.335 3.335 0 0 1-1.064-.756 3.82 3.82 0 0 1-.714-1.134 3.96 3.96 0 0 1-.252-1.428 4 4 0 0 1 .252-1.442c.177-.439.415-.812.714-1.12a3.319 3.319 0 0 1 1.078-.742 3.42 3.42 0 0 1 1.344-.266c.448 0 .84.065 1.176.196.345.121.639.285.882.49.252.205.452.439.602.7.149.252.261.504.336.756l-1.19.504a2.832 2.832 0 0 0-.196-.504 1.466 1.466 0 0 0-.35-.448 1.557 1.557 0 0 0-.518-.336 1.788 1.788 0 0 0-.742-.14zm8.735 4.914a1.72 1.72 0 0 1-.84.784 2.91 2.91 0 0 1-1.148.238c-.392 0-.747-.07-1.064-.21a2.3 2.3 0 0 1-.784-.574 2.673 2.673 0 0 1-.504-.854 3.26 3.26 0 0 1-.168-1.064v-4.242h1.316v4.046c0 .233.028.457.084.672.056.205.144.387.266.546.121.159.275.285.462.378.196.093.434.14.714.14.532 0 .928-.159 1.19-.476.27-.317.406-.733.406-1.246v-4.06h1.316v5.488c0 .27.004.518.014.742.018.215.037.383.056.504h-1.26a2.018 2.018 0 0 1-.042-.35 7.77 7.77 0 0 1-.014-.462zm6.81-4.592a4.053 4.053 0 0 0-.574-.042c-.551 0-.999.163-1.344.49-.336.317-.504.845-.504 1.582V33h-1.316v-6.734h1.288v1.176c.121-.261.261-.471.42-.63.168-.168.341-.299.518-.392.177-.103.359-.173.546-.21a2.72 2.72 0 0 1 .532-.056 2.061 2.061 0 0 1 .434.042v1.4zm5.549 1.344c-.019-.485-.182-.891-.49-1.218-.308-.336-.761-.504-1.358-.504a1.794 1.794 0 0 0-1.316.546c-.15.159-.271.34-.364.546a1.669 1.669 0 0 0-.154.63h3.682zm1.33 2.142a3.012 3.012 0 0 1-1.946 1.96 3.307 3.307 0 0 1-1.078.168 3.54 3.54 0 0 1-1.288-.238 3.212 3.212 0 0 1-1.092-.7 3.456 3.456 0 0 1-.742-1.134c-.178-.448-.266-.957-.266-1.526 0-.532.088-1.013.266-1.442a3.55 3.55 0 0 1 .7-1.12c.298-.317.644-.56 1.036-.728a2.925 2.925 0 0 1 1.218-.266c.513 0 .97.089 1.372.266a2.7 2.7 0 0 1 1.022.714c.27.308.476.681.616 1.12.149.43.224.905.224 1.428 0 .084-.005.163-.014.238a.988.988 0 0 1-.014.182h-5.068c.009.299.065.574.168.826.102.252.242.471.42.658.186.177.401.317.644.42.252.093.518.14.798.14.55 0 .97-.13 1.26-.392.289-.261.499-.583.63-.966l1.134.392zm9.661-4.816 1.75 5.068 1.484-5.068h1.386L205.583 33h-1.358l-1.792-5.124-1.75 5.124h-1.386l-2.212-6.734h1.442l1.512 5.068 1.75-5.068h1.358zm5.173 4.928c0-.299.051-.565.154-.798.102-.243.242-.448.42-.616.186-.168.406-.303.658-.406a3.7 3.7 0 0 1 .812-.224l1.82-.266c.205-.028.34-.089.406-.182a.505.505 0 0 0 .112-.322c0-.327-.117-.607-.35-.84-.224-.243-.593-.364-1.106-.364-.467 0-.826.13-1.078.392a1.583 1.583 0 0 0-.448.966l-1.26-.294c.037-.317.13-.611.28-.882.158-.27.359-.5.602-.686a2.58 2.58 0 0 1 .84-.448 3.17 3.17 0 0 1 1.036-.168c.504 0 .933.07 1.288.21.354.13.644.308.868.532.224.224.387.485.49.784.102.299.154.611.154.938v3.374c0 .299.009.537.028.714.018.177.037.308.056.392h-1.288a3.74 3.74 0 0 1-.056-.336 8.636 8.636 0 0 1-.014-.574 2.501 2.501 0 0 1-.294.378c-.122.13-.271.252-.448.364-.178.112-.388.2-.63.266-.234.075-.5.112-.798.112-.346 0-.658-.056-.938-.168a2.396 2.396 0 0 1-.7-.434 2.094 2.094 0 0 1-.462-.644 1.95 1.95 0 0 1-.154-.77zm2.436.91c.27 0 .522-.033.756-.098.242-.075.448-.187.616-.336.177-.159.317-.364.42-.616.102-.261.154-.574.154-.938v-.308l-2.058.308a1.35 1.35 0 0 0-.7.322c-.187.159-.28.387-.28.686 0 .252.098.48.294.686.196.196.462.294.798.294zm5.259 3.71 1.68-3.556-2.898-5.992h1.512l2.1 4.648 2.016-4.648h1.414l-4.382 9.548h-1.442zm11.225-9.548h1.456v1.19h-1.456v3.5c0 .308.07.541.21.7.14.15.383.224.728.224.084 0 .177-.005.28-.014a1.1 1.1 0 0 0 .238-.042v1.12a2.678 2.678 0 0 1-.322.07c-.159.037-.35.056-.574.056-.579 0-1.036-.163-1.372-.49-.336-.336-.504-.812-.504-1.428v-3.696h-1.288v-1.19H225c.364 0 .625-.098.784-.294.168-.196.252-.443.252-.742v-1.092h1.204v2.128zm5.651 5.768c.28 0 .546-.051.798-.154.252-.103.476-.257.672-.462.196-.205.35-.457.462-.756.112-.299.168-.644.168-1.036s-.056-.733-.168-1.022a2.194 2.194 0 0 0-.462-.756 1.928 1.928 0 0 0-.672-.462 2.094 2.094 0 0 0-.798-.154c-.28 0-.546.051-.798.154a1.928 1.928 0 0 0-.672.462c-.196.205-.35.457-.462.756-.112.29-.168.63-.168 1.022s.056.737.168 1.036c.112.299.266.55.462.756.196.205.42.36.672.462.252.103.518.154.798.154zm0-5.978c.504 0 .966.093 1.386.28.42.177.784.425 1.092.742.308.317.546.695.714 1.134.168.43.252.9.252 1.414 0 .513-.084.99-.252 1.428a3.302 3.302 0 0 1-.714 1.134c-.308.317-.672.57-1.092.756-.42.177-.882.266-1.386.266-.504 0-.966-.089-1.386-.266a3.468 3.468 0 0 1-1.092-.756 3.302 3.302 0 0 1-.714-1.134 3.96 3.96 0 0 1-.252-1.428c0-.513.084-.985.252-1.414.168-.439.406-.817.714-1.134a3.284 3.284 0 0 1 1.092-.742c.42-.187.882-.28 1.386-.28zm8.69 4.774c.047.355.201.653.462.896s.63.364 1.106.364c.373 0 .658-.089.854-.266a.823.823 0 0 0 .294-.63.744.744 0 0 0-.224-.546c-.149-.15-.364-.257-.644-.322l-1.148-.252c-.532-.112-.947-.336-1.246-.672a1.805 1.805 0 0 1-.434-1.218c0-.29.061-.56.182-.812a2.335 2.335 0 0 1 1.274-1.148 2.65 2.65 0 0 1 .938-.168c.457 0 .84.065 1.148.196.317.13.574.294.77.49.196.187.341.383.434.588.103.205.173.383.21.532l-1.162.434a2.826 2.826 0 0 0-.098-.322 1.07 1.07 0 0 0-.224-.364 1.235 1.235 0 0 0-.42-.308 1.532 1.532 0 0 0-.658-.126c-.336 0-.607.093-.812.28-.205.177-.308.383-.308.616 0 .43.257.7.77.812l1.092.238c.616.13 1.078.373 1.386.728.317.345.476.77.476 1.274 0 .243-.051.485-.154.728a2.125 2.125 0 0 1-.462.672 2.08 2.08 0 0 1-.756.49c-.308.13-.672.196-1.092.196-.467 0-.868-.065-1.204-.196a2.843 2.843 0 0 1-.826-.49 2.401 2.401 0 0 1-.504-.63 2.242 2.242 0 0 1-.21-.644l1.19-.42zM248.3 33h-1.316V22.864h1.316v4.186c.243-.355.546-.607.91-.756a2.96 2.96 0 0 1 1.134-.224c.402 0 .752.07 1.05.21.308.13.56.317.756.56.206.233.355.513.448.84.103.327.154.677.154 1.05V33h-1.316v-4.046c0-.233-.028-.453-.084-.658a1.185 1.185 0 0 0-.266-.532 1.142 1.142 0 0 0-.49-.364 1.686 1.686 0 0 0-.728-.14c-.252 0-.476.047-.672.14-.186.093-.345.22-.476.378-.13.159-.233.345-.308.56a2.791 2.791 0 0 0-.112.7V33zm5.747-1.806c0-.299.051-.565.154-.798.102-.243.242-.448.42-.616.186-.168.406-.303.658-.406a3.7 3.7 0 0 1 .812-.224l1.82-.266c.205-.028.34-.089.406-.182a.505.505 0 0 0 .112-.322c0-.327-.117-.607-.35-.84-.224-.243-.593-.364-1.106-.364-.467 0-.826.13-1.078.392a1.583 1.583 0 0 0-.448.966l-1.26-.294c.037-.317.13-.611.28-.882.158-.27.359-.5.602-.686a2.58 2.58 0 0 1 .84-.448 3.17 3.17 0 0 1 1.036-.168c.504 0 .933.07 1.288.21.354.13.644.308.868.532.224.224.387.485.49.784.102.299.154.611.154.938v3.374c0 .299.009.537.028.714.018.177.037.308.056.392h-1.288a3.74 3.74 0 0 1-.056-.336 8.636 8.636 0 0 1-.014-.574 2.501 2.501 0 0 1-.294.378c-.122.13-.271.252-.448.364-.178.112-.388.2-.63.266-.234.075-.5.112-.798.112-.346 0-.658-.056-.938-.168a2.396 2.396 0 0 1-.7-.434 2.094 2.094 0 0 1-.462-.644 1.95 1.95 0 0 1-.154-.77zm2.436.91c.27 0 .522-.033.756-.098.242-.075.448-.187.616-.336.177-.159.317-.364.42-.616.102-.261.154-.574.154-.938v-.308l-2.058.308a1.35 1.35 0 0 0-.7.322c-.187.159-.28.387-.28.686 0 .252.098.48.294.686.196.196.462.294.798.294zm8.768-4.508a4.064 4.064 0 0 0-.574-.042c-.551 0-.999.163-1.344.49-.336.317-.504.845-.504 1.582V33h-1.316v-6.734h1.288v1.176c.121-.261.261-.471.42-.63.168-.168.34-.299.518-.392.177-.103.359-.173.546-.21.186-.037.364-.056.532-.056a2.061 2.061 0 0 1 .434.042v1.4zm5.549 1.344c-.019-.485-.182-.891-.49-1.218-.308-.336-.761-.504-1.358-.504a1.794 1.794 0 0 0-1.316.546c-.15.159-.271.34-.364.546a1.669 1.669 0 0 0-.154.63h3.682zm1.33 2.142a3.012 3.012 0 0 1-1.946 1.96 3.307 3.307 0 0 1-1.078.168 3.54 3.54 0 0 1-1.288-.238 3.212 3.212 0 0 1-1.092-.7 3.456 3.456 0 0 1-.742-1.134c-.178-.448-.266-.957-.266-1.526 0-.532.088-1.013.266-1.442a3.55 3.55 0 0 1 .7-1.12c.298-.317.644-.56 1.036-.728a2.925 2.925 0 0 1 1.218-.266c.513 0 .97.089 1.372.266a2.7 2.7 0 0 1 1.022.714c.27.308.476.681.616 1.12.149.43.224.905.224 1.428 0 .084-.005.163-.014.238a.988.988 0 0 1-.014.182h-5.068c.009.299.065.574.168.826.102.252.242.471.42.658.186.177.401.317.644.42.252.093.518.14.798.14.55 0 .97-.13 1.26-.392.289-.261.499-.583.63-.966l1.134.392zm4.664 4.732 1.68-3.556-2.898-5.992h1.512l2.1 4.648 2.016-4.648h1.414l-4.382 9.548h-1.442zm9.566-3.78c.28 0 .546-.051.798-.154.252-.103.476-.257.672-.462.196-.205.35-.457.462-.756.112-.299.168-.644.168-1.036s-.056-.733-.168-1.022a2.194 2.194 0 0 0-.462-.756 1.928 1.928 0 0 0-.672-.462 2.094 2.094 0 0 0-.798-.154c-.28 0-.546.051-.798.154a1.928 1.928 0 0 0-.672.462c-.196.205-.35.457-.462.756-.112.29-.168.63-.168 1.022s.056.737.168 1.036c.112.299.266.55.462.756.196.205.42.36.672.462.252.103.518.154.798.154zm0-5.978c.504 0 .966.093 1.386.28.42.177.784.425 1.092.742.308.317.546.695.714 1.134.168.43.252.9.252 1.414 0 .513-.084.99-.252 1.428a3.302 3.302 0 0 1-.714 1.134c-.308.317-.672.57-1.092.756-.42.177-.882.266-1.386.266-.504 0-.966-.089-1.386-.266a3.468 3.468 0 0 1-1.092-.756 3.302 3.302 0 0 1-.714-1.134 3.96 3.96 0 0 1-.252-1.428c0-.513.084-.985.252-1.414.168-.439.406-.817.714-1.134a3.284 3.284 0 0 1 1.092-.742c.42-.187.882-.28 1.386-.28zm9.254 6.132a1.72 1.72 0 0 1-.84.784 2.91 2.91 0 0 1-1.148.238c-.392 0-.747-.07-1.064-.21a2.3 2.3 0 0 1-.784-.574 2.673 2.673 0 0 1-.504-.854 3.26 3.26 0 0 1-.168-1.064v-4.242h1.316v4.046c0 .233.028.457.084.672.056.205.144.387.266.546.121.159.275.285.462.378.196.093.434.14.714.14.532 0 .928-.159 1.19-.476.27-.317.406-.733.406-1.246v-4.06h1.316v5.488c0 .27.004.518.014.742.018.215.037.383.056.504h-1.26a2.018 2.018 0 0 1-.042-.35 7.77 7.77 0 0 1-.014-.462zm6.81-4.592a4.053 4.053 0 0 0-.574-.042c-.551 0-.999.163-1.344.49-.336.317-.504.845-.504 1.582V33h-1.316v-6.734h1.288v1.176c.121-.261.261-.471.42-.63.168-.168.341-.299.518-.392.177-.103.359-.173.546-.21a2.72 2.72 0 0 1 .532-.056 2.061 2.061 0 0 1 .434.042v1.4zm4.864 2.016c0 .345.042.667.126.966.094.29.224.541.392.756.168.215.374.383.616.504.243.121.523.182.84.182.299 0 .57-.06.812-.182a1.94 1.94 0 0 0 .616-.518 2.2 2.2 0 0 0 .378-.77c.094-.299.14-.62.14-.966 0-.7-.172-1.265-.518-1.694-.336-.43-.807-.644-1.414-.644-.298 0-.574.06-.826.182a1.787 1.787 0 0 0-.63.49 2.26 2.26 0 0 0-.392.742c-.093.29-.14.607-.14.952zm3.934 2.366c-.158.327-.415.611-.77.854-.345.233-.784.35-1.316.35-.494 0-.938-.089-1.33-.266a3.115 3.115 0 0 1-1.008-.756 3.653 3.653 0 0 1-.63-1.134 4.368 4.368 0 0 1-.224-1.414c0-.476.075-.924.224-1.344.159-.43.378-.803.658-1.12.28-.327.616-.583 1.008-.77a2.87 2.87 0 0 1 1.302-.294c.299 0 .56.033.784.098.234.065.434.154.602.266.168.103.308.224.42.364.112.13.196.266.252.406v-4.354h1.302v8.89c0 .327.01.602.028.826.019.224.033.364.042.42h-1.274a3.306 3.306 0 0 1-.056-.35 10.51 10.51 0 0 1-.014-.56v-.112zm6.1.056c.28 0 .546-.051.798-.154.252-.103.476-.257.672-.462.196-.205.35-.457.462-.756.112-.299.168-.644.168-1.036s-.056-.733-.168-1.022a2.194 2.194 0 0 0-.462-.756 1.928 1.928 0 0 0-.672-.462 2.094 2.094 0 0 0-.798-.154c-.28 0-.546.051-.798.154a1.928 1.928 0 0 0-.672.462c-.196.205-.35.457-.462.756-.112.29-.168.63-.168 1.022s.056.737.168 1.036c.112.299.266.55.462.756.196.205.42.36.672.462.252.103.518.154.798.154zm0-5.978c.504 0 .966.093 1.386.28.42.177.784.425 1.092.742.308.317.546.695.714 1.134.168.43.252.9.252 1.414 0 .513-.084.99-.252 1.428a3.302 3.302 0 0 1-.714 1.134c-.308.317-.672.57-1.092.756-.42.177-.882.266-1.386.266-.504 0-.966-.089-1.386-.266a3.468 3.468 0 0 1-1.092-.756 3.302 3.302 0 0 1-.714-1.134 3.96 3.96 0 0 1-.252-1.428c0-.513.084-.985.252-1.414.168-.439.406-.817.714-1.134a3.284 3.284 0 0 1 1.092-.742c.42-.187.882-.28 1.386-.28zm7.755 1.218c-.27 0-.527.051-.77.154a1.885 1.885 0 0 0-.658.434 2.169 2.169 0 0 0-.448.742c-.112.29-.168.63-.168 1.022 0 .383.056.723.168 1.022.112.29.262.537.448.742.187.196.406.345.658.448.252.103.514.154.784.154.318 0 .584-.047.798-.14.224-.093.406-.21.546-.35.15-.14.266-.29.35-.448a2.63 2.63 0 0 0 .182-.448l1.162.504c-.084.243-.205.49-.364.742a2.945 2.945 0 0 1-1.512 1.162 3.19 3.19 0 0 1-1.162.196c-.494 0-.952-.089-1.372-.266a3.357 3.357 0 0 1-1.064-.756 3.86 3.86 0 0 1-.714-1.134 3.96 3.96 0 0 1-.252-1.428 4 4 0 0 1 .252-1.442 3.46 3.46 0 0 1 .714-1.12 3.33 3.33 0 0 1 1.078-.742 3.42 3.42 0 0 1 1.344-.266c.448 0 .84.065 1.176.196.346.121.64.285.882.49a2.5 2.5 0 0 1 .602.7c.15.252.262.504.336.756l-1.19.504a2.758 2.758 0 0 0-.196-.504 1.45 1.45 0 0 0-.35-.448 1.547 1.547 0 0 0-.518-.336 1.782 1.782 0 0 0-.742-.14zm8.735 4.914a1.72 1.72 0 0 1-.84.784 2.907 2.907 0 0 1-1.148.238c-.392 0-.747-.07-1.064-.21a2.31 2.31 0 0 1-.784-.574 2.673 2.673 0 0 1-.504-.854 3.26 3.26 0 0 1-.168-1.064v-4.242h1.316v4.046c0 .233.028.457.084.672.056.205.145.387.266.546.121.159.275.285.462.378.196.093.434.14.714.14.532 0 .929-.159 1.19-.476.271-.317.406-.733.406-1.246v-4.06h1.316v5.488c0 .27.005.518.014.742.019.215.037.383.056.504h-1.26a2.018 2.018 0 0 1-.042-.35 8.723 8.723 0 0 1-.014-.462zm3.072.812v-6.734h1.26v.896c.215-.373.509-.649.882-.826.383-.177.77-.266 1.162-.266.42 0 .812.103 1.176.308.374.205.654.527.84.966.271-.485.607-.817 1.008-.994.402-.187.817-.28 1.246-.28.29 0 .574.051.854.154.28.103.528.261.742.476.224.205.402.471.532.798.131.317.196.695.196 1.134V33h-1.302v-4.228c0-.439-.116-.803-.35-1.092-.224-.299-.583-.448-1.078-.448-.466 0-.844.163-1.134.49-.28.317-.42.719-.42 1.204V33h-1.316v-4.228c0-.439-.112-.803-.336-1.092-.224-.299-.588-.448-1.092-.448-.476 0-.858.159-1.148.476-.28.317-.42.728-.42 1.232V33h-1.302zm16.274-4.06c-.019-.485-.182-.891-.49-1.218-.308-.336-.761-.504-1.358-.504a1.794 1.794 0 0 0-1.316.546c-.15.159-.271.34-.364.546a1.669 1.669 0 0 0-.154.63h3.682zm1.33 2.142a3.012 3.012 0 0 1-1.946 1.96 3.307 3.307 0 0 1-1.078.168 3.54 3.54 0 0 1-1.288-.238 3.212 3.212 0 0 1-1.092-.7 3.456 3.456 0 0 1-.742-1.134c-.178-.448-.266-.957-.266-1.526 0-.532.088-1.013.266-1.442a3.55 3.55 0 0 1 .7-1.12c.298-.317.644-.56 1.036-.728a2.925 2.925 0 0 1 1.218-.266c.513 0 .97.089 1.372.266a2.7 2.7 0 0 1 1.022.714c.27.308.476.681.616 1.12.149.43.224.905.224 1.428 0 .084-.005.163-.014.238a.988.988 0 0 1-.014.182h-5.068c.009.299.065.574.168.826.102.252.242.471.42.658.186.177.401.317.644.42.252.093.518.14.798.14.55 0 .97-.13 1.26-.392.289-.261.499-.583.63-.966l1.134.392zM357.186 33h-1.316v-6.734h1.288v.966c.243-.42.551-.719.924-.896a2.648 2.648 0 0 1 1.148-.266c.401 0 .751.07 1.05.21.308.13.56.317.756.56.205.233.355.513.448.84.103.327.154.677.154 1.05V33h-1.316v-4.046c0-.233-.028-.453-.084-.658a1.196 1.196 0 0 0-.266-.532 1.148 1.148 0 0 0-.49-.364 1.69 1.69 0 0 0-.728-.14c-.261 0-.49.051-.686.154a1.345 1.345 0 0 0-.49.392 1.728 1.728 0 0 0-.294.588 2.55 2.55 0 0 0-.098.714V33zm7.974-6.734h1.456v1.19h-1.456v3.5c0 .308.07.541.21.7.14.15.382.224.728.224.084 0 .177-.005.28-.014.102-.01.182-.023.238-.042v1.12a2.726 2.726 0 0 1-.322.07c-.159.037-.35.056-.574.056-.579 0-1.036-.163-1.372-.49-.336-.336-.504-.812-.504-1.428v-3.696h-1.288v-1.19h.364c.364 0 .625-.098.784-.294.168-.196.252-.443.252-.742v-1.092h1.204v2.128zm3.367 4.564c.047.355.201.653.462.896s.63.364 1.106.364c.373 0 .658-.089.854-.266a.823.823 0 0 0 .294-.63.744.744 0 0 0-.224-.546c-.149-.15-.364-.257-.644-.322l-1.148-.252c-.532-.112-.947-.336-1.246-.672a1.805 1.805 0 0 1-.434-1.218c0-.29.061-.56.182-.812a2.335 2.335 0 0 1 1.274-1.148 2.65 2.65 0 0 1 .938-.168c.457 0 .84.065 1.148.196.317.13.574.294.77.49.196.187.341.383.434.588.103.205.173.383.21.532l-1.162.434a2.826 2.826 0 0 0-.098-.322 1.07 1.07 0 0 0-.224-.364 1.235 1.235 0 0 0-.42-.308 1.532 1.532 0 0 0-.658-.126c-.336 0-.607.093-.812.28-.205.177-.308.383-.308.616 0 .43.257.7.77.812l1.092.238c.616.13 1.078.373 1.386.728.317.345.476.77.476 1.274 0 .243-.051.485-.154.728a2.125 2.125 0 0 1-.462.672 2.08 2.08 0 0 1-.756.49c-.308.13-.672.196-1.092.196-.467 0-.868-.065-1.204-.196a2.843 2.843 0 0 1-.826-.49 2.401 2.401 0 0 1-.504-.63 2.242 2.242 0 0 1-.21-.644l1.19-.42z" fill="#817E7E"/><g clip-path="url(#k)"><path d="M102.689 19.677c-1.943-1.87-4.62-2.677-8.69-2.677-4.07 0-6.746.807-8.69 2.677l-.11.11V28c0 5.023 3.484 9.497 8.69 11.11l.11.037.11-.037c5.207-1.613 8.69-6.087 8.69-11.11v-8.213l-.11-.11z" fill="#518EF8"/><path d="M94.001 32.582a5.5 5.5 0 1 0 0-11 5.5 5.5 0 0 0 0 11z" fill="#fff"/><mask id="l" style="mask-type:alpha" maskUnits="userSpaceOnUse" x="88" y="27" width="12" height="12"><path d="M94.232 38.267a5.237 5.237 0 1 0 0-10.474 5.237 5.237 0 0 0 0 10.474z" fill="#C4C4C4"/></mask><path d="m97.283 25.53-3.423 3.68a.507.507 0 0 1-.372.165.507.507 0 0 1-.372-.166l-1.712-1.84a.596.596 0 0 1 0-.8.5.5 0 0 1 .745 0l1.34 1.44 3.05-3.28a.5.5 0 0 1 .744 0 .596.596 0 0 1 0 .8z" fill="#518EF8"/></g><defs><linearGradient id="f" x1="124.5" y1="2.001" x2="268" y2="2.001" gradientUnits="userSpaceOnUse"><stop stop-color="#BDFFBC" stop-opacity="0"/><stop offset="1" stop-color="#BDFFBC"/></linearGradient><linearGradient id="a" x1="96.5" y1="9.001" x2="240" y2="9.001" gradientUnits="userSpaceOnUse"><stop stop-color="#BDFFBC" stop-opacity="0"/><stop offset="1" stop-color="#BDFFBC"/></linearGradient><linearGradient id="c" x1="140.5" y1="54.001" x2="284" y2="54.001" gradientUnits="userSpaceOnUse"><stop stop-color="#BDFFBC" stop-opacity="0"/><stop offset="1" stop-color="#BDFFBC"/></linearGradient><linearGradient id="d" x1="285.5" y1="54.001" x2="429" y2="54.001" gradientUnits="userSpaceOnUse"><stop stop-color="#BDFFBC" stop-opacity="0"/><stop offset="1" stop-color="#BDFFBC"/></linearGradient><linearGradient id="e" x1="249.5" y1="9.001" x2="393" y2="9.001" gradientUnits="userSpaceOnUse"><stop stop-color="#BDFFBC" stop-opacity="0"/><stop offset="1" stop-color="#BDFFBC"/></linearGradient><linearGradient id="b" x1="-4.5" y1="54.001" x2="139" y2="54.001" gradientUnits="userSpaceOnUse"><stop stop-color="#BDFFBC" stop-opacity="0"/><stop offset="1" stop-color="#BDFFBC"/></linearGradient><linearGradient id="g" x1="23.5" y1="47.001" x2="167" y2="47.001" gradientUnits="userSpaceOnUse"><stop stop-color="#BDFFBC" stop-opacity="0"/><stop offset="1" stop-color="#BDFFBC"/></linearGradient><linearGradient id="h" x1="168.5" y1="47.001" x2="312" y2="47.001" gradientUnits="userSpaceOnUse"><stop stop-color="#BDFFBC" stop-opacity="0"/><stop offset="1" stop-color="#BDFFBC"/></linearGradient><linearGradient id="i" x1="313.5" y1="47.001" x2="457" y2="47.001" gradientUnits="userSpaceOnUse"><stop stop-color="#BDFFBC" stop-opacity="0"/><stop offset="1" stop-color="#BDFFBC"/></linearGradient><linearGradient id="j" x1="272.5" y1="2.001" x2="416" y2="2.001" gradientUnits="userSpaceOnUse"><stop stop-color="#BDFFBC" stop-opacity="0"/><stop offset="1" stop-color="#BDFFBC"/></linearGradient><clipPath id="k"><path fill="#fff" transform="translate(83 17)" d="M0 0h22v22H0z"/></clipPath></defs></svg>