<svg width="270" height="153" viewBox="0 0 270 153" fill="none" xmlns="http://www.w3.org/2000/svg">
<g opacity="0.5">
<path d="M265.693 96.4688H99.2773" stroke="url(#paint0_linear_59778_4373)" stroke-width="0.783133"/>
<path d="M267.259 51.0469H158.012" stroke="url(#paint1_linear_59778_4373)" stroke-width="0.783133"/>
<path d="M269.608 70.6285H121.596L90.2711 44.7852H10" stroke="url(#paint2_linear_59778_4373)" stroke-width="0.783133"/>
<path d="M220 122.313H144.982L118.523 148.156H50.7227" stroke="url(#paint3_linear_59778_4373)" stroke-width="0.783133"/>
<path d="M266.084 32.2534H162.928L136.266 4.84375H26.4453" stroke="url(#paint4_linear_59778_4373)" stroke-width="0.783133"/>
<circle cx="46" cy="148" r="4.5" stroke="#f33338"/>
<circle cx="95" cy="96" r="4.5" stroke="#f33338"/>
<circle cx="153" cy="51" r="4.5" stroke="#f33338"/>
<circle cx="22" cy="5" r="4.5" stroke="#f33338"/>
<circle cx="5" cy="45" r="4.5" stroke="#f33338"/>
</g>
<defs>
<linearGradient id="paint0_linear_59778_4373" x1="95.7517" y1="97.3283" x2="244.79" y2="97.3283" gradientUnits="userSpaceOnUse">
<stop stop-color="#f33338"/>
<stop offset="1" stop-color="#f33338" stop-opacity="0"/>
</linearGradient>
<linearGradient id="paint1_linear_59778_4373" x1="155.697" y1="51.9065" x2="253.537" y2="51.9065" gradientUnits="userSpaceOnUse">
<stop stop-color="#f33338"/>
<stop offset="1" stop-color="#f33338" stop-opacity="0"/>
</linearGradient>
<linearGradient id="paint2_linear_59778_4373" x1="4.5" y1="67" x2="237" y2="67" gradientUnits="userSpaceOnUse">
<stop stop-color="#f33338"/>
<stop offset="1" stop-color="#f33338" stop-opacity="0"/>
</linearGradient>
<linearGradient id="paint3_linear_59778_4373" x1="47.1364" y1="125.941" x2="198.738" y2="125.941" gradientUnits="userSpaceOnUse">
<stop stop-color="#f33338"/>
<stop offset="1" stop-color="#f33338" stop-opacity="0"/>
</linearGradient>
<linearGradient id="paint4_linear_59778_4373" x1="21.3684" y1="28.4049" x2="235.984" y2="28.4049" gradientUnits="userSpaceOnUse">
<stop stop-color="#f33338"/>
<stop offset="1" stop-color="#f33338" stop-opacity="0"/>
</linearGradient>
</defs>
</svg>
