<svg xmlns="http://www.w3.org/2000/svg" viewBox="0 0 64 22" xml:space="preserve" alt="PayTM logo"><path fill="#54C1F0" d="M63.54 6.78c-.6-1.7-2.2-2.8-4-2.8-1.2 0-2.3.5-3.1 1.3-.8-.8-1.9-1.3-3.1-1.3-1.1 0-2 .4-2.8 1v-.3c0-.3-.3-.6-.6-.6h-2.8c-.3 0-.6.3-.6.6v15.4c0 .3.3.6.6.6h2.8c.3 0 .6-.2.6-.5V8.98c0-.5.4-.9 1-.9h.5c.2 0 .4.1.6.2.2.2.4.5.4.8v11c0 .3.3.6.6.6h2.8c.3 0 .6-.3.6-.6v-11c0-.4.2-.7.5-.9.1-.1.3-.2.5-.2h.5c.6.1 1 .5 1 1.1v11c0 .3.3.6.6.6h2.8c.3 0 .6-.3.6-.6V8.28c.2-.8.1-1.2 0-1.5M44.347 4.085h-1.6v-2.6c0-.3-.3-.6-.6-.6h-.1c-1.8.5-1.4 3-4.7 3.2h-.4c-.3.1-.5.3-.5.6v2.8c0 .3.3.6.6.6h1.7v12c0 .3.3.6.6.6h2.8c.3 0 .6-.3.6-.6v-12h1.6c.3 0 .6-.3.6-.6v-2.8c0-.3-.3-.6-.6-.6"></path><path fill="#233266" d="M34.098 4.085h-2.8c-.3 0-.6.3-.6.6v5.9c0 .4-.3.7-.7.7h-1.2c-.4 0-.7-.3-.7-.7v-5.9c0-.3-.3-.6-.6-.6h-2.8c-.3 0-.6.3-.6.6v6.4c0 2.4 1.7 4.2 4.2 4.2h1.9c.3 0 .6.3.6.7 0 .3-.3.6-.6.7h-4.1c-.3 0-.6.3-.6.6v2.8c0 .3.3.6.6.6h4.6c2.4 0 4.2-1.7 4.2-4.2v-11.9c-.1-.2-.4-.5-.8-.5M6.72 9.289V10.989c0 .4-.3.7-.7.7h-1.8v-3.5h1.8c.4 0 .7.3.7.7v.4zm.2-5.2H.72c-.3 0-.6.3-.6.6V20.089c0 .3.3.6.6.6h2.9c.3 0 .6-.3.6-.6v-4.3h2.7c2.3 0 3.9-1.6 3.9-3.9v-4c0-2.2-1.6-3.8-3.9-3.8M18.44 15.898v.6c-.1.2-.3.4-.6.4h-1.2c-.4 0-.7-.3-.7-.6v-2.4c0-.3.3-.6.7-.6h1.2c.4 0 .7.3.7.6v2zm-.4-11.8h-3.9c-.3 0-.6.3-.6.6v2.6c0 .3.3.6.7.6h3.7c.3 0 .5.3.6.6v.4c0 .3-.3.6-.5.6h-1.9c-2.5 0-4.2 1.6-4.2 3.9V16.698c0 2.3 1.5 3.9 4 3.9h5.1c.9 0 1.7-.7 1.7-1.6v-10.8c-.2-2.4-1.5-4.1-4.7-4.1"></path></svg>